<?xml version="1.0" encoding="UTF-8"?>
<svg width="383.79mm" height="143.14mm" version="1.1" viewBox="0 0 1359.8915 507.20671" xmlns="http://www.w3.org/2000/svg" xmlns:xlink="http://www.w3.org/1999/xlink">
 <defs>
  <filter id="a" color-interpolation-filters="sRGB">
   <feGaussianBlur stdDeviation="0.16920084"/>
  </filter>
  <radialGradient id="g" cx="-1274.8" cy="975.63" r="185.87" gradientTransform="matrix(-.45694 1.1682 -1.2791 -.50028 437.82 2769.6)" gradientUnits="userSpaceOnUse">
   <stop stop-color="#666" offset="0"/>
   <stop stop-color="#4d4d4d" offset=".5"/>
   <stop offset="1"/>
  </radialGradient>
  <radialGradient id="h" cx="-1233.8" cy="975.87" r="185.87" gradientTransform="matrix(-.0092869 .67956 -.65211 -.0089119 399.14 1634.2)" gradientUnits="userSpaceOnUse">
   <stop offset="0"/>
   <stop stop-color="#999" offset="1"/>
  </radialGradient>
  <radialGradient id="i" cx="-1236.1" cy="978.44" r="185.87" gradientTransform="matrix(-.0011345 .60345 -.58696 -.0011043 345.55 1536.2)" gradientUnits="userSpaceOnUse">
   <stop stop-color="#4d4d4d" offset="0"/>
   <stop stop-color="#4d4d4d" stop-opacity="0" offset="1"/>
  </radialGradient>
  <radialGradient id="j" cx="-1237.1" cy="983.58" r="185.87" gradientTransform="matrix(.0015831 .435 -.43478 .0015798 201.79 1328.8)" gradientUnits="userSpaceOnUse">
   <stop stop-color="#fff" offset="0"/>
   <stop stop-color="#4d4d4d" offset="1"/>
  </radialGradient>
  <radialGradient id="k" cx="-1237.7" cy="968.02" r="185.87" gradientTransform="matrix(.001583 .24748 -.22826 .00146 -4.9161 1093.5)" gradientUnits="userSpaceOnUse">
   <stop stop-color="#ccc" offset="0"/>
   <stop stop-color="#1a1a1a" offset="1"/>
  </radialGradient>
 </defs>
 <g transform="translate(-24.5 -406.37)">
  <path d="m397.68 794.39c-1.7858 14.227 2.7678 21.459 2.7678 21.459 2.5893 5.7143 8.4821 10.268 8.4821 10.268 8.0357 6.7857 27.321 18.75 27.321 18.75l54.821 36.964 9.0804 6.5122c14.521 10.102 27.905 11.743 27.905 11.743 7.0711 0.63134 10.228 0.50508 10.228 0.50508l51.518-0.37881 495.55-0.1672c20.399 0.25254 32.322-6.0714 32.322-6.0714l22.143-12.321 58.75-38.75c17.322-13.214 26.371-28.654 26.371-28.654s3.4031-4.318 4.4608-19.858z" fill="#1a1a1a" fill-rule="evenodd" stroke="#000" stroke-linecap="round" stroke-linejoin="round"/>
  <circle cx="432.19" cy="799.91" r="34.999" fill="#1a1a1a" stroke="#000" stroke-linecap="round" stroke-linejoin="round"/>
  <g transform="matrix(.30227 0 0 .30227 1163.5 610.23)">
   <path d="m-57.878 792.21c0 93.724-75.98 169.71-169.71 169.71s-169.71-75.98-169.71-169.71c0-93.727 75.98-169.71 169.71-169.71s169.71 75.98 169.71 169.71z" fill="url(#g)"/>
   <path d="m-106.31 792.2c0 66.945-54.271 121.22-121.22 121.22s-121.22-54.271-121.22-121.22 54.271-121.22 121.22-121.22 121.22 54.271 121.22 121.22z" fill="url(#h)"/>
   <path d="m-118.5 792.25c0 60.251-48.844 109.1-109.1 109.1s-109.1-48.844-109.1-109.1c0-60.254 48.844-109.1 109.1-109.1s109.1 48.844 109.1 109.1z" fill="url(#i)"/>
   <path d="m-227.54 683.18c-8.7295 0-17.207 1.032-25.344 2.9688 2.1449 9.2229 12.667 16.219 25.344 16.219 12.662 0 23.182-6.9808 25.344-16.188-8.1364-1.9365-16.615-3-25.344-3z" fill="#333" opacity=".8"/>
   <path d="m-306.76 717.28c-11.623 12.275-20.434 27.239-25.375 43.875 9.0597 2.7536 20.412-2.8653 26.75-13.844 6.3278-10.96 5.5075-23.552-1.375-30.031z" fill="#333" opacity=".8"/>
   <path d="m-327.69 822.68c-1.5211 0.028-3.0018 0.2506-4.4375 0.6874 4.9406 16.636 13.752 31.6 25.375 43.875 6.8825-6.4788 7.7028-19.071 1.375-30.031-5.3348-9.2402-14.235-14.68-22.312-14.531z" fill="#333" opacity=".8"/>
   <path d="m-227.54 882.18c-12.677 0-23.199 7.0271-25.344 16.25 8.1368 1.9367 16.614 2.9375 25.344 2.9375 8.7292 0 17.207-1.0322 25.344-2.9688-2.1623-9.2066-12.682-16.219-25.344-16.219z" fill="#333" opacity=".8"/>
   <path d="m-128.41 822.68c-7.7976 0.3016-16.137 5.676-21.25 14.531-6.3277 10.96-5.5387 23.552 1.3438 30.031 11.623-12.275 20.434-27.239 25.375-43.875-1.7534-0.5334-3.5976-0.7598-5.4688-0.6874z" fill="#333" opacity=".8"/>
   <path d="m-148.32 717.28c-6.8825 6.4789-7.6715 19.071-1.3438 30.031 6.3384 10.978 17.659 16.597 26.719 13.844-4.9406-16.636-13.752-31.6-25.375-43.875z" fill="#333" opacity=".8"/>
   <path d="m-146.72 792.26c0 44.63-36.181 80.813-80.813 80.813s-80.813-36.181-80.813-80.813 36.181-80.813 80.813-80.813 80.813 36.181 80.813 80.813z" fill="url(#j)"/>
   <path d="m-185.12 792.21c0 23.431-18.995 42.427-42.427 42.427s-42.427-18.995-42.427-42.427 18.995-42.427 42.427-42.427 42.427 18.995 42.427 42.427z" fill="url(#k)"/>
   <g transform="translate(1015.4 -203.02)" filter="url(#a)">
    <path transform="matrix(1.1515,0,0,1.1515,190.17,-142.58)" d="m-1246.8 941.88c0 2.3013-1.8655 4.1669-4.1668 4.1669s-4.1669-1.8656-4.1669-4.1669 1.8656-4.1669 4.1669-4.1669 4.1668 1.8656 4.1668 4.1669z" opacity=".8"/>
    <path transform="matrix(1.1515,0,0,1.1515,204.82,-142.58)" d="m-1246.8 941.88c0 2.3013-1.8655 4.1669-4.1668 4.1669s-4.1669-1.8656-4.1669-4.1669 1.8656-4.1669 4.1669-4.1669 4.1668 1.8656 4.1668 4.1669z" opacity=".8"/>
   </g>
   <g transform="matrix(.70711 -.70711 .70711 .70711 -52.828 -790.29)" filter="url(#a)">
    <path transform="matrix(1.1515,0,0,1.1515,190.17,-142.58)" d="m-1246.8 941.88c0 2.3013-1.8655 4.1669-4.1668 4.1669s-4.1669-1.8656-4.1669-4.1669 1.8656-4.1669 4.1669-4.1669 4.1668 1.8656 4.1668 4.1669z" opacity=".8"/>
    <path transform="matrix(1.1515,0,0,1.1515,204.82,-142.58)" d="m-1246.8 941.88c0 2.3013-1.8655 4.1669-4.1668 4.1669s-4.1669-1.8656-4.1669-4.1669 1.8656-4.1669 4.1669-4.1669 4.1668 1.8656 4.1668 4.1669z" opacity=".8"/>
   </g>
   <g transform="matrix(0 -1 1 0 -1223.4 -450.22)" filter="url(#a)">
    <path transform="matrix(1.1515,0,0,1.1515,190.17,-142.58)" d="m-1246.8 941.88c0 2.3013-1.8655 4.1669-4.1668 4.1669s-4.1669-1.8656-4.1669-4.1669 1.8656-4.1669 4.1669-4.1669 4.1668 1.8656 4.1668 4.1669z" opacity=".8"/>
    <path transform="matrix(1.1515,0,0,1.1515,204.82,-142.58)" d="m-1246.8 941.88c0 2.3013-1.8655 4.1669-4.1668 4.1669s-4.1669-1.8656-4.1669-4.1669 1.8656-4.1669 4.1669-4.1669 4.1668 1.8656 4.1668 4.1669z" opacity=".8"/>
   </g>
   <g transform="matrix(-.70711 -.70711 .70711 -.70711 -1810.7 617.98)" filter="url(#a)">
    <path transform="matrix(1.1515,0,0,1.1515,190.17,-142.58)" d="m-1246.8 941.88c0 2.3013-1.8655 4.1669-4.1668 4.1669s-4.1669-1.8656-4.1669-4.1669 1.8656-4.1669 4.1669-4.1669 4.1668 1.8656 4.1668 4.1669z" opacity=".8"/>
    <path transform="matrix(1.1515,0,0,1.1515,204.82,-142.58)" d="m-1246.8 941.88c0 2.3013-1.8655 4.1669-4.1668 4.1669s-4.1669-1.8656-4.1669-4.1669 1.8656-4.1669 4.1669-4.1669 4.1668 1.8656 4.1668 4.1669z" opacity=".8"/>
   </g>
   <g transform="matrix(-1 0 0 -1 -1470.6 1788.6)" filter="url(#a)">
    <path transform="matrix(1.1515,0,0,1.1515,190.17,-142.58)" d="m-1246.8 941.88c0 2.3013-1.8655 4.1669-4.1668 4.1669s-4.1669-1.8656-4.1669-4.1669 1.8656-4.1669 4.1669-4.1669 4.1668 1.8656 4.1668 4.1669z" opacity=".8"/>
    <path transform="matrix(1.1515,0,0,1.1515,204.82,-142.58)" d="m-1246.8 941.88c0 2.3013-1.8655 4.1669-4.1668 4.1669s-4.1669-1.8656-4.1669-4.1669 1.8656-4.1669 4.1669-4.1669 4.1668 1.8656 4.1668 4.1669z" opacity=".8"/>
   </g>
   <g transform="matrix(-.70711 .70711 -.70711 -.70711 -402.42 2375.9)" filter="url(#a)">
    <path transform="matrix(1.1515,0,0,1.1515,190.17,-142.58)" d="m-1246.8 941.88c0 2.3013-1.8655 4.1669-4.1668 4.1669s-4.1669-1.8656-4.1669-4.1669 1.8656-4.1669 4.1669-4.1669 4.1668 1.8656 4.1668 4.1669z" opacity=".8"/>
    <path transform="matrix(1.1515,0,0,1.1515,204.82,-142.58)" d="m-1246.8 941.88c0 2.3013-1.8655 4.1669-4.1668 4.1669s-4.1669-1.8656-4.1669-4.1669 1.8656-4.1669 4.1669-4.1669 4.1668 1.8656 4.1668 4.1669z" opacity=".8"/>
   </g>
   <g transform="matrix(0 1 -1 0 768.16 2035.8)" filter="url(#a)">
    <path transform="matrix(1.1515,0,0,1.1515,190.17,-142.58)" d="m-1246.8 941.88c0 2.3013-1.8655 4.1669-4.1668 4.1669s-4.1669-1.8656-4.1669-4.1669 1.8656-4.1669 4.1669-4.1669 4.1668 1.8656 4.1668 4.1669z" opacity=".8"/>
    <path transform="matrix(1.1515,0,0,1.1515,204.82,-142.58)" d="m-1246.8 941.88c0 2.3013-1.8655 4.1669-4.1668 4.1669s-4.1669-1.8656-4.1669-4.1669 1.8656-4.1669 4.1669-4.1669 4.1668 1.8656 4.1668 4.1669z" opacity=".8"/>
   </g>
   <g transform="matrix(.70711 .70711 -.70711 .70711 1355.5 967.58)" filter="url(#a)">
    <path transform="matrix(1.1515,0,0,1.1515,190.17,-142.58)" d="m-1246.8 941.88c0 2.3013-1.8655 4.1669-4.1668 4.1669s-4.1669-1.8656-4.1669-4.1669 1.8656-4.1669 4.1669-4.1669 4.1668 1.8656 4.1668 4.1669z" opacity=".8"/>
    <path transform="matrix(1.1515,0,0,1.1515,204.82,-142.58)" d="m-1246.8 941.88c0 2.3013-1.8655 4.1669-4.1668 4.1669s-4.1669-1.8656-4.1669-4.1669 1.8656-4.1669 4.1669-4.1669 4.1668 1.8656 4.1668 4.1669z" opacity=".8"/>
   </g>
  </g>
  <g transform="matrix(.30227 0 0 .30227 1047.5 610.23)">
   <path d="m-57.878 792.21c0 93.724-75.98 169.71-169.71 169.71s-169.71-75.98-169.71-169.71c0-93.727 75.98-169.71 169.71-169.71s169.71 75.98 169.71 169.71z" fill="url(#g)"/>
   <path d="m-106.31 792.2c0 66.945-54.271 121.22-121.22 121.22s-121.22-54.271-121.22-121.22 54.271-121.22 121.22-121.22 121.22 54.271 121.22 121.22z" fill="url(#h)"/>
   <path d="m-118.5 792.25c0 60.251-48.844 109.1-109.1 109.1s-109.1-48.844-109.1-109.1c0-60.254 48.844-109.1 109.1-109.1s109.1 48.844 109.1 109.1z" fill="url(#i)"/>
   <path d="m-227.54 683.18c-8.7295 0-17.207 1.032-25.344 2.9688 2.1449 9.2229 12.667 16.219 25.344 16.219 12.662 0 23.182-6.9808 25.344-16.188-8.1364-1.9365-16.615-3-25.344-3z" fill="#333" opacity=".8"/>
   <path d="m-306.76 717.28c-11.623 12.275-20.434 27.239-25.375 43.875 9.0597 2.7536 20.412-2.8653 26.75-13.844 6.3278-10.96 5.5075-23.552-1.375-30.031z" fill="#333" opacity=".8"/>
   <path d="m-327.69 822.68c-1.5211 0.028-3.0018 0.2506-4.4375 0.6874 4.9406 16.636 13.752 31.6 25.375 43.875 6.8825-6.4788 7.7028-19.071 1.375-30.031-5.3348-9.2402-14.235-14.68-22.312-14.531z" fill="#333" opacity=".8"/>
   <path d="m-227.54 882.18c-12.677 0-23.199 7.0271-25.344 16.25 8.1368 1.9367 16.614 2.9375 25.344 2.9375 8.7292 0 17.207-1.0322 25.344-2.9688-2.1623-9.2066-12.682-16.219-25.344-16.219z" fill="#333" opacity=".8"/>
   <path d="m-128.41 822.68c-7.7976 0.3016-16.137 5.676-21.25 14.531-6.3277 10.96-5.5387 23.552 1.3438 30.031 11.623-12.275 20.434-27.239 25.375-43.875-1.7534-0.5334-3.5976-0.7598-5.4688-0.6874z" fill="#333" opacity=".8"/>
   <path d="m-148.32 717.28c-6.8825 6.4789-7.6715 19.071-1.3438 30.031 6.3384 10.978 17.659 16.597 26.719 13.844-4.9406-16.636-13.752-31.6-25.375-43.875z" fill="#333" opacity=".8"/>
   <path d="m-146.72 792.26c0 44.63-36.181 80.813-80.813 80.813s-80.813-36.181-80.813-80.813 36.181-80.813 80.813-80.813 80.813 36.181 80.813 80.813z" fill="url(#j)"/>
   <path d="m-185.12 792.21c0 23.431-18.995 42.427-42.427 42.427s-42.427-18.995-42.427-42.427 18.995-42.427 42.427-42.427 42.427 18.995 42.427 42.427z" fill="url(#k)"/>
   <g transform="translate(1015.4 -203.02)" filter="url(#a)">
    <path transform="matrix(1.1515,0,0,1.1515,190.17,-142.58)" d="m-1246.8 941.88c0 2.3013-1.8655 4.1669-4.1668 4.1669s-4.1669-1.8656-4.1669-4.1669 1.8656-4.1669 4.1669-4.1669 4.1668 1.8656 4.1668 4.1669z" opacity=".8"/>
    <path transform="matrix(1.1515,0,0,1.1515,204.82,-142.58)" d="m-1246.8 941.88c0 2.3013-1.8655 4.1669-4.1668 4.1669s-4.1669-1.8656-4.1669-4.1669 1.8656-4.1669 4.1669-4.1669 4.1668 1.8656 4.1668 4.1669z" opacity=".8"/>
   </g>
   <g transform="matrix(.70711 -.70711 .70711 .70711 -52.828 -790.29)" filter="url(#a)">
    <path transform="matrix(1.1515,0,0,1.1515,190.17,-142.58)" d="m-1246.8 941.88c0 2.3013-1.8655 4.1669-4.1668 4.1669s-4.1669-1.8656-4.1669-4.1669 1.8656-4.1669 4.1669-4.1669 4.1668 1.8656 4.1668 4.1669z" opacity=".8"/>
    <path transform="matrix(1.1515,0,0,1.1515,204.82,-142.58)" d="m-1246.8 941.88c0 2.3013-1.8655 4.1669-4.1668 4.1669s-4.1669-1.8656-4.1669-4.1669 1.8656-4.1669 4.1669-4.1669 4.1668 1.8656 4.1668 4.1669z" opacity=".8"/>
   </g>
   <g transform="matrix(0 -1 1 0 -1223.4 -450.22)" filter="url(#a)">
    <path transform="matrix(1.1515,0,0,1.1515,190.17,-142.58)" d="m-1246.8 941.88c0 2.3013-1.8655 4.1669-4.1668 4.1669s-4.1669-1.8656-4.1669-4.1669 1.8656-4.1669 4.1669-4.1669 4.1668 1.8656 4.1668 4.1669z" opacity=".8"/>
    <path transform="matrix(1.1515,0,0,1.1515,204.82,-142.58)" d="m-1246.8 941.88c0 2.3013-1.8655 4.1669-4.1668 4.1669s-4.1669-1.8656-4.1669-4.1669 1.8656-4.1669 4.1669-4.1669 4.1668 1.8656 4.1668 4.1669z" opacity=".8"/>
   </g>
   <g transform="matrix(-.70711 -.70711 .70711 -.70711 -1810.7 617.98)" filter="url(#a)">
    <path transform="matrix(1.1515,0,0,1.1515,190.17,-142.58)" d="m-1246.8 941.88c0 2.3013-1.8655 4.1669-4.1668 4.1669s-4.1669-1.8656-4.1669-4.1669 1.8656-4.1669 4.1669-4.1669 4.1668 1.8656 4.1668 4.1669z" opacity=".8"/>
    <path transform="matrix(1.1515,0,0,1.1515,204.82,-142.58)" d="m-1246.8 941.88c0 2.3013-1.8655 4.1669-4.1668 4.1669s-4.1669-1.8656-4.1669-4.1669 1.8656-4.1669 4.1669-4.1669 4.1668 1.8656 4.1668 4.1669z" opacity=".8"/>
   </g>
   <g transform="matrix(-1 0 0 -1 -1470.6 1788.6)" filter="url(#a)">
    <path transform="matrix(1.1515,0,0,1.1515,190.17,-142.58)" d="m-1246.8 941.88c0 2.3013-1.8655 4.1669-4.1668 4.1669s-4.1669-1.8656-4.1669-4.1669 1.8656-4.1669 4.1669-4.1669 4.1668 1.8656 4.1668 4.1669z" opacity=".8"/>
    <path transform="matrix(1.1515,0,0,1.1515,204.82,-142.58)" d="m-1246.8 941.88c0 2.3013-1.8655 4.1669-4.1668 4.1669s-4.1669-1.8656-4.1669-4.1669 1.8656-4.1669 4.1669-4.1669 4.1668 1.8656 4.1668 4.1669z" opacity=".8"/>
   </g>
   <g transform="matrix(-.70711 .70711 -.70711 -.70711 -402.42 2375.9)" filter="url(#a)">
    <path transform="matrix(1.1515,0,0,1.1515,190.17,-142.58)" d="m-1246.8 941.88c0 2.3013-1.8655 4.1669-4.1668 4.1669s-4.1669-1.8656-4.1669-4.1669 1.8656-4.1669 4.1669-4.1669 4.1668 1.8656 4.1668 4.1669z" opacity=".8"/>
    <path transform="matrix(1.1515,0,0,1.1515,204.82,-142.58)" d="m-1246.8 941.88c0 2.3013-1.8655 4.1669-4.1668 4.1669s-4.1669-1.8656-4.1669-4.1669 1.8656-4.1669 4.1669-4.1669 4.1668 1.8656 4.1668 4.1669z" opacity=".8"/>
   </g>
   <g transform="matrix(0 1 -1 0 768.16 2035.8)" filter="url(#a)">
    <path transform="matrix(1.1515,0,0,1.1515,190.17,-142.58)" d="m-1246.8 941.88c0 2.3013-1.8655 4.1669-4.1668 4.1669s-4.1669-1.8656-4.1669-4.1669 1.8656-4.1669 4.1669-4.1669 4.1668 1.8656 4.1668 4.1669z" opacity=".8"/>
    <path transform="matrix(1.1515,0,0,1.1515,204.82,-142.58)" d="m-1246.8 941.88c0 2.3013-1.8655 4.1669-4.1668 4.1669s-4.1669-1.8656-4.1669-4.1669 1.8656-4.1669 4.1669-4.1669 4.1668 1.8656 4.1668 4.1669z" opacity=".8"/>
   </g>
   <g transform="matrix(.70711 .70711 -.70711 .70711 1355.5 967.58)" filter="url(#a)">
    <path transform="matrix(1.1515,0,0,1.1515,190.17,-142.58)" d="m-1246.8 941.88c0 2.3013-1.8655 4.1669-4.1668 4.1669s-4.1669-1.8656-4.1669-4.1669 1.8656-4.1669 4.1669-4.1669 4.1668 1.8656 4.1668 4.1669z" opacity=".8"/>
    <path transform="matrix(1.1515,0,0,1.1515,204.82,-142.58)" d="m-1246.8 941.88c0 2.3013-1.8655 4.1669-4.1668 4.1669s-4.1669-1.8656-4.1669-4.1669 1.8656-4.1669 4.1669-4.1669 4.1668 1.8656 4.1668 4.1669z" opacity=".8"/>
   </g>
  </g>
  <g transform="matrix(.30227 0 0 .30227 937.47 610.23)">
   <path d="m-57.878 792.21c0 93.724-75.98 169.71-169.71 169.71s-169.71-75.98-169.71-169.71c0-93.727 75.98-169.71 169.71-169.71s169.71 75.98 169.71 169.71z" fill="url(#g)"/>
   <path d="m-106.31 792.2c0 66.945-54.271 121.22-121.22 121.22s-121.22-54.271-121.22-121.22 54.271-121.22 121.22-121.22 121.22 54.271 121.22 121.22z" fill="url(#h)"/>
   <path d="m-118.5 792.25c0 60.251-48.844 109.1-109.1 109.1s-109.1-48.844-109.1-109.1c0-60.254 48.844-109.1 109.1-109.1s109.1 48.844 109.1 109.1z" fill="url(#i)"/>
   <path d="m-227.54 683.18c-8.7295 0-17.207 1.032-25.344 2.9688 2.1449 9.2229 12.667 16.219 25.344 16.219 12.662 0 23.182-6.9808 25.344-16.188-8.1364-1.9365-16.615-3-25.344-3z" fill="#333" opacity=".8"/>
   <path d="m-306.76 717.28c-11.623 12.275-20.434 27.239-25.375 43.875 9.0597 2.7536 20.412-2.8653 26.75-13.844 6.3278-10.96 5.5075-23.552-1.375-30.031z" fill="#333" opacity=".8"/>
   <path d="m-327.69 822.68c-1.5211 0.028-3.0018 0.2506-4.4375 0.6874 4.9406 16.636 13.752 31.6 25.375 43.875 6.8825-6.4788 7.7028-19.071 1.375-30.031-5.3348-9.2402-14.235-14.68-22.312-14.531z" fill="#333" opacity=".8"/>
   <path d="m-227.54 882.18c-12.677 0-23.199 7.0271-25.344 16.25 8.1368 1.9367 16.614 2.9375 25.344 2.9375 8.7292 0 17.207-1.0322 25.344-2.9688-2.1623-9.2066-12.682-16.219-25.344-16.219z" fill="#333" opacity=".8"/>
   <path d="m-128.41 822.68c-7.7976 0.3016-16.137 5.676-21.25 14.531-6.3277 10.96-5.5387 23.552 1.3438 30.031 11.623-12.275 20.434-27.239 25.375-43.875-1.7534-0.5334-3.5976-0.7598-5.4688-0.6874z" fill="#333" opacity=".8"/>
   <path d="m-148.32 717.28c-6.8825 6.4789-7.6715 19.071-1.3438 30.031 6.3384 10.978 17.659 16.597 26.719 13.844-4.9406-16.636-13.752-31.6-25.375-43.875z" fill="#333" opacity=".8"/>
   <path d="m-146.72 792.26c0 44.63-36.181 80.813-80.813 80.813s-80.813-36.181-80.813-80.813 36.181-80.813 80.813-80.813 80.813 36.181 80.813 80.813z" fill="url(#j)"/>
   <path d="m-185.12 792.21c0 23.431-18.995 42.427-42.427 42.427s-42.427-18.995-42.427-42.427 18.995-42.427 42.427-42.427 42.427 18.995 42.427 42.427z" fill="url(#k)"/>
   <g transform="translate(1015.4 -203.02)" filter="url(#a)">
    <path transform="matrix(1.1515,0,0,1.1515,190.17,-142.58)" d="m-1246.8 941.88c0 2.3013-1.8655 4.1669-4.1668 4.1669s-4.1669-1.8656-4.1669-4.1669 1.8656-4.1669 4.1669-4.1669 4.1668 1.8656 4.1668 4.1669z" opacity=".8"/>
    <path transform="matrix(1.1515,0,0,1.1515,204.82,-142.58)" d="m-1246.8 941.88c0 2.3013-1.8655 4.1669-4.1668 4.1669s-4.1669-1.8656-4.1669-4.1669 1.8656-4.1669 4.1669-4.1669 4.1668 1.8656 4.1668 4.1669z" opacity=".8"/>
   </g>
   <g transform="matrix(.70711 -.70711 .70711 .70711 -52.828 -790.29)" filter="url(#a)">
    <path transform="matrix(1.1515,0,0,1.1515,190.17,-142.58)" d="m-1246.8 941.88c0 2.3013-1.8655 4.1669-4.1668 4.1669s-4.1669-1.8656-4.1669-4.1669 1.8656-4.1669 4.1669-4.1669 4.1668 1.8656 4.1668 4.1669z" opacity=".8"/>
    <path transform="matrix(1.1515,0,0,1.1515,204.82,-142.58)" d="m-1246.8 941.88c0 2.3013-1.8655 4.1669-4.1668 4.1669s-4.1669-1.8656-4.1669-4.1669 1.8656-4.1669 4.1669-4.1669 4.1668 1.8656 4.1668 4.1669z" opacity=".8"/>
   </g>
   <g transform="matrix(0 -1 1 0 -1223.4 -450.22)" filter="url(#a)">
    <path transform="matrix(1.1515,0,0,1.1515,190.17,-142.58)" d="m-1246.8 941.88c0 2.3013-1.8655 4.1669-4.1668 4.1669s-4.1669-1.8656-4.1669-4.1669 1.8656-4.1669 4.1669-4.1669 4.1668 1.8656 4.1668 4.1669z" opacity=".8"/>
    <path transform="matrix(1.1515,0,0,1.1515,204.82,-142.58)" d="m-1246.8 941.88c0 2.3013-1.8655 4.1669-4.1668 4.1669s-4.1669-1.8656-4.1669-4.1669 1.8656-4.1669 4.1669-4.1669 4.1668 1.8656 4.1668 4.1669z" opacity=".8"/>
   </g>
   <g transform="matrix(-.70711 -.70711 .70711 -.70711 -1810.7 617.98)" filter="url(#a)">
    <path transform="matrix(1.1515,0,0,1.1515,190.17,-142.58)" d="m-1246.8 941.88c0 2.3013-1.8655 4.1669-4.1668 4.1669s-4.1669-1.8656-4.1669-4.1669 1.8656-4.1669 4.1669-4.1669 4.1668 1.8656 4.1668 4.1669z" opacity=".8"/>
    <path transform="matrix(1.1515,0,0,1.1515,204.82,-142.58)" d="m-1246.8 941.88c0 2.3013-1.8655 4.1669-4.1668 4.1669s-4.1669-1.8656-4.1669-4.1669 1.8656-4.1669 4.1669-4.1669 4.1668 1.8656 4.1668 4.1669z" opacity=".8"/>
   </g>
   <g transform="matrix(-1 0 0 -1 -1470.6 1788.6)" filter="url(#a)">
    <path transform="matrix(1.1515,0,0,1.1515,190.17,-142.58)" d="m-1246.8 941.88c0 2.3013-1.8655 4.1669-4.1668 4.1669s-4.1669-1.8656-4.1669-4.1669 1.8656-4.1669 4.1669-4.1669 4.1668 1.8656 4.1668 4.1669z" opacity=".8"/>
    <path transform="matrix(1.1515,0,0,1.1515,204.82,-142.58)" d="m-1246.8 941.88c0 2.3013-1.8655 4.1669-4.1668 4.1669s-4.1669-1.8656-4.1669-4.1669 1.8656-4.1669 4.1669-4.1669 4.1668 1.8656 4.1668 4.1669z" opacity=".8"/>
   </g>
   <g transform="matrix(-.70711 .70711 -.70711 -.70711 -402.42 2375.9)" filter="url(#a)">
    <path transform="matrix(1.1515,0,0,1.1515,190.17,-142.58)" d="m-1246.8 941.88c0 2.3013-1.8655 4.1669-4.1668 4.1669s-4.1669-1.8656-4.1669-4.1669 1.8656-4.1669 4.1669-4.1669 4.1668 1.8656 4.1668 4.1669z" opacity=".8"/>
    <path transform="matrix(1.1515,0,0,1.1515,204.82,-142.58)" d="m-1246.8 941.88c0 2.3013-1.8655 4.1669-4.1668 4.1669s-4.1669-1.8656-4.1669-4.1669 1.8656-4.1669 4.1669-4.1669 4.1668 1.8656 4.1668 4.1669z" opacity=".8"/>
   </g>
   <g transform="matrix(0 1 -1 0 768.16 2035.8)" filter="url(#a)">
    <path transform="matrix(1.1515,0,0,1.1515,190.17,-142.58)" d="m-1246.8 941.88c0 2.3013-1.8655 4.1669-4.1668 4.1669s-4.1669-1.8656-4.1669-4.1669 1.8656-4.1669 4.1669-4.1669 4.1668 1.8656 4.1668 4.1669z" opacity=".8"/>
    <path transform="matrix(1.1515,0,0,1.1515,204.82,-142.58)" d="m-1246.8 941.88c0 2.3013-1.8655 4.1669-4.1668 4.1669s-4.1669-1.8656-4.1669-4.1669 1.8656-4.1669 4.1669-4.1669 4.1668 1.8656 4.1668 4.1669z" opacity=".8"/>
   </g>
   <g transform="matrix(.70711 .70711 -.70711 .70711 1355.5 967.58)" filter="url(#a)">
    <path transform="matrix(1.1515,0,0,1.1515,190.17,-142.58)" d="m-1246.8 941.88c0 2.3013-1.8655 4.1669-4.1668 4.1669s-4.1669-1.8656-4.1669-4.1669 1.8656-4.1669 4.1669-4.1669 4.1668 1.8656 4.1668 4.1669z" opacity=".8"/>
    <path transform="matrix(1.1515,0,0,1.1515,204.82,-142.58)" d="m-1246.8 941.88c0 2.3013-1.8655 4.1669-4.1668 4.1669s-4.1669-1.8656-4.1669-4.1669 1.8656-4.1669 4.1669-4.1669 4.1668 1.8656 4.1668 4.1669z" opacity=".8"/>
   </g>
  </g>
  <g transform="matrix(.30227 0 0 .30227 825.97 610.23)">
   <path d="m-57.878 792.21c0 93.724-75.98 169.71-169.71 169.71s-169.71-75.98-169.71-169.71c0-93.727 75.98-169.71 169.71-169.71s169.71 75.98 169.71 169.71z" fill="url(#g)"/>
   <path d="m-106.31 792.2c0 66.945-54.271 121.22-121.22 121.22s-121.22-54.271-121.22-121.22 54.271-121.22 121.22-121.22 121.22 54.271 121.22 121.22z" fill="url(#h)"/>
   <path d="m-118.5 792.25c0 60.251-48.844 109.1-109.1 109.1s-109.1-48.844-109.1-109.1c0-60.254 48.844-109.1 109.1-109.1s109.1 48.844 109.1 109.1z" fill="url(#i)"/>
   <path d="m-227.54 683.18c-8.7295 0-17.207 1.032-25.344 2.9688 2.1449 9.2229 12.667 16.219 25.344 16.219 12.662 0 23.182-6.9808 25.344-16.188-8.1364-1.9365-16.615-3-25.344-3z" fill="#333" opacity=".8"/>
   <path d="m-306.76 717.28c-11.623 12.275-20.434 27.239-25.375 43.875 9.0597 2.7536 20.412-2.8653 26.75-13.844 6.3278-10.96 5.5075-23.552-1.375-30.031z" fill="#333" opacity=".8"/>
   <path d="m-327.69 822.68c-1.5211 0.028-3.0018 0.2506-4.4375 0.6874 4.9406 16.636 13.752 31.6 25.375 43.875 6.8825-6.4788 7.7028-19.071 1.375-30.031-5.3348-9.2402-14.235-14.68-22.312-14.531z" fill="#333" opacity=".8"/>
   <path d="m-227.54 882.18c-12.677 0-23.199 7.0271-25.344 16.25 8.1368 1.9367 16.614 2.9375 25.344 2.9375 8.7292 0 17.207-1.0322 25.344-2.9688-2.1623-9.2066-12.682-16.219-25.344-16.219z" fill="#333" opacity=".8"/>
   <path d="m-128.41 822.68c-7.7976 0.3016-16.137 5.676-21.25 14.531-6.3277 10.96-5.5387 23.552 1.3438 30.031 11.623-12.275 20.434-27.239 25.375-43.875-1.7534-0.5334-3.5976-0.7598-5.4688-0.6874z" fill="#333" opacity=".8"/>
   <path d="m-148.32 717.28c-6.8825 6.4789-7.6715 19.071-1.3438 30.031 6.3384 10.978 17.659 16.597 26.719 13.844-4.9406-16.636-13.752-31.6-25.375-43.875z" fill="#333" opacity=".8"/>
   <path d="m-146.72 792.26c0 44.63-36.181 80.813-80.813 80.813s-80.813-36.181-80.813-80.813 36.181-80.813 80.813-80.813 80.813 36.181 80.813 80.813z" fill="url(#j)"/>
   <path d="m-185.12 792.21c0 23.431-18.995 42.427-42.427 42.427s-42.427-18.995-42.427-42.427 18.995-42.427 42.427-42.427 42.427 18.995 42.427 42.427z" fill="url(#k)"/>
   <g transform="translate(1015.4 -203.02)" filter="url(#a)">
    <path transform="matrix(1.1515,0,0,1.1515,190.17,-142.58)" d="m-1246.8 941.88c0 2.3013-1.8655 4.1669-4.1668 4.1669s-4.1669-1.8656-4.1669-4.1669 1.8656-4.1669 4.1669-4.1669 4.1668 1.8656 4.1668 4.1669z" opacity=".8"/>
    <path transform="matrix(1.1515,0,0,1.1515,204.82,-142.58)" d="m-1246.8 941.88c0 2.3013-1.8655 4.1669-4.1668 4.1669s-4.1669-1.8656-4.1669-4.1669 1.8656-4.1669 4.1669-4.1669 4.1668 1.8656 4.1668 4.1669z" opacity=".8"/>
   </g>
   <g transform="matrix(.70711 -.70711 .70711 .70711 -52.828 -790.29)" filter="url(#a)">
    <path transform="matrix(1.1515,0,0,1.1515,190.17,-142.58)" d="m-1246.8 941.88c0 2.3013-1.8655 4.1669-4.1668 4.1669s-4.1669-1.8656-4.1669-4.1669 1.8656-4.1669 4.1669-4.1669 4.1668 1.8656 4.1668 4.1669z" opacity=".8"/>
    <path transform="matrix(1.1515,0,0,1.1515,204.82,-142.58)" d="m-1246.8 941.88c0 2.3013-1.8655 4.1669-4.1668 4.1669s-4.1669-1.8656-4.1669-4.1669 1.8656-4.1669 4.1669-4.1669 4.1668 1.8656 4.1668 4.1669z" opacity=".8"/>
   </g>
   <g transform="matrix(0 -1 1 0 -1223.4 -450.22)" filter="url(#a)">
    <path transform="matrix(1.1515,0,0,1.1515,190.17,-142.58)" d="m-1246.8 941.88c0 2.3013-1.8655 4.1669-4.1668 4.1669s-4.1669-1.8656-4.1669-4.1669 1.8656-4.1669 4.1669-4.1669 4.1668 1.8656 4.1668 4.1669z" opacity=".8"/>
    <path transform="matrix(1.1515,0,0,1.1515,204.82,-142.58)" d="m-1246.8 941.88c0 2.3013-1.8655 4.1669-4.1668 4.1669s-4.1669-1.8656-4.1669-4.1669 1.8656-4.1669 4.1669-4.1669 4.1668 1.8656 4.1668 4.1669z" opacity=".8"/>
   </g>
   <g transform="matrix(-.70711 -.70711 .70711 -.70711 -1810.7 617.98)" filter="url(#a)">
    <path transform="matrix(1.1515,0,0,1.1515,190.17,-142.58)" d="m-1246.8 941.88c0 2.3013-1.8655 4.1669-4.1668 4.1669s-4.1669-1.8656-4.1669-4.1669 1.8656-4.1669 4.1669-4.1669 4.1668 1.8656 4.1668 4.1669z" opacity=".8"/>
    <path transform="matrix(1.1515,0,0,1.1515,204.82,-142.58)" d="m-1246.8 941.88c0 2.3013-1.8655 4.1669-4.1668 4.1669s-4.1669-1.8656-4.1669-4.1669 1.8656-4.1669 4.1669-4.1669 4.1668 1.8656 4.1668 4.1669z" opacity=".8"/>
   </g>
   <g transform="matrix(-1 0 0 -1 -1470.6 1788.6)" filter="url(#a)">
    <path transform="matrix(1.1515,0,0,1.1515,190.17,-142.58)" d="m-1246.8 941.88c0 2.3013-1.8655 4.1669-4.1668 4.1669s-4.1669-1.8656-4.1669-4.1669 1.8656-4.1669 4.1669-4.1669 4.1668 1.8656 4.1668 4.1669z" opacity=".8"/>
    <path transform="matrix(1.1515,0,0,1.1515,204.82,-142.58)" d="m-1246.8 941.88c0 2.3013-1.8655 4.1669-4.1668 4.1669s-4.1669-1.8656-4.1669-4.1669 1.8656-4.1669 4.1669-4.1669 4.1668 1.8656 4.1668 4.1669z" opacity=".8"/>
   </g>
   <g transform="matrix(-.70711 .70711 -.70711 -.70711 -402.42 2375.9)" filter="url(#a)">
    <path transform="matrix(1.1515,0,0,1.1515,190.17,-142.58)" d="m-1246.8 941.88c0 2.3013-1.8655 4.1669-4.1668 4.1669s-4.1669-1.8656-4.1669-4.1669 1.8656-4.1669 4.1669-4.1669 4.1668 1.8656 4.1668 4.1669z" opacity=".8"/>
    <path transform="matrix(1.1515,0,0,1.1515,204.82,-142.58)" d="m-1246.8 941.88c0 2.3013-1.8655 4.1669-4.1668 4.1669s-4.1669-1.8656-4.1669-4.1669 1.8656-4.1669 4.1669-4.1669 4.1668 1.8656 4.1668 4.1669z" opacity=".8"/>
   </g>
   <g transform="matrix(0 1 -1 0 768.16 2035.8)" filter="url(#a)">
    <path transform="matrix(1.1515,0,0,1.1515,190.17,-142.58)" d="m-1246.8 941.88c0 2.3013-1.8655 4.1669-4.1668 4.1669s-4.1669-1.8656-4.1669-4.1669 1.8656-4.1669 4.1669-4.1669 4.1668 1.8656 4.1668 4.1669z" opacity=".8"/>
    <path transform="matrix(1.1515,0,0,1.1515,204.82,-142.58)" d="m-1246.8 941.88c0 2.3013-1.8655 4.1669-4.1668 4.1669s-4.1669-1.8656-4.1669-4.1669 1.8656-4.1669 4.1669-4.1669 4.1668 1.8656 4.1668 4.1669z" opacity=".8"/>
   </g>
   <g transform="matrix(.70711 .70711 -.70711 .70711 1355.5 967.58)" filter="url(#a)">
    <path transform="matrix(1.1515,0,0,1.1515,190.17,-142.58)" d="m-1246.8 941.88c0 2.3013-1.8655 4.1669-4.1668 4.1669s-4.1669-1.8656-4.1669-4.1669 1.8656-4.1669 4.1669-4.1669 4.1668 1.8656 4.1668 4.1669z" opacity=".8"/>
    <path transform="matrix(1.1515,0,0,1.1515,204.82,-142.58)" d="m-1246.8 941.88c0 2.3013-1.8655 4.1669-4.1668 4.1669s-4.1669-1.8656-4.1669-4.1669 1.8656-4.1669 4.1669-4.1669 4.1668 1.8656 4.1668 4.1669z" opacity=".8"/>
   </g>
  </g>
  <g transform="matrix(.30227 0 0 .30227 713.37 610.23)">
   <path d="m-57.878 792.21c0 93.724-75.98 169.71-169.71 169.71s-169.71-75.98-169.71-169.71c0-93.727 75.98-169.71 169.71-169.71s169.71 75.98 169.71 169.71z" fill="url(#g)"/>
   <path d="m-106.31 792.2c0 66.945-54.271 121.22-121.22 121.22s-121.22-54.271-121.22-121.22 54.271-121.22 121.22-121.22 121.22 54.271 121.22 121.22z" fill="url(#h)"/>
   <path d="m-118.5 792.25c0 60.251-48.844 109.1-109.1 109.1s-109.1-48.844-109.1-109.1c0-60.254 48.844-109.1 109.1-109.1s109.1 48.844 109.1 109.1z" fill="url(#i)"/>
   <path d="m-227.54 683.18c-8.7295 0-17.207 1.032-25.344 2.9688 2.1449 9.2229 12.667 16.219 25.344 16.219 12.662 0 23.182-6.9808 25.344-16.188-8.1364-1.9365-16.615-3-25.344-3z" fill="#333" opacity=".8"/>
   <path d="m-306.76 717.28c-11.623 12.275-20.434 27.239-25.375 43.875 9.0597 2.7536 20.412-2.8653 26.75-13.844 6.3278-10.96 5.5075-23.552-1.375-30.031z" fill="#333" opacity=".8"/>
   <path d="m-327.69 822.68c-1.5211 0.028-3.0018 0.2506-4.4375 0.6874 4.9406 16.636 13.752 31.6 25.375 43.875 6.8825-6.4788 7.7028-19.071 1.375-30.031-5.3348-9.2402-14.235-14.68-22.312-14.531z" fill="#333" opacity=".8"/>
   <path d="m-227.54 882.18c-12.677 0-23.199 7.0271-25.344 16.25 8.1368 1.9367 16.614 2.9375 25.344 2.9375 8.7292 0 17.207-1.0322 25.344-2.9688-2.1623-9.2066-12.682-16.219-25.344-16.219z" fill="#333" opacity=".8"/>
   <path d="m-128.41 822.68c-7.7976 0.3016-16.137 5.676-21.25 14.531-6.3277 10.96-5.5387 23.552 1.3438 30.031 11.623-12.275 20.434-27.239 25.375-43.875-1.7534-0.5334-3.5976-0.7598-5.4688-0.6874z" fill="#333" opacity=".8"/>
   <path d="m-148.32 717.28c-6.8825 6.4789-7.6715 19.071-1.3438 30.031 6.3384 10.978 17.659 16.597 26.719 13.844-4.9406-16.636-13.752-31.6-25.375-43.875z" fill="#333" opacity=".8"/>
   <path d="m-146.72 792.26c0 44.63-36.181 80.813-80.813 80.813s-80.813-36.181-80.813-80.813 36.181-80.813 80.813-80.813 80.813 36.181 80.813 80.813z" fill="url(#j)"/>
   <path d="m-185.12 792.21c0 23.431-18.995 42.427-42.427 42.427s-42.427-18.995-42.427-42.427 18.995-42.427 42.427-42.427 42.427 18.995 42.427 42.427z" fill="url(#k)"/>
   <g transform="translate(1015.4 -203.02)" filter="url(#a)">
    <path transform="matrix(1.1515,0,0,1.1515,190.17,-142.58)" d="m-1246.8 941.88c0 2.3013-1.8655 4.1669-4.1668 4.1669s-4.1669-1.8656-4.1669-4.1669 1.8656-4.1669 4.1669-4.1669 4.1668 1.8656 4.1668 4.1669z" opacity=".8"/>
    <path transform="matrix(1.1515,0,0,1.1515,204.82,-142.58)" d="m-1246.8 941.88c0 2.3013-1.8655 4.1669-4.1668 4.1669s-4.1669-1.8656-4.1669-4.1669 1.8656-4.1669 4.1669-4.1669 4.1668 1.8656 4.1668 4.1669z" opacity=".8"/>
   </g>
   <g transform="matrix(.70711 -.70711 .70711 .70711 -52.828 -790.29)" filter="url(#a)">
    <path transform="matrix(1.1515,0,0,1.1515,190.17,-142.58)" d="m-1246.8 941.88c0 2.3013-1.8655 4.1669-4.1668 4.1669s-4.1669-1.8656-4.1669-4.1669 1.8656-4.1669 4.1669-4.1669 4.1668 1.8656 4.1668 4.1669z" opacity=".8"/>
    <path transform="matrix(1.1515,0,0,1.1515,204.82,-142.58)" d="m-1246.8 941.88c0 2.3013-1.8655 4.1669-4.1668 4.1669s-4.1669-1.8656-4.1669-4.1669 1.8656-4.1669 4.1669-4.1669 4.1668 1.8656 4.1668 4.1669z" opacity=".8"/>
   </g>
   <g transform="matrix(0 -1 1 0 -1223.4 -450.22)" filter="url(#a)">
    <path transform="matrix(1.1515,0,0,1.1515,190.17,-142.58)" d="m-1246.8 941.88c0 2.3013-1.8655 4.1669-4.1668 4.1669s-4.1669-1.8656-4.1669-4.1669 1.8656-4.1669 4.1669-4.1669 4.1668 1.8656 4.1668 4.1669z" opacity=".8"/>
    <path transform="matrix(1.1515,0,0,1.1515,204.82,-142.58)" d="m-1246.8 941.88c0 2.3013-1.8655 4.1669-4.1668 4.1669s-4.1669-1.8656-4.1669-4.1669 1.8656-4.1669 4.1669-4.1669 4.1668 1.8656 4.1668 4.1669z" opacity=".8"/>
   </g>
   <g transform="matrix(-.70711 -.70711 .70711 -.70711 -1810.7 617.98)" filter="url(#a)">
    <path transform="matrix(1.1515,0,0,1.1515,190.17,-142.58)" d="m-1246.8 941.88c0 2.3013-1.8655 4.1669-4.1668 4.1669s-4.1669-1.8656-4.1669-4.1669 1.8656-4.1669 4.1669-4.1669 4.1668 1.8656 4.1668 4.1669z" opacity=".8"/>
    <path transform="matrix(1.1515,0,0,1.1515,204.82,-142.58)" d="m-1246.8 941.88c0 2.3013-1.8655 4.1669-4.1668 4.1669s-4.1669-1.8656-4.1669-4.1669 1.8656-4.1669 4.1669-4.1669 4.1668 1.8656 4.1668 4.1669z" opacity=".8"/>
   </g>
   <g transform="matrix(-1 0 0 -1 -1470.6 1788.6)" filter="url(#a)">
    <path transform="matrix(1.1515,0,0,1.1515,190.17,-142.58)" d="m-1246.8 941.88c0 2.3013-1.8655 4.1669-4.1668 4.1669s-4.1669-1.8656-4.1669-4.1669 1.8656-4.1669 4.1669-4.1669 4.1668 1.8656 4.1668 4.1669z" opacity=".8"/>
    <path transform="matrix(1.1515,0,0,1.1515,204.82,-142.58)" d="m-1246.8 941.88c0 2.3013-1.8655 4.1669-4.1668 4.1669s-4.1669-1.8656-4.1669-4.1669 1.8656-4.1669 4.1669-4.1669 4.1668 1.8656 4.1668 4.1669z" opacity=".8"/>
   </g>
   <g transform="matrix(-.70711 .70711 -.70711 -.70711 -402.42 2375.9)" filter="url(#a)">
    <path transform="matrix(1.1515,0,0,1.1515,190.17,-142.58)" d="m-1246.8 941.88c0 2.3013-1.8655 4.1669-4.1668 4.1669s-4.1669-1.8656-4.1669-4.1669 1.8656-4.1669 4.1669-4.1669 4.1668 1.8656 4.1668 4.1669z" opacity=".8"/>
    <path transform="matrix(1.1515,0,0,1.1515,204.82,-142.58)" d="m-1246.8 941.88c0 2.3013-1.8655 4.1669-4.1668 4.1669s-4.1669-1.8656-4.1669-4.1669 1.8656-4.1669 4.1669-4.1669 4.1668 1.8656 4.1668 4.1669z" opacity=".8"/>
   </g>
   <g transform="matrix(0 1 -1 0 768.16 2035.8)" filter="url(#a)">
    <path transform="matrix(1.1515,0,0,1.1515,190.17,-142.58)" d="m-1246.8 941.88c0 2.3013-1.8655 4.1669-4.1668 4.1669s-4.1669-1.8656-4.1669-4.1669 1.8656-4.1669 4.1669-4.1669 4.1668 1.8656 4.1668 4.1669z" opacity=".8"/>
    <path transform="matrix(1.1515,0,0,1.1515,204.82,-142.58)" d="m-1246.8 941.88c0 2.3013-1.8655 4.1669-4.1668 4.1669s-4.1669-1.8656-4.1669-4.1669 1.8656-4.1669 4.1669-4.1669 4.1668 1.8656 4.1668 4.1669z" opacity=".8"/>
   </g>
   <g transform="matrix(.70711 .70711 -.70711 .70711 1355.5 967.58)" filter="url(#a)">
    <path transform="matrix(1.1515,0,0,1.1515,190.17,-142.58)" d="m-1246.8 941.88c0 2.3013-1.8655 4.1669-4.1668 4.1669s-4.1669-1.8656-4.1669-4.1669 1.8656-4.1669 4.1669-4.1669 4.1668 1.8656 4.1668 4.1669z" opacity=".8"/>
    <path transform="matrix(1.1515,0,0,1.1515,204.82,-142.58)" d="m-1246.8 941.88c0 2.3013-1.8655 4.1669-4.1668 4.1669s-4.1669-1.8656-4.1669-4.1669 1.8656-4.1669 4.1669-4.1669 4.1668 1.8656 4.1668 4.1669z" opacity=".8"/>
   </g>
  </g>
  <g transform="matrix(.30227 0 0 .30227 603.37 610.23)">
   <path d="m-57.878 792.21c0 93.724-75.98 169.71-169.71 169.71s-169.71-75.98-169.71-169.71c0-93.727 75.98-169.71 169.71-169.71s169.71 75.98 169.71 169.71z" fill="url(#g)"/>
   <path d="m-106.31 792.2c0 66.945-54.271 121.22-121.22 121.22s-121.22-54.271-121.22-121.22 54.271-121.22 121.22-121.22 121.22 54.271 121.22 121.22z" fill="url(#h)"/>
   <path d="m-118.5 792.25c0 60.251-48.844 109.1-109.1 109.1s-109.1-48.844-109.1-109.1c0-60.254 48.844-109.1 109.1-109.1s109.1 48.844 109.1 109.1z" fill="url(#i)"/>
   <path d="m-227.54 683.18c-8.7295 0-17.207 1.032-25.344 2.9688 2.1449 9.2229 12.667 16.219 25.344 16.219 12.662 0 23.182-6.9808 25.344-16.188-8.1364-1.9365-16.615-3-25.344-3z" fill="#333" opacity=".8"/>
   <path d="m-306.76 717.28c-11.623 12.275-20.434 27.239-25.375 43.875 9.0597 2.7536 20.412-2.8653 26.75-13.844 6.3278-10.96 5.5075-23.552-1.375-30.031z" fill="#333" opacity=".8"/>
   <path d="m-327.69 822.68c-1.5211 0.028-3.0018 0.2506-4.4375 0.6874 4.9406 16.636 13.752 31.6 25.375 43.875 6.8825-6.4788 7.7028-19.071 1.375-30.031-5.3348-9.2402-14.235-14.68-22.312-14.531z" fill="#333" opacity=".8"/>
   <path d="m-227.54 882.18c-12.677 0-23.199 7.0271-25.344 16.25 8.1368 1.9367 16.614 2.9375 25.344 2.9375 8.7292 0 17.207-1.0322 25.344-2.9688-2.1623-9.2066-12.682-16.219-25.344-16.219z" fill="#333" opacity=".8"/>
   <path d="m-128.41 822.68c-7.7976 0.3016-16.137 5.676-21.25 14.531-6.3277 10.96-5.5387 23.552 1.3438 30.031 11.623-12.275 20.434-27.239 25.375-43.875-1.7534-0.5334-3.5976-0.7598-5.4688-0.6874z" fill="#333" opacity=".8"/>
   <path d="m-148.32 717.28c-6.8825 6.4789-7.6715 19.071-1.3438 30.031 6.3384 10.978 17.659 16.597 26.719 13.844-4.9406-16.636-13.752-31.6-25.375-43.875z" fill="#333" opacity=".8"/>
   <path d="m-146.72 792.26c0 44.63-36.181 80.813-80.813 80.813s-80.813-36.181-80.813-80.813 36.181-80.813 80.813-80.813 80.813 36.181 80.813 80.813z" fill="url(#j)"/>
   <path d="m-185.12 792.21c0 23.431-18.995 42.427-42.427 42.427s-42.427-18.995-42.427-42.427 18.995-42.427 42.427-42.427 42.427 18.995 42.427 42.427z" fill="url(#k)"/>
   <g transform="translate(1015.4 -203.02)" filter="url(#a)">
    <path transform="matrix(1.1515,0,0,1.1515,190.17,-142.58)" d="m-1246.8 941.88c0 2.3013-1.8655 4.1669-4.1668 4.1669s-4.1669-1.8656-4.1669-4.1669 1.8656-4.1669 4.1669-4.1669 4.1668 1.8656 4.1668 4.1669z" opacity=".8"/>
    <path transform="matrix(1.1515,0,0,1.1515,204.82,-142.58)" d="m-1246.8 941.88c0 2.3013-1.8655 4.1669-4.1668 4.1669s-4.1669-1.8656-4.1669-4.1669 1.8656-4.1669 4.1669-4.1669 4.1668 1.8656 4.1668 4.1669z" opacity=".8"/>
   </g>
   <g transform="matrix(.70711 -.70711 .70711 .70711 -52.828 -790.29)" filter="url(#a)">
    <path transform="matrix(1.1515,0,0,1.1515,190.17,-142.58)" d="m-1246.8 941.88c0 2.3013-1.8655 4.1669-4.1668 4.1669s-4.1669-1.8656-4.1669-4.1669 1.8656-4.1669 4.1669-4.1669 4.1668 1.8656 4.1668 4.1669z" opacity=".8"/>
    <path transform="matrix(1.1515,0,0,1.1515,204.82,-142.58)" d="m-1246.8 941.88c0 2.3013-1.8655 4.1669-4.1668 4.1669s-4.1669-1.8656-4.1669-4.1669 1.8656-4.1669 4.1669-4.1669 4.1668 1.8656 4.1668 4.1669z" opacity=".8"/>
   </g>
   <g transform="matrix(0 -1 1 0 -1223.4 -450.22)" filter="url(#a)">
    <path transform="matrix(1.1515,0,0,1.1515,190.17,-142.58)" d="m-1246.8 941.88c0 2.3013-1.8655 4.1669-4.1668 4.1669s-4.1669-1.8656-4.1669-4.1669 1.8656-4.1669 4.1669-4.1669 4.1668 1.8656 4.1668 4.1669z" opacity=".8"/>
    <path transform="matrix(1.1515,0,0,1.1515,204.82,-142.58)" d="m-1246.8 941.88c0 2.3013-1.8655 4.1669-4.1668 4.1669s-4.1669-1.8656-4.1669-4.1669 1.8656-4.1669 4.1669-4.1669 4.1668 1.8656 4.1668 4.1669z" opacity=".8"/>
   </g>
   <g transform="matrix(-.70711 -.70711 .70711 -.70711 -1810.7 617.98)" filter="url(#a)">
    <path transform="matrix(1.1515,0,0,1.1515,190.17,-142.58)" d="m-1246.8 941.88c0 2.3013-1.8655 4.1669-4.1668 4.1669s-4.1669-1.8656-4.1669-4.1669 1.8656-4.1669 4.1669-4.1669 4.1668 1.8656 4.1668 4.1669z" opacity=".8"/>
    <path transform="matrix(1.1515,0,0,1.1515,204.82,-142.58)" d="m-1246.8 941.88c0 2.3013-1.8655 4.1669-4.1668 4.1669s-4.1669-1.8656-4.1669-4.1669 1.8656-4.1669 4.1669-4.1669 4.1668 1.8656 4.1668 4.1669z" opacity=".8"/>
   </g>
   <g transform="matrix(-1 0 0 -1 -1470.6 1788.6)" filter="url(#a)">
    <path transform="matrix(1.1515,0,0,1.1515,190.17,-142.58)" d="m-1246.8 941.88c0 2.3013-1.8655 4.1669-4.1668 4.1669s-4.1669-1.8656-4.1669-4.1669 1.8656-4.1669 4.1669-4.1669 4.1668 1.8656 4.1668 4.1669z" opacity=".8"/>
    <path transform="matrix(1.1515,0,0,1.1515,204.82,-142.58)" d="m-1246.8 941.88c0 2.3013-1.8655 4.1669-4.1668 4.1669s-4.1669-1.8656-4.1669-4.1669 1.8656-4.1669 4.1669-4.1669 4.1668 1.8656 4.1668 4.1669z" opacity=".8"/>
   </g>
   <g transform="matrix(-.70711 .70711 -.70711 -.70711 -402.42 2375.9)" filter="url(#a)">
    <path transform="matrix(1.1515,0,0,1.1515,190.17,-142.58)" d="m-1246.8 941.88c0 2.3013-1.8655 4.1669-4.1668 4.1669s-4.1669-1.8656-4.1669-4.1669 1.8656-4.1669 4.1669-4.1669 4.1668 1.8656 4.1668 4.1669z" opacity=".8"/>
    <path transform="matrix(1.1515,0,0,1.1515,204.82,-142.58)" d="m-1246.8 941.88c0 2.3013-1.8655 4.1669-4.1668 4.1669s-4.1669-1.8656-4.1669-4.1669 1.8656-4.1669 4.1669-4.1669 4.1668 1.8656 4.1668 4.1669z" opacity=".8"/>
   </g>
   <g transform="matrix(0 1 -1 0 768.16 2035.8)" filter="url(#a)">
    <path transform="matrix(1.1515,0,0,1.1515,190.17,-142.58)" d="m-1246.8 941.88c0 2.3013-1.8655 4.1669-4.1668 4.1669s-4.1669-1.8656-4.1669-4.1669 1.8656-4.1669 4.1669-4.1669 4.1668 1.8656 4.1668 4.1669z" opacity=".8"/>
    <path transform="matrix(1.1515,0,0,1.1515,204.82,-142.58)" d="m-1246.8 941.88c0 2.3013-1.8655 4.1669-4.1668 4.1669s-4.1669-1.8656-4.1669-4.1669 1.8656-4.1669 4.1669-4.1669 4.1668 1.8656 4.1668 4.1669z" opacity=".8"/>
   </g>
   <g transform="matrix(.70711 .70711 -.70711 .70711 1355.5 967.58)" filter="url(#a)">
    <path transform="matrix(1.1515,0,0,1.1515,190.17,-142.58)" d="m-1246.8 941.88c0 2.3013-1.8655 4.1669-4.1668 4.1669s-4.1669-1.8656-4.1669-4.1669 1.8656-4.1669 4.1669-4.1669 4.1668 1.8656 4.1668 4.1669z" opacity=".8"/>
    <path transform="matrix(1.1515,0,0,1.1515,204.82,-142.58)" d="m-1246.8 941.88c0 2.3013-1.8655 4.1669-4.1668 4.1669s-4.1669-1.8656-4.1669-4.1669 1.8656-4.1669 4.1669-4.1669 4.1668 1.8656 4.1668 4.1669z" opacity=".8"/>
   </g>
  </g>
  <path d="m1229.4 794.39 10.715-0.0102-1.7859 22.184-4.7322 0.17858-1.25 2.1428 3.0357 3.9286-14.732 14.286-3.1252-2.9882-1.5152 1.0102 1.9572 3.5355-16.604 10.922-2.1466-3.283-1.1995 0.82075 1.894 3.2199-16.668 10.985-2.0203-3.283-1.4521 1.0733 2.0203 3.283-16.099 10.922-2.5254-3.2199-1.0428 0.93011 1.7411 2.9911-16.072 11.562-2.4107-3.1696-1.3393 1.0268 1.875 3.3482-16.339 11.406-2.5253-3.4093-1.2627 0.69448 2.0203 3.9143-17.488 9.2808-2.5885-3.9144c-0.2525 0.0631-1.9572 0.44195-1.9572 0.44195v4.672l-20.203 0.12627-0.063-3.7249-1.066-0.0228-0.3571 3.7946h-20.179l-0.089-3.7946h-1.5625v3.7946l-19.866-0.13389v-3.6161l-1.7858-0.0447-0.046 3.7054-19.868-0.0446v-3.6161l-1.7857-0.0447-0.1964 3.7054-20.018-0.0446v-3.6161l-1.7857-0.0447-0.046 3.7054-19.868-0.0446v-3.6161l-1.7857-0.0447-0.0464 3.7054-19.868-0.0446v-3.6161l-1.7857-0.0447-0.0465 3.7054-19.207-0.0669-0.18377-3.6384-1.7857 0.0447v3.6161l-19.868 0.0446-0.0464-3.7054-1.7857 0.0447v3.6161l-19.818 0.0446 3e-3 -3.7054-1.7857 0.0447v3.6161l-19.868 0.0446-0.0464-3.7054-1.7857 0.0447v3.6161l-19.868 0.0446-0.0464-3.7054-1.7857 0.0447v3.6161l-19.968 0.0446-0.14641-3.7054-1.7857 0.0447v3.6161l-19.818 0.0446 4e-3 -3.7054-1.7857 0.0447v3.6161l-19.868 0.0446-0.0464-3.7054-1.7857 0.0447v3.6161l-19.968 0.0446-0.14641-3.7054-1.7857 0.0447v3.6161l-19.868 0.0446-0.0464-3.7054-1.7857 0.0447v3.6161l-19.868 0.0446-0.0464-3.7054-1.7857 0.0447v3.6161l-19.818 0.0446 4e-3 -3.7054-1.7857 0.0447v3.6161l-19.868 0.0446-0.0465-3.7054-1.7857 0.0447v3.6161l-19.868 0.0446-0.0464-3.7054-1.7857 0.0447v3.6161l-19.868 0.0446-0.0464-3.7054-1.7857 0.0447v3.6161l-20.018 0.0446-0.19641-3.7054-1.7857 0.0447v3.6161l-19.868 0.0446-0.0462-3.7054-1.7857 0.0447v3.6161l-19.866 0.13389v-3.7946h-1.5625l-0.0893 3.7946h-20.179l-0.35714-3.7946-1.0659 0.0228-0.0631 3.7249-20.203-0.12627v-4.672s-1.7046-0.37885-1.9572-0.44195l-2.5885 3.9144-17.488-9.2808 2.0203-3.9143-1.2627-0.69448-2.5254 3.4093-16.339-11.406 1.875-3.3482-1.3393-1.0268-2.4107 3.1696-16.071-11.562 1.7411-2.9911-1.0428-0.93011-2.5254 3.2199-16.099-10.922 2.0203-3.283-1.4521-1.0733-2.0203 3.283-16.668-10.985 1.894-3.2199-1.1996-0.82075-2.1466 3.283-16.604-10.922 1.9572-3.5355-1.5152-1.0102-3.1252 2.9882-14.732-14.286 3.0357-3.9286-1.25-2.1428-4.7321-0.17858-0.12971-1.6111-1.4678-18.233-0.18837-2.3399 10.715 0.0102c-1.7858 14.227 2.7678 21.459 2.7678 21.459 2.5893 5.7143 8.4821 10.268 8.4821 10.268 8.0357 6.7857 27.321 18.75 27.321 18.75l54.821 36.964 9.0804 6.5122c14.521 10.102 27.905 11.743 27.905 11.743 7.0711 0.63134 10.228 0.50508 10.228 0.50508l51.518-0.37881 495.55-0.1672c20.399 0.25254 32.322-6.0714 32.322-6.0714l22.143-12.321 58.75-38.75c17.322-13.214 26.371-28.654 26.371-28.654s3.4031-4.318 4.4608-19.858z" fill="#4d4d4d" fill-rule="evenodd" stroke="#000" stroke-linecap="round" stroke-linejoin="round"/>
  <path d="m1202.3 849.01 15.238-10.118c1.2935 1.5676 1.5038 3.571 1.5038 3.571l-14.906 9.2346z" fill="#333" fill-rule="evenodd" stroke="#000" stroke-linecap="round" stroke-linejoin="round" stroke-width=".6"/>
  <path d="m825.63 740.36h-349.24l-19.959 0.64065 0.20678 53.439 57.533 7.9207h311.46z" fill="#3e4837" fill-rule="evenodd" stroke="#000" stroke-linecap="round" stroke-linejoin="round"/>
  <path d="m933.14 619.15h65.644v15.006h-65.644z" fill="#ccc" stroke="#000" stroke-linecap="round" stroke-linejoin="round"/>
  <path d="m931.11 612.68v-8.437l-78 2.0004-3.7e-4 8.4366z" fill="#666" fill-rule="evenodd" stroke="#000" stroke-linecap="round" stroke-linejoin="round"/>
  <circle cx="1343.7" cy="711.54" r="40.217" fill="#4d4d4d" stroke="#000" stroke-linecap="round" stroke-linejoin="round"/>
  <path d="m60 670.36h-35v22h35z" fill="#3e4837" fill-rule="evenodd" stroke="#000" stroke-linecap="round" stroke-linejoin="round"/>
  <path d="m566 694.86-506-2.5v-24l506-0.5z" fill="#3e4837" fill-rule="evenodd" stroke="#000" stroke-linecap="round" stroke-linejoin="round"/>
  <path d="m566 694.86v-27h33l1e-4 27z" fill="#3e4837" fill-rule="evenodd" stroke="#000" stroke-linecap="round" stroke-linejoin="round"/>
  <path d="m340 664.36h-109v32h109z" fill="#666" fill-rule="evenodd" stroke="#000" stroke-linecap="round" stroke-linejoin="round"/>
  <path d="m51 670.36h-8v22h8z" fill="#3e4837" fill-rule="evenodd" stroke="#000" stroke-linecap="round" stroke-linejoin="round"/>
  <path d="m49 670.36h-4l0.9375-15.277 9.7321 0.0446 0.17857 9.5536z" fill="#3e4837" fill-rule="evenodd" stroke="#000" stroke-linecap="round" stroke-linejoin="round"/>
  <path d="m669.6 701.46-18.87-1.1332-0.69448-0.88388 0.0625-2.384 2.5894 0.11118v-32.072c0.18922-1.0102 1.2625-2.5885 1.2625-2.5885l22.476 1.8309-6.3134 34.471z" fill="#666" fill-rule="evenodd" stroke="#000" stroke-linecap="round" stroke-linejoin="round"/>
  <path d="m725 693.34-13.393 0.625-2.7679-1.25-0.44643 1.7857-13.839 0.44643-0.80358 3.4821-15 0.80357-8.64-0.42839 6.3134-34.471 4.7982-24.875 2.9042 0.37881 0.25254-1.894 7.513 2.2728 14.332 0.12627 0.56821-2.2097 15.468-0.3788 1.5784-1.6415 14.773-0.31567 16.415 0.63134-13.321 57.074-14.773 0.25254z" fill="#502d16" fill-rule="evenodd" stroke="#000" stroke-linecap="round" stroke-linejoin="round"/>
  <path d="m678.75 699.24 13.141-59.017m14.332 0.12627-11.669 54.605" fill="none" stroke="#000" stroke-linecap="round" stroke-linejoin="round"/>
  <path d="m710.22 693.34 12.036-55.587m16.352-1.9572-11.68 57.958" fill="none" stroke="#000" stroke-linecap="round" stroke-linejoin="round"/>
  <path d="m750.29 655.31-31.709-0.47351-0.57959 2.5451-15.346-0.35331-0.71428 3.5045-14.71 0.0893 0.3125-1.1607-9.6832-2.5783-1.4381 7.4552-2.2812 12.455 8.8935 2.9802 0.17857-0.84822 14.688 0.0893 0.71429-2.8125h15.357l0.53571-1.9643h16.429l-0.22321 0.89286h15.268" fill="none" stroke="#000" stroke-linecap="round" stroke-linejoin="round"/>
  <path d="m755.03 636.43-13.321 57.074 4.0406 1.0102 12.943-56.379z" fill="#28170b" fill-rule="evenodd" stroke="#000" stroke-linecap="round" stroke-linejoin="round" stroke-width="1.5"/>
  <path d="m737.77 693.57 3.9327-0.0672 4.0406 1.0102 11.1-48.353 39.534 9.0837-4.9245 17.173-15.91 18.309h-5.5558l-10.985 12.501-21.339-7.4499z" fill="#3e4837" fill-rule="evenodd" stroke="#000" stroke-linecap="round" stroke-linejoin="round"/>
  <path d="m778.21 707.36 13.24-34.944 4.9245-17.173 5.5558-16.668 64.397-0.37881 1.5251 69.163z" fill="#3e4837" fill-rule="evenodd" stroke="#000" stroke-linecap="round" stroke-linejoin="round"/>
  <path d="m791.45 672.42-15.91 18.309h-5.5558l-10.985 12.501-4.8614 5.0508 24.181-0.88388 55.685-59.094-7.955-7.4499-28.7 31.8z" fill="#3e4837" fill-rule="evenodd" stroke="#000" stroke-linecap="round" stroke-linejoin="round"/>
  <path d="m1004.9 714.36h-136.85l-0.17857-7-0.17711-8.0318-1.348-61.131 40.81-2.1065 93.037-4.8024c19.643 1.9643 22.143 22.143 22.143 22.143l-11.607 47.5z" fill="#3e4837" fill-rule="evenodd" stroke="#000" stroke-linecap="round" stroke-linejoin="round"/>
  <path d="m985 714.36h19.893l5.8214-13.429c-13.482-0.71429-19.911 1.6964-19.911 1.6964-5.625 4.2857-5.8036 11.732-5.8036 11.732z" fill="none" stroke="#000" stroke-linecap="round" stroke-linejoin="round"/>
  <path d="m1000.2 631.29-91.321 4.7138-1.7153 0.0885-1.3483 0.0696-39.461 2.0369 1.348 61.131 34.921-1.3047 2.6698-0.0998 96.337-3.5994c0.9693-2.3e-4 2.232-1.8311 2.232-1.8311z" fill="none" stroke="#000" stroke-linecap="round" stroke-linejoin="round"/>
  <path d="m905.27 697.93 4.5508-38.421-0.96422-23.5-1.7153 0.0885-1.3483 0.0696 1.1707 23.342-4.3636 38.521z" fill="#3e4837" fill-rule="evenodd" stroke="#000" stroke-linecap="round" stroke-linejoin="round"/>
  <path d="m920.09 656.72c-1.6564 0.0383-3.0303-1.2734-3.0686-2.9298s1.2734-3.0303 2.9298-3.0686l71.981-1.6658c1.6564-0.0383 3.0303 1.2734 3.0686 2.9298s-1.2734 3.0303-2.9298 3.0686z" fill="#3e4837" stroke="#000" stroke-linecap="round" stroke-linejoin="round"/>
  <path d="m919.2 676.04c-1.6564 0.0383-3.0303-1.2734-3.0686-2.9298s1.2734-3.0303 2.9298-3.0686l71.981-1.6658c1.6564-0.0383 3.0303 1.2734 3.0686 2.9298s-1.2734 3.0303-2.9298 3.0686z" fill="#3e4837" stroke="#000" stroke-linecap="round" stroke-linejoin="round"/>
  <path d="m918.83 688.54c-1.6564 0.0383-3.0303-1.2734-3.0686-2.9298s1.2734-3.0303 2.9298-3.0686l71.981-1.6658c1.6564-0.0383 3.0303 1.2734 3.0686 2.9298s-1.2734 3.0303-2.9298 3.0686z" fill="#3e4837" stroke="#000" stroke-linecap="round" stroke-linejoin="round"/>
  <path d="m756.85 646.16 39.534 9.0837 5.5558-16.668z" fill="#3e4837" fill-rule="evenodd" stroke="#000" stroke-linecap="round" stroke-linejoin="round"/>
  <path d="m843.39 638.33-41.46 0.24388-4.9245-13.069-0.88388-24.191 31.284-0.72459 15.893 5.5357z" fill="#666" fill-rule="evenodd" stroke="#000" stroke-linecap="round" stroke-linejoin="round"/>
  <path d="m809.64 559.59h11.429v38.571h-11.429z" fill="#666" stroke="#000" stroke-linecap="round" stroke-linejoin="round"/>
  <path d="m843.3 602.13-15.893-5.5357-33.284 0.72459-4.8e-4 4.0003 33.285-0.72485 15.893 5.5357z" fill="#666" fill-rule="evenodd" stroke="#000" stroke-linecap="round" stroke-linejoin="round"/>
  <path d="m868.04 714.36-0.17857-7-89.589 0.0164-24.126 0.90034 4.8614-5.0508-21.339-7.4499 0.0695-2.205-10.802 0.18467-1.931-0.4137-13.393 0.625-2.7679-1.25-0.44643 1.7857-13.839 0.44643-0.80358 3.4821-15 0.80357-3.8299-0.18989 0.0799 4.5649-1.7857 2.3214 1.7857 0.44643 0.26786 6.1607-71.629 2.4216-0.0893 6.25 1.7181 3.8284 28.413-2.2408l168.82-8.1017z" fill="#3e4837" fill-rule="evenodd" stroke="#000" stroke-linecap="round" stroke-linejoin="round"/>
  <path d="m1142.4 713.14-3.7877 0.12627s-2.2097 0.12627-2.2097-1.7678v-5.619s-3.9143-8.0812-8.2075-9.7227l-101.39 0.88388-16.106 3.8926-5.8214 13.429 1e-4 26h137.52z" fill="#3e4837" fill-rule="evenodd" stroke="#000" stroke-linecap="round" stroke-linejoin="round"/>
  <path d="m1004.9 714.36h-136.85l-65.536 0.336-168.82 8.1017-28.413 2.2408-128.88 12.195v3.1263h528.51z" fill="#3e4837" fill-rule="evenodd" stroke="#000" stroke-linecap="round" stroke-linejoin="round"/>
  <path d="m911 706.36h113v30h-113z" fill-rule="evenodd"/>
  <path d="m911 706.36v30h113v-30h-113zm2 2h109v26h-109v-26z" fill="#784421" fill-rule="evenodd"/>
  <path d="m911 728.86h113v3h-113z" fill="#784421" fill-rule="evenodd"/>
  <path d="m911 722.86h113v3h-113z" fill="#784421" fill-rule="evenodd"/>
  <path d="m911 716.86h113v3h-113z" fill="#784421" fill-rule="evenodd"/>
  <path d="m911 710.86h113v3h-113z" fill="#784421" fill-rule="evenodd"/>
  <path d="m1032.4 705.88v5.619c0 1.894-2.2097 1.7678-2.2097 1.7678l-3.7877-0.12627v9.6108l116 4e-5v-9.6109l-3.7877 0.12627s-2.2097 0.12627-2.2097-1.7678v-5.619z" fill="none" stroke="#000" stroke-linecap="round" stroke-linejoin="round"/>
  <path d="m1130.4 710.48h-92.003" fill="none" stroke="#000" stroke-linecap="round" stroke-linejoin="round"/>
  <path d="m1134.4 719.38h-100" fill="none" stroke="#000" stroke-linecap="round" stroke-linejoin="round"/>
  <path d="m1340 659.67h-15.374c-1.3416 0.0989-5.9035-1.0275-10.607 5.619 0 0-8.9019 12.816-12.311 19.635l-8.9652 19.826 7.7024 0.26687 2.8412 0.1732c5.9995-24.787 11.535-33.27 11.535-33.27 3.4472-6.4365 8.4792-6.1107 9.8046-6.2054l15.374 0.0159z" fill="#808080" fill-rule="evenodd" stroke="#000" stroke-linecap="round" stroke-linejoin="round"/>
  <path d="m1294.3 740.36h-151.9v-27.222l-3.7877 0.12627s-2.2097 0.12627-2.2097-1.7678v-5.619s-1.3232-2.7318-3.2747-5.3413c2.746-2.5513 5.4245-1.7478 5.4245-1.7478l6.3734-8e-3v3.2416l155.54 5.4296v22.676z" fill="#3e4837" fill-rule="evenodd" stroke="#000" stroke-linecap="round" stroke-linejoin="round"/>
  <path d="m1302.3 707.51v22.976l-6.1498 10.285-1.8366-0.4099 6.165-10.232v-22.676z" fill="#3e4837" fill-rule="evenodd" stroke="#000" stroke-linecap="round" stroke-linejoin="round"/>
  <path d="m1144.9 702.02 155.54 5.4296-0.036-2.4418-155.5-5.3878z" fill="#4d4d4d" fill-rule="evenodd" stroke="#000" stroke-linecap="round" stroke-linejoin="round"/>
  <path d="m1144.4 710.36h67.367l3e-4 30h-67.367z" fill="#483e37" fill-rule="evenodd" stroke="#000" stroke-linecap="round" stroke-linejoin="round"/>
  <path d="m1298.6 704.49h7.207v3.3403h-7.207z" fill="#333" stroke="#000"/>
  <path transform="matrix(.95848 -.28515 .28515 .95848 0 0)" d="m1102.9 1014.5a5.9978 4.5141 0 0 1 -5.9978 4.5141 5.9978 4.5141 0 0 1 -5.9978 -4.5141 5.9978 4.5141 0 0 1 5.9978 -4.5141 5.9978 4.5141 0 0 1 5.9978 4.5141z" fill="#808080" stroke="#000"/>
  <path d="m1302.3 716.38v14.107l-2.4231 4.0523 9.2153 1.0134-0.063-18.94z" fill="#483e37" fill-rule="evenodd" stroke="#000" stroke-linecap="round" stroke-linejoin="round"/>
  <path transform="matrix(.95848 -.28515 .28515 .95848 0 0)" d="m1094.9 1018.7c0.608 0.1559 1.2599 0.2409 1.9381 0.2409 2.2866 0 4.2744-0.9631 5.2863-2.3797 1.2173 0.9895 1.0515 3.269 1.0515 3.269-0.11 0.8956-1.0313 3.8818-1.0313 3.8818l-7.9575-2.3674z" fill="#808080" stroke="#000" stroke-linecap="round" stroke-linejoin="round"/>
  <path d="m1335.9 667.16h16.207v3.3403h-16.207z" fill="#333" stroke="#000"/>
  <path d="m927 736.36h55v6h-55z" fill-rule="evenodd"/>
  <path d="m767.6 693.45-7.5513 8.5928-19.288-18.133 8.2075-8.902z" fill="#4d4d4d" fill-rule="evenodd" stroke="#000" stroke-linecap="round" stroke-linejoin="round"/>
  <path d="m748.37 671.52-1.4012 1.4862-8.2075 8.902-1.4205 1.5626 2 1.9996 1.4205-1.5621 8.2075-8.902 1.4012-1.4862z" fill="#333" fill-rule="evenodd" stroke="#000" stroke-linecap="round" stroke-linejoin="round"/>
  <path d="m785.01 679.25-7.5513 8.5928-19.288-18.133 8.2075-8.902z" fill="#4d4d4d" fill-rule="evenodd" stroke="#000" stroke-linecap="round" stroke-linejoin="round"/>
  <path d="m765.78 657.32-1.4012 1.4862-8.2075 8.902-1.4205 1.5626 2 1.9996 1.4205-1.5621 8.2075-8.902 1.4012-1.4862z" fill="#333" fill-rule="evenodd" stroke="#000" stroke-linecap="round" stroke-linejoin="round"/>
  <path d="m811.35 657.2-7.5513 8.5928-19.288-18.133 8.2075-8.902z" fill="#4d4d4d" fill-rule="evenodd" stroke="#000" stroke-linecap="round" stroke-linejoin="round"/>
  <path d="m792.12 635.27-1.4012 1.4862-8.2075 8.902-1.4205 1.5626 2 1.9996 1.4205-1.5621 8.2075-8.902 1.4012-1.4862z" fill="#333" fill-rule="evenodd" stroke="#000" stroke-linecap="round" stroke-linejoin="round"/>
  <path d="m823.31 642.29-7.5513 8.5928-19.288-18.133 8.2075-8.902z" fill="#4d4d4d" fill-rule="evenodd" stroke="#000" stroke-linecap="round" stroke-linejoin="round"/>
  <path d="m804.08 620.36-1.4012 1.4862-8.2075 8.902-1.4205 1.5626 2 1.9996 1.4205-1.5621 8.2075-8.902 1.4012-1.4862z" fill="#333" fill-rule="evenodd" stroke="#000" stroke-linecap="round" stroke-linejoin="round"/>
  <path d="m941.41 634.32-34.268 1.7688-40.81 2.1065-4.5461 0.0267v-24.396h71.721z" fill="#3e4837" fill-rule="evenodd" stroke="#000" stroke-linecap="round" stroke-linejoin="round"/>
  <path d="m843.35 622.36 0.0445 15.972 18.392-0.10793v-15.864z" fill="#666" fill-rule="evenodd" stroke="#000" stroke-linecap="round" stroke-linejoin="round"/>
  <path d="m806.64 547.09v2.4998l37.428 1.6e-4v-3.6607z" fill="#666" stroke="#000" stroke-linecap="round" stroke-linejoin="round"/>
  <path d="m853.79 550.36h-10.437l2.0004 72 10.437 3.7e-4z" fill="#666" fill-rule="evenodd" stroke="#000" stroke-linecap="round" stroke-linejoin="round"/>
  <path d="m855.79 550.36h-14.437v-1.9978l14.437-2e-3z" fill="#333" fill-rule="evenodd" stroke="#000" stroke-linecap="round" stroke-linejoin="round"/>
  <path d="m855.79 558.36h-14.437v-1.9978l14.437-2e-3z" fill="#333" fill-rule="evenodd" stroke="#000" stroke-linecap="round" stroke-linejoin="round"/>
  <path d="m822.07 559.59h-13.428v-8.0002l13.428 1.6e-4z" fill="#666" stroke="#000" stroke-linecap="round" stroke-linejoin="round"/>
  <path d="m824.07 551.59h-17.428v-2.0002l17.428 1.6e-4z" fill="#333" stroke="#000" stroke-linecap="round" stroke-linejoin="round"/>
  <path d="m759.64 515.76 88.571-2.3214 0.17857 15.268-19.821 0.35715v5l-19.286-1.3393-1.9643-0.17857-0.98214 0.89286-7.3214-0.0574-1.6071-1.639-36.429 1.1607-0.625 0.98214-0.89286-0.0893v-2.5z" fill="#4d4d4d" fill-rule="evenodd" stroke="#000" stroke-linecap="round" stroke-linejoin="round" stroke-width="1px"/>
  <path d="m759.91 544.77v20.357h40.982v-20.357zm0.97884 0.98242h39.027v18.393h-39.027z" fill="#ccc" stroke="#000" stroke-linecap="round" stroke-linejoin="round" stroke-width=".5"/>
  <path d="m764.18 538.28h51.082v6.6066h-51.082z" fill="#4d4d4d" stroke="#000" stroke-linecap="round" stroke-linejoin="round"/>
  <path d="m844.07 545.93-37.428 1.1607 19.283-10.036c2.7347-1.2584 2.199-4.0263 2.199-4.0263-0.0447-1.2946-1.4732-2.8125-1.4732-2.8125-3.4375 0-6.5625-0.17857-6.5625-0.17857-3.3036-0.067-2.8125-4.8661-2.8125-4.8661 0.17859-2.7679 4.6429-2.9018 4.6429-2.9018 4.1326-0.74587 9.941-4.9128 9.941-4.9128 1.6415-1.5784 3.1567-1.9572 3.1567-1.9572 2.2148-0.0944 3.6434 3.4771 3.6434 3.4771 3.8393 9.1072 5 15.714 5 15.714 0.625 6.875 0.41029 11.339 0.41029 11.339z" fill="#666" stroke="#000" stroke-linecap="round" stroke-linejoin="round"/>
  <circle cx="821.56" cy="526.25" r="2.5446" fill="#666" stroke="#000" stroke-linecap="round" stroke-linejoin="round"/>
  <circle cx="834.91" cy="519.95" r="2.5446" fill="#666" stroke="#000" stroke-linecap="round" stroke-linejoin="round"/>
  <path d="m848.21 511.43 0.17872 17.268-4.0002 2.9e-4 -0.17857-17.268z" fill="#333" fill-rule="evenodd" stroke="#000" stroke-linecap="round" stroke-linejoin="round" stroke-width="1px"/>
  <path d="m764.29 519.56 0.80357 32.175 29.196-0.53572-0.71429-32.21z" fill="#4d4d4d" fill-rule="evenodd" stroke="#000" stroke-linecap="round" stroke-linejoin="round" stroke-width="1px"/>
  <path d="m795.57 518.99-33.285 0.571-2.9e-4 -4.0004 33.286-0.57065z" fill="#333" fill-rule="evenodd" stroke="#000" stroke-linecap="round" stroke-linejoin="round" stroke-width="1px"/>
  <path d="m757 520.36 2.6428-2.6071-0.17857 13.536l-2.4643-0.9286z" fill="#4d4d4d" fill-rule="evenodd" stroke="#000" stroke-linecap="round" stroke-linejoin="round" stroke-width="1px"/>
  <path d="m757 530.36v-10h-34v10z" fill="#ccc" fill-rule="evenodd" stroke="#000" stroke-linecap="round" stroke-linejoin="round" stroke-width="1px"/>
  <circle cx="728.15" cy="525.46" r="1.808" fill="none" stroke="#000" stroke-linecap="round" stroke-linejoin="round"/>
  <circle cx="734.15" cy="525.46" r="1.808" fill="none" stroke="#000" stroke-linecap="round" stroke-linejoin="round"/>
  <circle cx="740.15" cy="525.46" r="1.808" fill="none" stroke="#000" stroke-linecap="round" stroke-linejoin="round"/>
  <circle cx="746.15" cy="525.46" r="1.808" fill="none" stroke="#000" stroke-linecap="round" stroke-linejoin="round"/>
  <path d="m723 529.36v-8h-6v8z" fill="#ccc" fill-rule="evenodd" stroke="#000" stroke-linecap="round" stroke-linejoin="round" stroke-width="1px"/>
  <path d="m717 528.36v-6h-4v6z" fill="#ccc" fill-rule="evenodd" stroke="#000" stroke-linecap="round" stroke-linejoin="round" stroke-width="1px"/>
  <path d="m633 523.36 80-1 4e-3 6.0036-79.996-1.0036z" fill="#ccc" fill-rule="evenodd" stroke="#000" stroke-linecap="round" stroke-linejoin="round" stroke-width="1px"/>
  <path d="m652.68 665.09-53.685 2.7672l1e-4 27 53.685 2.3051z" fill="#3e4837" fill-rule="evenodd" stroke="#000" stroke-linecap="round" stroke-linejoin="round"/>
  <path d="m972.52 572.41 1.389 46.74h8.3338l-2.0519-47.034z" fill="#808080" stroke="#000" stroke-linecap="round" stroke-linejoin="round"/>
  <path d="m990.29 612.36h-2.6116l-7.073-205.23 2.7779-0.25254z" fill="#ccc" stroke="#000" stroke-linecap="round" stroke-linejoin="round"/>
  <path d="m980.2 572.12-7.6708 0.29428c0.80153-3.8459 3.7926-3.8013 3.7926-3.8013s3.9062 0.0893 3.8782 3.507z" fill="#808080" stroke="#000" stroke-linecap="round" stroke-linejoin="round"/>
  <path transform="rotate(-90)" d="m-597.18 995.84a12.5 16 0 0 1 12.5 -16 12.5 16 0 0 1 12.5 16h-12.5z" fill="#808080" stroke="#000" stroke-linecap="round" stroke-linejoin="round"/>
  <rect x="977" y="563.36" width="4" height="18" fill="#808080" stroke="#000" stroke-linecap="round" stroke-linejoin="round"/>
  <path d="m974 563.36a5 5 0 0 1 5 -5 5 5 0 0 1 5 5h-5z" fill="#808080" stroke="#000" stroke-linecap="round" stroke-linejoin="round"/>
  <path d="m981 581.36h-4l-0.0246 4.1517s-0.56821 0.56822-1.1364 0.75762c-0.66291 2.2413 1.6415 3.1567 1.6415 3.1567 1.4521 0.94701 3.3146-1.7362 3.3146-1.7362 0.25254-0.31568 0.22097-0.85232 0.22097-0.85232z" fill="#808080" stroke="#000" stroke-linecap="round" stroke-linejoin="round"/>
  <path d="m987.68 612.36-0.53428 6.7911h3.644l-0.49816-6.7911z" fill="#f00" stroke="#000" stroke-linecap="round" stroke-linejoin="round"/>
  <path d="m413.78 742.37 42.644-1.3688 19.959-0.64065v-3.1263l32.34-3.0602c-39.259 0.61972-52.265 2.0087-52.265 2.0087-41.669 2.1466-42.679 6.1872-42.679 6.1872z" fill="#3e4837" fill-rule="evenodd" stroke="#000" stroke-linecap="round" stroke-linejoin="round"/>
  <path d="m456.43 741-1.8703 0.06-40.774 1.3088c-12.248 1.0102-19.824 3.5355-19.824 3.5355-2.2728 0.69448-5.6821 3.0936-5.6821 3.0936-17.93 14.205-31.441 45.361-31.441 45.361h16.735l83.063 0.0793z" fill="#3e4837" fill-rule="evenodd" stroke="#000" stroke-linecap="round" stroke-linejoin="round"/>
  <path d="m454.56 741.06-40.774 1.3088c-12.248 1.0102-19.824 3.5355-19.824 3.5355-2.2728 0.69448-5.6821 3.0936-5.6821 3.0936-17.93 14.205-31.441 45.361-31.441 45.361h15.035c10.851-22.949 24.614-34.565 24.614-34.565 4.5866-2.3453 8.9616-2.7024 8.9616-2.7024 18.125-3.125 36.161-3.75 36.161-3.75 10.12-0.55551 13.088-0.61864 13.088-0.61864z" fill="#3e4837" fill-rule="evenodd" stroke="#000" stroke-linecap="round" stroke-linejoin="round"/>
  <path d="m397.56 751.65c6.5029-3.7249 20.014-4.2932 20.014-4.2932 17.678-1.7678 36.807-2.9042 36.807-2.9042" fill="none" stroke="#000" stroke-linecap="round" stroke-linejoin="round" stroke-width=".75"/>
  <path d="m398.51 755.36c6.5029-3.7249 20.014-4.2932 20.014-4.2932 17.678-1.7678 35.797-2.8411 35.797-2.8411" fill="none" stroke="#000" stroke-linecap="round" stroke-linejoin="round" stroke-width=".75"/>
  <path d="m387.96 747.99 8.2706 14.332c3.4093-0.69448 4.672-2.8411 4.672-2.8411l-8.2706-13.89s-3.0305 0.69448-4.672 2.3991z" fill="none" stroke="#000" stroke-linecap="round" stroke-linejoin="round" stroke-width="1px"/>
  <path d="m390.17 757.27c-15.338 14.822-24.875 36.113-24.875 36.113" fill="none" stroke="#000" stroke-linecap="round" stroke-linejoin="round" stroke-width="1px"/>
  <circle cx="394.02" cy="753.61" r="1.6186" fill="none" stroke="#000" stroke-linecap="round" stroke-linejoin="round" stroke-width=".6"/>
  <circle cx="408.99" cy="754.05" r="1.3661" fill="none" stroke="#000" stroke-linecap="round" stroke-linejoin="round" stroke-width=".6"/>
  <circle cx="423.25" cy="752.6" r="1.3661" fill="none" stroke="#000" stroke-linecap="round" stroke-linejoin="round" stroke-width=".6"/>
  <circle cx="437.46" cy="751.46" r="1.3661" fill="none" stroke="#000" stroke-linecap="round" stroke-linejoin="round" stroke-width=".6"/>
  <circle cx="451.41" cy="750.58" r="1.3661" fill="none" stroke="#000" stroke-linecap="round" stroke-linejoin="round" stroke-width=".6"/>
  <path d="m783.63 740.36h-307.24l-19.959 0.64065 0.20678 53.439 57.533 7.9207h269.46z" fill="#502d16" fill-rule="evenodd" stroke="#000" stroke-linecap="round" stroke-linejoin="round"/>
  <path d="m783.63 760.36h-307.24l-19.959 0.64065" fill="none" stroke="#000" stroke-linecap="round" stroke-linejoin="round"/>
  <path d="m783.63 780.36h-307.24l-19.959 0.64065" fill="none" stroke="#000" stroke-linecap="round" stroke-linejoin="round"/>
  <path d="m763.63 802.36v-62" fill="none" stroke="#000" stroke-linecap="round" stroke-linejoin="round"/>
  <path d="m743.63 802.36v-62" fill="none" stroke="#000" stroke-linecap="round" stroke-linejoin="round"/>
  <path d="m723.63 802.36v-62" fill="none" stroke="#000" stroke-linecap="round" stroke-linejoin="round"/>
  <path d="m702.13 802.36v-62" fill="none" stroke="#000" stroke-linecap="round" stroke-linejoin="round"/>
  <path d="m681.63 802.36v-62" fill="none" stroke="#000" stroke-linecap="round" stroke-linejoin="round"/>
  <path d="m661.63 802.36v-62" fill="none" stroke="#000" stroke-linecap="round" stroke-linejoin="round"/>
  <path d="m640.63 802.36v-62" fill="none" stroke="#000" stroke-linecap="round" stroke-linejoin="round"/>
  <path d="m620.23 802.36v-62" fill="none" stroke="#000" stroke-linecap="round" stroke-linejoin="round"/>
  <path d="m598.63 802.36v-62" fill="none" stroke="#000" stroke-linecap="round" stroke-linejoin="round"/>
  <path d="m579.43 802.36v-62" fill="none" stroke="#000" stroke-linecap="round" stroke-linejoin="round"/>
  <path d="m559.43 802.36v-62" fill="none" stroke="#000" stroke-linecap="round" stroke-linejoin="round"/>
  <path d="m537.93 802.36v-62" fill="none" stroke="#000" stroke-linecap="round" stroke-linejoin="round"/>
  <path d="m517.93 802.36v-62" fill="none" stroke="#000" stroke-linecap="round" stroke-linejoin="round"/>
  <path d="m497.73 780.36v-40" fill="none" stroke="#000" stroke-linecap="round" stroke-linejoin="round"/>
  <path d="m476.53 780.36v-40" fill="none" stroke="#000" stroke-linecap="round" stroke-linejoin="round"/>
  <path d="m825.63 740.36v62h185.1v-62z" fill="#3e4837" fill-rule="evenodd" stroke="#000" stroke-linecap="round" stroke-linejoin="round"/>
  <path d="m1000.7 744.86h-165.1" fill="none" stroke="#000" stroke-linecap="round" stroke-linejoin="round"/>
  <path d="m1000.7 748.86h-165.1" fill="none" stroke="#000" stroke-linecap="round" stroke-linejoin="round"/>
  <circle cx="845.54" cy="753.61" r="2.5446" fill="none" stroke="#000" stroke-linecap="round" stroke-linejoin="round"/>
  <circle cx="899.54" cy="753.61" r="2.5446" fill="none" stroke="#000" stroke-linecap="round" stroke-linejoin="round"/>
  <circle cx="947.54" cy="753.61" r="2.5446" fill="none" stroke="#000" stroke-linecap="round" stroke-linejoin="round"/>
  <circle cx="997.54" cy="753.61" r="2.5446" fill="none" stroke="#000" stroke-linecap="round" stroke-linejoin="round"/>
  <circle cx="845.54" cy="793.61" r="2.5446" fill="none" stroke="#000" stroke-linecap="round" stroke-linejoin="round"/>
  <circle cx="899.54" cy="793.61" r="2.5446" fill="none" stroke="#000" stroke-linecap="round" stroke-linejoin="round"/>
  <circle cx="947.54" cy="793.61" r="2.5446" fill="none" stroke="#000" stroke-linecap="round" stroke-linejoin="round"/>
  <circle cx="997.54" cy="793.61" r="2.5446" fill="none" stroke="#000" stroke-linecap="round" stroke-linejoin="round"/>
  <path d="m1269.6 774.24-258.83 28.125v-62h283.59v8.1607z" fill="#3e4837" fill-rule="evenodd" stroke="#000" stroke-linecap="round" stroke-linejoin="round"/>
  <path d="m1030.7 744.86h-17.1" fill="none" stroke="#000" stroke-linecap="round" stroke-linejoin="round"/>
  <path d="m1030.7 748.86h-17.1" fill="none" stroke="#000" stroke-linecap="round" stroke-linejoin="round"/>
  <path d="m1129.9 756.36h-97.164l3e-4 -16h97.164z" fill="none" stroke="#000" stroke-linecap="round" stroke-linejoin="round"/>
  <path d="m1125.3 751.78h-87.1" fill="none" stroke="#000" stroke-linecap="round" stroke-linejoin="round"/>
  <path d="m1125.3 754.28h-87.1" fill="none" stroke="#000" stroke-linecap="round" stroke-linejoin="round"/>
  <path d="m1286.8 745.39h-137.1" fill="none" stroke="#000" stroke-linecap="round" stroke-linejoin="round"/>
  <path d="m1285.7 748.79h-147.1" fill="none" stroke="#000" stroke-linecap="round" stroke-linejoin="round"/>
  <path d="m1271.3 852.35s-6.9448-2.0203-23.598-4.6326c0 0-34.464-6.0714-79.816 5.8953-5.7278 1.6707-12.339 4.7521-22.138 6.8831-11.452 2.4904-27.258 3.6828-51.098-0.19085 0 0-24.523-6.4846-51.234 8.7517 0 0-11.518 6.3393-32.914 5.6905-25.221-11.893-48.514-13.652-75.568-0.24407 0 0-17.257 6.8108-41.431 0.0703-7.4451-1.9655-29.661-18.773-67.989-2.6596 0 0-8.6161 3.6161-24.241 4.4643-2.4107 0.10503-14.375 0.75894-27.277-5.8929-1.3558-0.69128-7.3669-3.2526-17.991-4.6428 0 0-7.0536-1.2054-15-0.53572 0 0-10.089 0.0893-28.214 8.2143 0 0-3.8167 1.6419-10.714 2.4107 0 0-19.233 1.7794-32.764-3.2523-3.0343-1.0359-12.022-5.8317-21.075-7.1048 0 0-3.6607-0.80357-13.036-0.53571 0 0-9.0513-0.0153-19.196 3.0357 0 0-5.8929 1.875-16.607 6.3393 0 0-12.679 4.2857-28.661 2.4107 0 0-37.679-2.3214-56.546-46.95v-27.514h496.56l134.76-14.644 124.07-13.481 1.7234 0.0174z" fill="#3e4837" fill-rule="evenodd" stroke="#000" stroke-linecap="round" stroke-linejoin="round"/>
  <path d="m702.05 875.93v-73.571m123.44 0v69.554" fill="none" stroke="#000" stroke-linecap="round" stroke-linejoin="round"/>
  <path d="m1010.5 874.75 0.2476-72.387m134.76-14.644 0.2373 72.779" fill="none" stroke="#000" stroke-linecap="round" stroke-linejoin="round"/>
  <circle cx="536.39" cy="806.14" r="2.5446" fill="none" stroke="#000" stroke-linecap="round" stroke-linejoin="round"/>
  <circle cx="590.89" cy="806.14" r="2.5446" fill="none" stroke="#000" stroke-linecap="round" stroke-linejoin="round"/>
  <circle cx="638.89" cy="806.14" r="2.5446" fill="none" stroke="#000" stroke-linecap="round" stroke-linejoin="round"/>
  <circle cx="688.89" cy="806.14" r="2.5446" fill="none" stroke="#000" stroke-linecap="round" stroke-linejoin="round"/>
  <circle cx="536.39" cy="846.14" r="2.5446" fill="none" stroke="#000" stroke-linecap="round" stroke-linejoin="round"/>
  <circle cx="590.89" cy="846.14" r="2.5446" fill="none" stroke="#000" stroke-linecap="round" stroke-linejoin="round"/>
  <circle cx="638.89" cy="846.14" r="2.5446" fill="none" stroke="#000" stroke-linecap="round" stroke-linejoin="round"/>
  <circle cx="688.89" cy="846.14" r="2.5446" fill="none" stroke="#000" stroke-linecap="round" stroke-linejoin="round"/>
  <circle cx="714.89" cy="806.14" r="2.5446" fill="none" stroke="#000" stroke-linecap="round" stroke-linejoin="round"/>
  <circle cx="768.89" cy="806.14" r="2.5446" fill="none" stroke="#000" stroke-linecap="round" stroke-linejoin="round"/>
  <circle cx="818.89" cy="806.14" r="2.5446" fill="none" stroke="#000" stroke-linecap="round" stroke-linejoin="round"/>
  <circle cx="714.89" cy="846.14" r="2.5446" fill="none" stroke="#000" stroke-linecap="round" stroke-linejoin="round"/>
  <circle cx="768.89" cy="846.14" r="2.5446" fill="none" stroke="#000" stroke-linecap="round" stroke-linejoin="round"/>
  <circle cx="818.89" cy="846.14" r="2.5446" fill="none" stroke="#000" stroke-linecap="round" stroke-linejoin="round"/>
  <circle cx="844.39" cy="806.14" r="2.5446" fill="none" stroke="#000" stroke-linecap="round" stroke-linejoin="round"/>
  <circle cx="898.89" cy="806.14" r="2.5446" fill="none" stroke="#000" stroke-linecap="round" stroke-linejoin="round"/>
  <circle cx="946.89" cy="806.14" r="2.5446" fill="none" stroke="#000" stroke-linecap="round" stroke-linejoin="round"/>
  <circle cx="996.89" cy="806.14" r="2.5446" fill="none" stroke="#000" stroke-linecap="round" stroke-linejoin="round"/>
  <circle cx="844.39" cy="846.14" r="2.5446" fill="none" stroke="#000" stroke-linecap="round" stroke-linejoin="round"/>
  <circle cx="898.89" cy="846.14" r="2.5446" fill="none" stroke="#000" stroke-linecap="round" stroke-linejoin="round"/>
  <circle cx="946.89" cy="846.14" r="2.5446" fill="none" stroke="#000" stroke-linecap="round" stroke-linejoin="round"/>
  <circle cx="996.89" cy="846.14" r="2.5446" fill="none" stroke="#000" stroke-linecap="round" stroke-linejoin="round"/>
  <circle cx="1031.6" cy="804.33" r="2.5446" fill="none" stroke="#000" stroke-linecap="round" stroke-linejoin="round"/>
  <circle cx="1078.4" cy="799.86" r="2.5446" fill="none" stroke="#000" stroke-linecap="round" stroke-linejoin="round"/>
  <circle cx="1132.7" cy="793.97" r="2.5446" fill="none" stroke="#000" stroke-linecap="round" stroke-linejoin="round"/>
  <circle cx="1035.7" cy="845.04" r="2.5446" fill="none" stroke="#000" stroke-linecap="round" stroke-linejoin="round"/>
  <circle cx="1082.9" cy="839.68" r="2.5446" fill="none" stroke="#000" stroke-linecap="round" stroke-linejoin="round"/>
  <circle cx="1136.8" cy="833.79" r="2.5446" fill="none" stroke="#000" stroke-linecap="round" stroke-linejoin="round"/>
  <circle cx="1157.7" cy="790.76" r="2.5446" fill="none" stroke="#000" stroke-linecap="round" stroke-linejoin="round"/>
  <circle cx="1162" cy="830.76" r="2.5446" fill="none" stroke="#000" stroke-linecap="round" stroke-linejoin="round"/>
  <circle cx="1204.5" cy="785.58" r="2.5446" fill="none" stroke="#000" stroke-linecap="round" stroke-linejoin="round"/>
  <circle cx="1208.9" cy="825.76" r="2.5446" fill="none" stroke="#000" stroke-linecap="round" stroke-linejoin="round"/>
  <circle cx="1258.6" cy="779.86" r="2.5446" fill="none" stroke="#000" stroke-linecap="round" stroke-linejoin="round"/>
  <circle cx="1262.9" cy="820.04" r="2.5446" fill="none" stroke="#000" stroke-linecap="round" stroke-linejoin="round"/>
  <path d="m388.62 814.95-1.4678-18.233c-2.0318-0.0475-3.7364 1.0258-3.7364 1.0258l1.9572 17.425z" fill="#333" fill-rule="evenodd" stroke="#000" stroke-linecap="round" stroke-linejoin="round" stroke-width=".6"/>
  <path d="m405.22 835.97-13.177-12.687c-1.5536 1.3102-2.1198 3.2434-2.1198 3.2434l13.008 11.758z" fill="#333" fill-rule="evenodd" stroke="#000" stroke-linecap="round" stroke-linejoin="round" stroke-width=".6"/>
  <path d="m424.73 849.01-15.238-10.118c-1.2935 1.5676-1.5038 3.571-1.5038 3.571l14.906 9.2346z" fill="#333" fill-rule="evenodd" stroke="#000" stroke-linecap="round" stroke-linejoin="round" stroke-width=".6"/>
  <path d="m428.57 851.06 12.97 8.5513-1.8897 2.7278-12.97-8.5513z" fill="#333" stroke="#000" stroke-linecap="round" stroke-linejoin="round" stroke-width=".6"/>
  <path d="m446.37 862.94 12.778 8.8366-1.9496 2.6853-12.778-8.8366z" fill="#333" stroke="#000" stroke-linecap="round" stroke-linejoin="round" stroke-width=".6"/>
  <path d="m464.23 874.82 12.633 9.0427-1.9929 2.6533-12.633-9.0427z" fill="#333" stroke="#000" stroke-linecap="round" stroke-linejoin="round" stroke-width=".6"/>
  <path d="m482.16 887.63 12.778 8.8366-1.9496 2.6853-12.778-8.8366z" fill="#333" stroke="#000" stroke-linecap="round" stroke-linejoin="round" stroke-width=".6"/>
  <path d="m501.18 900.42 13.696 7.3341-1.6333 2.8886-13.696-7.3341z" fill="#333" stroke="#000" stroke-linecap="round" stroke-linejoin="round" stroke-width=".6"/>
  <path d="m1198.4 851.06-12.97 8.5513 1.8897 2.7278 12.97-8.5513z" fill="#333" stroke="#000" stroke-linecap="round" stroke-linejoin="round" stroke-width=".6"/>
  <path d="m1180.6 862.94-12.778 8.8366 1.9497 2.6853 12.778-8.8366z" fill="#333" stroke="#000" stroke-linecap="round" stroke-linejoin="round" stroke-width=".6"/>
  <path d="m1162.8 874.82-12.633 9.0427 1.9929 2.6533 12.633-9.0427z" fill="#333" stroke="#000" stroke-linecap="round" stroke-linejoin="round" stroke-width=".6"/>
  <path d="m1144.8 887.63-12.778 8.8366 1.9496 2.6853 12.778-8.8366z" fill="#333" stroke="#000" stroke-linecap="round" stroke-linejoin="round" stroke-width=".6"/>
  <path d="m1125.8 900.42-13.696 7.3341 1.6333 2.8886 13.696-7.3341z" fill="#333" stroke="#000" stroke-linecap="round" stroke-linejoin="round" stroke-width=".6"/>
  <path d="m523.62 909.86 15.535 0.10154-0.0979 3.3169-15.535-0.10154z" fill="#333" stroke="#000" stroke-linecap="round" stroke-linejoin="round" stroke-width=".6"/>
  <path d="m545.62 909.86 15.535 0.10154-0.0979 3.3169-15.535-0.10154z" fill="#333" stroke="#000" stroke-linecap="round" stroke-linejoin="round" stroke-width=".6"/>
  <path d="m567.62 909.86 15.535 0.10154-0.0979 3.3169-15.535-0.10154z" fill="#333" stroke="#000" stroke-linecap="round" stroke-linejoin="round" stroke-width=".6"/>
  <path d="m589.62 909.86 15.535 0.10154-0.0979 3.3169-15.535-0.10154z" fill="#333" stroke="#000" stroke-linecap="round" stroke-linejoin="round" stroke-width=".6"/>
  <path d="m611.12 909.86 15.535 0.10154-0.0979 3.3169-15.535-0.10154z" fill="#333" stroke="#000" stroke-linecap="round" stroke-linejoin="round" stroke-width=".6"/>
  <path d="m633.12 909.86 15.535 0.10154-0.0979 3.3169-15.535-0.10154z" fill="#333" stroke="#000" stroke-linecap="round" stroke-linejoin="round" stroke-width=".6"/>
  <path d="m655.12 909.86 15.535 0.10154-0.0979 3.3169-15.535-0.10154z" fill="#333" stroke="#000" stroke-linecap="round" stroke-linejoin="round" stroke-width=".6"/>
  <path d="m677.12 909.86 15.535 0.10154-0.0979 3.3169-15.535-0.10154z" fill="#333" stroke="#000" stroke-linecap="round" stroke-linejoin="round" stroke-width=".6"/>
  <path d="m695.62 909.86 15.535 0.10154-0.0979 3.3169-15.535-0.10154z" fill="#333" stroke="#000" stroke-linecap="round" stroke-linejoin="round" stroke-width=".6"/>
  <path d="m717.62 909.86 15.535 0.10154-0.0979 3.3169-15.535-0.10154z" fill="#333" stroke="#000" stroke-linecap="round" stroke-linejoin="round" stroke-width=".6"/>
  <path d="m739.62 909.86 15.535 0.10154-0.0979 3.3169-15.535-0.10154z" fill="#333" stroke="#000" stroke-linecap="round" stroke-linejoin="round" stroke-width=".6"/>
  <path d="m761.62 909.86 15.535 0.10154-0.0979 3.3169-15.535-0.10154z" fill="#333" stroke="#000" stroke-linecap="round" stroke-linejoin="round" stroke-width=".6"/>
  <path d="m783.12 909.86 15.535 0.10154-0.0979 3.3169-15.535-0.10154z" fill="#333" stroke="#000" stroke-linecap="round" stroke-linejoin="round" stroke-width=".6"/>
  <path d="m805.12 909.86 15.535 0.10154-0.0979 3.3169-15.535-0.10154z" fill="#333" stroke="#000" stroke-linecap="round" stroke-linejoin="round" stroke-width=".6"/>
  <path d="m827.12 909.86 15.535 0.10154-0.0979 3.3169-15.535-0.10154z" fill="#333" stroke="#000" stroke-linecap="round" stroke-linejoin="round" stroke-width=".6"/>
  <path d="m849.12 909.86 15.535 0.10154-0.0979 3.3169-15.535-0.10154z" fill="#333" stroke="#000" stroke-linecap="round" stroke-linejoin="round" stroke-width=".6"/>
  <path d="m870.82 909.86 15.535 0.10154-0.0979 3.3169-15.535-0.10154z" fill="#333" stroke="#000" stroke-linecap="round" stroke-linejoin="round" stroke-width=".6"/>
  <path d="m892.82 909.86 15.535 0.10154-0.0979 3.3169-15.535-0.10154z" fill="#333" stroke="#000" stroke-linecap="round" stroke-linejoin="round" stroke-width=".6"/>
  <path d="m914.02 909.86 15.535 0.10154-0.0979 3.3169-15.535-0.10154z" fill="#333" stroke="#000" stroke-linecap="round" stroke-linejoin="round" stroke-width=".6"/>
  <path d="m936.02 909.86 15.535 0.10154-0.098 3.3169-15.535-0.10154z" fill="#333" stroke="#000" stroke-linecap="round" stroke-linejoin="round" stroke-width=".6"/>
  <path d="m957.52 909.86 15.535 0.10154-0.098 3.3169-15.535-0.10154z" fill="#333" stroke="#000" stroke-linecap="round" stroke-linejoin="round" stroke-width=".6"/>
  <path d="m979.32 909.86 15.535 0.10154-0.098 3.3169-15.535-0.10154z" fill="#333" stroke="#000" stroke-linecap="round" stroke-linejoin="round" stroke-width=".6"/>
  <path d="m1000.6 909.86 15.535 0.10154-0.098 3.3169-15.535-0.10154z" fill="#333" stroke="#000" stroke-linecap="round" stroke-linejoin="round" stroke-width=".6"/>
  <path d="m1021.8 909.86 15.535 0.10154-0.098 3.3169-15.535-0.10154z" fill="#333" stroke="#000" stroke-linecap="round" stroke-linejoin="round" stroke-width=".6"/>
  <path d="m1044.1 909.86 15.535 0.10154-0.098 3.3169-15.535-0.10154z" fill="#333" stroke="#000" stroke-linecap="round" stroke-linejoin="round" stroke-width=".6"/>
  <path d="m1065.4 909.86 15.535 0.10154-0.098 3.3169-15.535-0.10154z" fill="#333" stroke="#000" stroke-linecap="round" stroke-linejoin="round" stroke-width=".6"/>
  <path d="m1088.8 909.86 15.535 0.10154-0.098 3.3169-15.535-0.10154z" fill="#333" stroke="#000" stroke-linecap="round" stroke-linejoin="round" stroke-width=".6"/>
 </g>
</svg>
