<?xml version="1.0" encoding="UTF-8"?>
<svg viewBox="0 0 375 400" xmlns="http://www.w3.org/2000/svg">
 <g transform="matrix(.5,0,0,.5,75,82.5)" fill-rule="evenodd">
  <path d="m-150-165h750v800h-750v-800z" fill="#344a33"/>
  <g fill="#463a28">
   <path d="m600 178.31c-35.369 10.471-73.585 12.212-110.19 6.5312-30.722-8.3427-39.519 26.728-71.031 18.75-30.378-3.4519-60.266 1.0468-90.375 3.0938-28.354-14.208-55.107 28.409-14.812 28.438 28.384-2.7676 58.788-4.504 75.375 21.219 11.056-0.38857 38.665 3.2716 15.562 14.094-11.497 2.7598-51.767-12.255-29.416 10.679 29.511 24.586 61.984-1.1957 95.009-6.8037 33.865-10.138 1.3616 21.705-13.469 21-10.828 4.8934-40.636-0.02207-21.769 19.736 16.434 7.9194 63.272 3.9065 60.051 26.826-24.096 21.352-56.693 4.7789-78.981-5.4065-35.667-2.1543-50.252 36.521-82.3 44.5-23.084 18.935 4.4247 40.795 21.938 18.812 15.41 20.647-32.134 18.625-33.062 30.906 17.903 10.284 71.751 0.97106 54.688 35.156-22.649 35.117-56.773 0.84867-87.469 2.6562-27.439-10.794-60.736 6.1439-84.031 4.2812-25.716-8.0951-46.02-27.248-67.719-41.906-13.363-26.935-41.696-43.646-71.224-45.981-17.015-12.335-78.053-25.176-69.994 7.5437 20.336 14.833 81.422 21.592 63.344 55.656-29.378 3.6125-64.402 5.9819-91.858-7.3966-26.31-8.7471-27.288-41.431-44.252-58.896-7.7824-46.016 56.354-5.9801 55.766-48.77 5.2379-12.76 24.841-43.669-5.2812-31.844-17.089 13.737-40.842 43.491-49.344 5.0625-20.655-18.934 7.218-40.255-18.781-56.031-11.783-9.5417-35.628-62.89-41.059-24.448 14.748 28.147 1.1338 63.01 7.0836 89.229 5.2374 23.08 52.569 39.671 17.006 63.438-6.016 19.1-17.645 26.64-39.406 21.344v73.406c39.922 12.546-2.8271 54.988 21.844 76.312 20.171 19.319 55.889 16.503 69.781 46.062 16.413 28.103 51.216 21.159 78.125 28.656 19.202 0.95555 18.096 10.781 50.25 10.781h160c-23.457-14.073-53.71-6.5765-79.265-14.942 16.045-7.7242 51.325 8.5248 73.077-8.1204 34.93-15.67-26.344-22.948-40.906-15.469-28.351 6.2902-60.546 1.3006-79.875-22.156-28.154-13.335-55.217-68.361-3.9688-65.125 21.552 3.0343 65.5 4.6598 72.561 23.142-24.659-7.3509-79.963-16.357-57.748 27.827 19.85 36.215 62.832 16.697 93.875 25.375 29.177 16.437 60.697 9.3855 84.897-11.048 20.166-4.2723 44.904 7.1114 60.978-6.6394-3.799 13.561-40.661 30.343-6.6181 34.17 29.057-4.7406 56.703-17.53 86.087-24.264 23.32 7.2521 63.621 23.721 67.25-15.156 12.671-9.5259 69.28-40.039 24.064-39.221-24.811 0.76717-54.987-2.1134-76.657-4.3412 16.384-24.867 45.476-24.567 71.818-23.414 26.11-12.403 63.715-13.268 80.432-40.617v-70c-30 0-10-30 0-40v-166.69z"/>
   <path d="m-74.219 518.06c-8.8163 0.55486-17.181 4.4883-26.14 3.499-10.633-0.42715-21.632 1.429-31.844-2.356-6.6525-2.0727-14.3-1.563-17.797 5.3258v110.47h100c10 0 16.953-3.994 23.932-6.1932 10.543 1.0431 11.316-11.918 2.144-14.675-7.299-3.7038-16.181-3.6434-23.17-7.8189-0.7322-6.2283-6.4024-14.668-2.8667-19.942 6.9004-2.397 8.9752-11.839 16.867-12.058 10.095-1.509 20.664 1.0294 30.414-2.7852 9.7388-2.4565 19.788-4.5326 28.285-10.189 5.5643-3.8654 14.57-3.1954 17.839-9.6842 2.3573-8.0064-6.326-13.406-13.33-13.339-6.9598 0.05538-13.608 2.4364-20.246 4.084-8.5599-0.09785-16.833 2.5237-25.356 2.9836-11.895 3.7017-19.431 14.53-29.181 21.548-6.9837 3.0307-12.165-5.7707-17.986-8.4084-7.0062-4.1871-15.097-1.6837-22.72-2.1164-5.3462 0.20158-13.557 2.5719-17.25-1.5938-3.1756-8.0296 4.1892-16.148 12.453-13.804 7.9196 0.38277 15.745-0.7723 23.64-0.91427 7.3128-1.1504 14.846 0.30068 21.461 3.5297 8.708 4.011 13.971-9.1784 8.4755-14.972-4.1109-5.5551-12.106-4.4359-17.905-7.1203-5.9533-3.8214-12.947-3.6135-19.719-3.4688z"/>
   <path d="m-77.874 101.51c10.919 3.4548 19.614 12.192 31.812 6.8125 7.9408 1.7972 32.029-12.726 26.812 2.625-13.024 2.0479 1.9958 16.929 6.7856 20.817 10.92-3.0809 23.579-6.2742 35.603-3.9013 15.695 1.9872 23.759-14.522 36.424-17.322 13.616 3.7717 27.616 3.6979 41.672 3.3816 14.096-0.61005 29.305-7.9384 42.734-0.03788 13.512-2.1582 30.258 17.819 11.75 22.719-11.832-6.0763-25.196-4.4929-37.929-3.2321-10.343-2.5312-28.252 1.3025-21.04 15.388 14.811 3.1082 32.53-5.9994 44.75 6.2188 12.448 13.922 22.344-7.6896 32.994-13.093 11.468-7.7078 26.51-4.6328 39.162-8.626 10.477-6.4281 37.008-0.74069 25.313 14.373-13.496 4.3416-25.174 13.074-39.406 15.314-12.766 5.8404-27.495 0.3132-40.048 5.8254-6.8797 7.5453-17.486 11.77-9.8673 23.391 1.3494 16.549 29.993 6.122 31.791 23.534-9.9914 9.4809-27.467 11.591-41.562 12.906-13.17 2.6926-27.22 2.3578-40.431 0.27009-12.942-3.3814-28.728 2.613-21.913 18.48 1.365 15.981 34.964 10.35 24.84 28.539-7.9305 12.324-22.215 20.615-37.14 18.497-15.748 3.2568 17.081 30.659-1.4866 28.796-13.203-6.8327-28.184-2.6344-42.213-5.7069-10.113 8.2699-29.832 0.22733-22.868-14.083 8.6924-6.8863 31.986 1.973 30.837-14.167-9.4711-0.88137-22.804 2.7043-34.188 1.4062-12.589 7.8662-29.456-11.99-19.219-23.375-0.40329-9.4415-20.069-22.688-4.5-33 13.7-14.155-10.45 10.074-13.744-4.823-1.8577-12.875 3.6274-25.68 5.8693-37.802-17.06-10.933-0.68782-23.072 9.7035-30.252 3.7735-12.641-18.559 1.0792-25.391-6.2483-6.355-6.4939-8.0474-3.8261-14.689-0.41733-12.94-4.1218 5.4791-31.77-15.334-23.539-13.876 10.652-26.648-8.0998-13.673-18.621 4.5566-5.4157 10.096-11.274 17.79-11.047z"/>
   <path d="m119.84-165c0.04909 20.479-22.733 21.452-38.977 22.073-24.93-25.788-41.602 16.346-64.543 22.093-13.131 2.4943-28.741 10.729-16.156 24.53-8.0111 22.645-40.813 21.883-61.168 28.085-26.923 3.1656-53.142 11.437-75.688 26.094-18.433 18.842-5.3885 48.003-3.3827 70.764 4.6256 16.774 39.124 3.8086 33.226 30.361 9.0852 30.103 39.338-4.4904 56.903-6.9984 24.186-11.059 47.681 26.609 67.972 2.4672 19.987-14.427 47.008-2.8182 67.171-18.741 28.341-6.723 57.879-2.8901 86.704-5.3837 22.104 1.941 42.873-0.61752 64.122-5.8929 22.651 2.2812 44.1-8.6946 66.847-8.5758 22.118-16.928 41.175 27.877 58.858 2.6921 9.1404-29.176 45.264-27.092 69.704-31.192 21.32-3.7594 52.925 9.1607 64.657-15.615 14.267-24.114-20.191-32.273-37.532-33.042-22.987 1.128-42.248 18.251-66.523 13.615-21.17-1.7363-45.59 23.547-62.634 7.2292-0.7361-13.794 39.463-25.428 9.9114-30.772-24.882-2.1904-50.648 19.398-74.286 4.9282-11.809-28.791 34.81-33.649 55.031-33.188 28.584-4.0305 54.999 10.936 83.438 8.625 11.769 0.37863 53.128 6.3101 29.375-11.125 0.49564-25.059-29.724-11.482-36.837-31.728-20.965 7.3651-45.067 2.4863-28.022-22.422-20.974-8.595-49.137 14.213-74.016 11.431-20.309 5.388-38.955-5.666-43.032-20.312h-131.12zm-12.719 56.5c17.158 10.269 35.223 14.741 52.75 25.75 19.711 12.606 46.198-5.6157 68.031 3.4375 13.008 19.916-31.405 12.725-43.122 12.098-23.084 0.46471-46.515 4.7294-69.472 0.58957-14.055-15.053-36.132-11.257-53.893-19.392-9.0161-22.721 35.253-9.6581 45.706-22.483z"/>
   <path d="m-150-165v91.66c6.0747 0.03049 11.607 2.9335 17.25 4.8218 6.187 1.0684 5.0176-6.5823 1.5904-9.1701-3.7329-5.3184-5.7558-11.739-6.2931-18.171 2.4322-4.2858 9.5206-1.0872 13.849-2.2194 12.767-1.3056 23.195-10.817 29.435-21.516 2.3812-4.3656-1.546-8.874-5.6361-10.151-5.3667-2.1977-11.044-3.9103-15.97-7.0156-4.1488-3.118-5.6042-8.6448-5.8474-13.628-1.1482-4.6684 0.18633-10.928 5.216-12.642 6.0604-0.91091 12.253-0.30277 18.363-0.40101 6.3273 1.988 13.004 1.2496 19.543 1.3392 6.2941-0.15515 12.74 0.66774 18.823-1.4124 3.8713-0.79359 9.4116-0.8657 12.363-1.4946h-102.69z"/>
   <path d="m473.66 509.16c-9.5647 0.02986-16.164 8.415-20.998 15.667-6.153 7.0498 0.0938 20.429 9.7847 16.47 5.2974-2.0751 11.793-5.0812 17.374-2.6553 2.8795 5.2061-1.5812 12.231-0.16061 18.236 0.85422 8.5611 10.951 4.6694 13.062 1.2188 5.2459 5.2966 12.78 7.3545 20.082 6.6242 4.4177-0.15426 17.814-4.5878 12.153 4.3116-4.2883 6.5693-13.849 7.7318-17.204 15.064-3.8128 8.3966 8.0338 11.209 7.6562 18.281-2.4847 5.9105-5.1833 11.92-4.842 18.519 0.29554 3.9155-5.8752 13.359-0.56426 14.106h90v-110.47c-6.4416 6.9981-16.044 10.317-25.33 10.978-8.1329-1.0536-16.395-1.0371-24.398 0.92193-5.4885 0.30492-10.989 6.2136-15.366 0.22462-2.3695-5.3284-7.2893-10.042-8.4062-15.5 6.1725 0.07285 11.877-9.8704 2.7086-10.081-8.0082 1.1206-15.461 5.2412-23.74 4.8936-7.1094-0.18251-14.726 4.9327-20.633-1.9063-3.1647-2.6791-6.881-4.9758-11.179-4.9062z"/>
   <path d="m510-165c-1.1544 4.3008 2.7358 6.9828 6.6567 6.9697 4.7641 0.57925 8.2941-3.1463 11.531-6.0322-2.6688 3.421-5.7825 6.447-8.5312 9.7812-3.5347 4.2703-3.31 10.682 0.04073 14.981 2.098 4.6403 7.0014 7.3743 9.0994 11.795-1.0276 3.2319-4.5795 5.8051-4.0087 9.7666-0.1565 3.5892-0.50845 7.8374 2.7826 10.241 4.1396 2.4215 6.8024 7.6033 11.898 8.0905 5.5771-1.5136 11.245-4.0252 17.187-2.1261 5.0452-1.3315 10.36 1.0592 15.219-1.071 3.8304-2.8817 11.579-3.4048 9.4384 3.5489-1.5163 5.4162-7.806 6.4411-12.638 6.032-5.0416 0.32793-9.8961 2.0628-14.968 2.2006-5.3979 0.69475-6.5361 8.0165-3.9864 11.953 2.7157 4.0108 6.8979 7.9019 11.926 8.2425 3.5617-1.0346 6.3703-4.2151 10.331-4.1676 4.6627-0.56888 9.3079 0.05634 13.785 1.3932 4.7016 1.0082 9.5287 0.51799 14.239-0.09906v-91.5h-90z"/>
   <path transform="translate(-150,-165)" d="m447.22 774.28c-1.2945 0.01371-2.5682 0.10791-3.8125 0.34375-2.7162 0.44977-5.4 0.93991-7.9688 1.75-2.6531 0.68598-5.4118 1.2075-8.25 1.1562-2.6351 0.13218-5.2052 0.47342-7.8438 0.1875-2.4865-0.03225-4.9296 0.0168-7.3438 0.40625-2.5219 0.41883-5.028 0.73938-7.5938 0.59375-2.2255 0.03938-4.4612 0.09195-6.6562 0.5-1.9919 0.44401-3.9092 1.1702-5.9062 1.5938-9.9212 3.6304-20.131 7.5074-21.844 19.188h35.094c0.30202-1.2402 0.82218-2.4031 1.7812-3.375 1.8163-1.4872 3.8755-2.6158 6.0625-3.4688 2.3558-1.1174 4.7544-2.0674 7.1875-3 2.3175-0.8464 4.5287-2.0079 7-2.375 2.9616-0.75996 5.9256-1.6026 8.875-2.4062 2.9009-0.5965 5.8378-1.1631 8.7812-1.7812 2.8448-0.59744 5.8594-0.67145 8.7812-1.0938 2.4402-0.13528 4.8031-0.40993 7.3125-0.34375 2.5708 0.21505 5.0658 0.10073 7.5938 0.15625 2.4751 0.05436 4.934 0.16171 7.4062 0.4375 2.3566-0.06293 4.3986-0.58364 6.2188-1.8438 1.3201-0.732 2.8258-1.5721 3.375-3.0625-0.18518-1.4854-3.1436-1.2646-4.1562-1.3125-2.2119 0.01468-4.4295 0.06674-6.625 0.40625-2.5313 0.25434-5.083-0.05524-7.6875-0.375-2.6348-0.32331-5.2773-0.7179-7.9375-1.0938-2.6346-0.38507-5.2634-0.77028-7.9062-1.0312-1.3147-0.10834-2.643-0.16996-3.9375-0.15625z"/>
   <path d="m-126.66 154.81c-6.3944 9.0157-11.636 20.395-23.344 23.5v166.69c10-10 8.894-25.98 23.067-28.813 9.6591-2.0742 20.159 10.921 28.921 5.3608 14.327-0.13921 15.121-16.806 15.102-27.552 1.0018-10.178-1.1825-30.963-16.049-25.346-6.6744 2.5824-16.305 12.835-18.034 0.00218-4.6164-12.906-10.132-25.864-12.202-39.431-0.46187-11.317 9.045-20.238 9.2572-31.815 1.4213-12.906 10.407-24.569 8-37.844-2.5787-4.4079-10.449-3.5124-14.719-4.75zm-23.344 230.19v75.25c9.2449-11.094 11.457-25.618 12.94-39.487-4.2198-13.87 17.06-35.763-12.94-35.763z"/>
  </g>
  <g fill="#758949">
   <path d="m-19.092 152.66c3.9979 0.10818 4.9355 5.4431 4.4453 8.7452-0.66268 4.4644-4.0757 7.8807-8.3203 9.411-2.7157 0.97911-9.7748 1.144-7.794 5.4275 1.66 3.5898 5.7573 4.7899 8.5228 7.4841 2.633 2.5651 2.1989 6.6382-0.44746 8.6064-3.3003 2.4546-6.1134 5.5231-9.4542 7.8794-3.1454 2.2184-7.0648 2.7496-10.483 4.6338-3.5488 1.956-4.2037 4.9514-3.0473 8.6134 1.5377 4.8696 2.283 10.182 1.4848 15.449-0.64818 4.2772-2.8662 7.8586-4.9593 11.404-2.23 3.7772-6.4579 2.2007-6.7707-2.2328-0.45022-6.3798-2.0359-12.967-1.1763-19.483 0.45888-3.4785 0.98101-9.7209-2.5808-10.882-4.7333-1.5426-9.9448 2.999-15.01 0.73993-4.2894-1.913-6.106-7.2471-2.1835-10.468 3.1425-2.5808 6.9752-3.4303 10.556-5.046 4.0562-1.8303 4.713-5.4125 4.4269-9.2126-0.35367-4.6978-1.8393-9.2483-4.3592-13.156-2.243-3.4779 0.66953-6.6932 3.4121-8.6188 3.1584-2.2176 6.1193-4.8115 9.5046-6.6967 3.2504-1.8101 7.04-2.1912 10.484-1.3788 3.2177 0.75889 6.4979 1.352 9.7443 1.8707 3.457 0.55232 7.006 0.36075 10.1-1.1207 1.3051-0.625 2.3933-2.0097 3.9062-1.9688z"/>
   <path d="m233.78 202.07c-3.2799-0.10338-6.7485 7.2481-6.25 10.844 1.0443 7.5327 1.3973 15.962 6.6563 21.781 1.423 1.5745 3.2963 2.8909 4.25 4.7188 2.1456 4.1124-8.4942 6.9433-12.219 9.2812-7.8409 4.9219-12.071 15.7-21.219 18.062-7.9629 2.0561-13.713-8.0227-21.906-7-6.1312 0.76533-14.411-0.9437-17.688 6.4375-1.9658 4.429-0.79242 17.402 4.5626 8.3125 3.6117-6.1307 21.486-7.0834 20.281 3.7812-1.0556 9.5231-13.131 4.1986-18.719 8.1562-3.8531 2.729-8.4044 11.04-0.5624 8.7188 5.333-1.5786 10.16 6.5934 17.344 4.625 5.7046-1.563 11.589-10.043 16.312-4.5 4.3582 5.1138 16.304 5.5402 12.031 14.062-3.1909 6.3651-8.7122 13.22-6.625 20.625 1.8814 6.6746 12.596-3.1359 14.625-7.2188 3.4014-6.8429 8.6857-10.191 15.5-11.875 6.5232-1.6124 10.754-13.032 18.281-8.5 3.5856 2.1587 6.753 1.6294 3.0937-2.75-4.6919-5.6151-12.217-4.4091-18.312-4.9375-7.1394-0.61883-8.6105-9.9898-13.813-12.312-3.1646-1.413-13.63 0.02276-7.7812-4.9062 5.1283-4.322 8.6936-10.057 14-14.312 5.606-4.4953 10.958-11.802 18.656-10.781 7.8393 1.0391 13.178-6.3958 20.625-5.9375 6.7856 0.41757 13.509 3.7516 18.344 9.4688 7.0358 8.3191 10.76 20.635 6.1875 31.281-3.0141 7.0176-6.841 13.384-12.156 18.062-4.0835 3.5945-7.8168 15.974 0.5 13.719 5.8722-1.5921 10.54-6.3018 15.5-9.7812 5.216-3.6587 10.054-13.954 13.531-14.469 3.0321-0.4488 2.0971 8.3954 5.4375 14.094 3.655 6.2349 13.971-4.7437 15.906-2.5938 1.935 2.15-6.881 3.4314-3.6562 12.031 3.225 8.5999 15.488-6.8552 21.938-18.25s0.5499-15.707-3.25-21.312-6.2026-5.3591-1.9375-10 21.51-1.809 23.875-10c2.3649-8.191-18.122-11.589-33.531-10-13.538 1.3958-21.699 11.945-30.219 10.062-3.332-0.73632-3.1359-7.1894-4.8438-10.781-3.2368-6.807-8.438-13.366-15.187-16.344-8.2217-3.6272-18.35 2.5638-26.063-4.125-4.8663-4.2202-12.019-3.8317-17.281-6.8438-5.7237-3.2764-9.7954-9.5742-11.688-16.469-0.42925-1.5641-1.6129-2.096-2.5313-2.125z"/>
   <path d="m-130-165c-20.708 10.3 10.741 8.128 11.688 32.312 9.212 11.555 9.0505-5.8139 11.312-11.156 43.856-4.443-18.061 26.791 4.4688 48.188 8.6573 7.7836 25.927-1.141 19.906-12.688-2.406-11.791 7.3411-23.366 18.531-14 8.3563-8.6613-18.697-13.672-17.375-25.312 1.7584-16.7 12.477-6.3219 22.656-0.9375s17.091 31.685 27.705 19.88c8.1152-9.0261-17.647-27.771-5.4747-27.395 19.232 0.59361 39.5 18.171 53.716 25.485 4.3177 4.4675 34.437 16.731 22.867 19.893-14.661 9.8405-40.468 50.884-25.021 59.85 9.3704 5.4386 36.479 13.532 33.209-7.4915-0.75979-14.839-24.893-2.33-20.126-17.47 11.801-10.216 20.012-26.813 37.046-28.894 15.42 1.6785 23.025-12.115 34.048-19.168 13.794-6.2823 33.23-4.7387 36.891 12.883-1.7529 14.768 14.295 16.75 19.859 4.6166 7.7806-15.135-3.4398-30.649-19.686-30.653-15.437 0.1668-16.221-7.941-6.2205-27.941h-30c10 20 18.623 20-70.319 21.449-8.7889-2.7498-21.822-6.2405-29.056-8.3237-7.277-2.0956-20.625-13.125-0.625-13.125h-130z"/>
   <path d="m80.18-53.14c-21.135-3.1023-7.5466 11.308 9.6212 16.699 18.555 5.8267 42.91 0.75197 63.633-4.5544 27.156-6.9535 25.995 32.896-0.6986 28.939-14.373-2.1303-51.698 26.159-28.586 32.37 9.094 2.4442 25.021 10.743 7.088 9.509-24.615-1.694-48.271 5.2996-72.711 6.821-42.31 2.634-84.951 3.9545-126.85-3.032-23.795-3.9675-49.09 8.7004-59.485 28.439-12.949 24.59 23.779 12.465 36.835 8.0567 18.94-6.3959 38.385-14.207 58.212-9.0361 24.353 6.3516 44.702 22.414 70.328 25.604 22.826 2.8414 48.005-1.5504 65.372-13.1 13.284-8.834 26.057-12.313 25.476 8.301-0.48002 17.027 39.83-8.7394 43.152 19.356 2.3016 19.462-15.438 30.132-30.258 35.425-19.522 6.9719-18.649 35.915-1.0503 40.418 14.637 3.7451 51.593 23.709 49.138-3.7992-2.2828-25.575 19.504-34.778 35.802-48.038 19.711-16.037 42.983-7.6353 59.474 6.9897 12.467 11.057 16.52-1.3454 32.166 1.9293 18.962 3.9686-6.8377-14.192-9.0814-20.052-7.8907-20.607-35.471-14.706-52.71-21.285-11.756-4.4865-46.614-10.531-26.958-22.424 15.287-9.2493 40.919 0.71393 57.835 10.238 11.371 6.4016 31.11 11.398 26.406-8.1503-2.8373-11.791-2.2249-22.042-5.144-33.557-4.7112-18.583-47.01-6.847-69.635-10.056s18.5-11.386 0.3819-22.774c-8.5984-5.4042-38.303-4.5492-21.67-19.564 16.404-14.808 43.788-19.469 65.013-14.183 17.288 4.3062-29.791 23.002-3.8543 24.357 17.588 0.91908 35.989-9.0017 52.82-4.2503 12.171 3.4358 45.494-0.17734 30.765-11.32-12.599-9.5319-45.742 12.559-57.06 2.4096-11.642-10.441-19.822-22.296-38.771-19.767-14.377 1.919-50.025 1.1414-51.67-8.031-1.2188-6.7971 17.16-24.267-2.6428-17.081-29.155 10.579-56.709 3.2266-87.18 2.3721-13.616-0.38185-31.278 7.6137-43.502 5.8195z"/>
   <path d="m512.88-62.712c4.2951-0.76465 7.6764 2.3857 10.252 5.3787 2.363 3.1608 1.7573 7.8503-0.12724 11.121-3.018 5.4351-8.3938 9.3774-14.116 11.612-5.2161 1.2986-10.391 2.7381-15.777 3.1229-5.4484 0.7634-10.993 0.11348-16.451 0.95214-4.5966 0.4533-9.0839 1.9848-13.765 1.5048-5.5986-0.04984-11.132 1.0337-16.75 0.68288-7.8499-0.02505-15.937-0.36429-23.403 2.4824-3.8532 0.40147-8.6323 1.9854-11.838-0.92393-3.9854-1.9293-3.805-8.3315 0.62607-9.5501 4.7889-0.92188 9.5553 0.97955 14.387 0.46031 6.4072 0.10806 12.726-1.1806 19.086-1.5938 4.7955-1.5451 7.9482-4.2083 13.345-4.5734 4.9746-0.72988 9.6015-2.8768 14.593-3.5204 5.3205-1.253 10.293-3.5729 15.591-4.8859 8.3415-2.5679 14.594-9.2874 22.756-12.168 0.52303-0.11048 1.0598-0.09206 1.5904-0.10211z"/>
   <path d="m451-1.4616c5.9649-0.14126 12.672 3.4769 12.166 10.25 1.338 5.7426-3.0164 12.884 1.0213 17.719 9.7548 0.08136 3.3886 12.29-3.6554 9.0904-7.8857 0.67146-4.0283 11.301 3.0304 8.2846 5.8353 2.4995 12.946 0.33848 15.574-5.8467 0.76264-4.8314-9.116-12.908-1.0777-15.729 8.63-1.0969 8.9829 8.9838 10.628 14.763 4.0272 3.5955 9.867-0.65096 15.519 1.2901 7.6045 3.1945 14.022 9.2273 22.305 10.874 4.542 3.3692 16.865 0.40747 14.989 8.7105-0.08807 7.41-3.8663 13.465-8.8039 18.64-4.8094 6.0382-9.5696 12.145-12.931 19.149-5.949 9.2123-16.15 14.211-23.756 21.834-7.7465 3.3782-9.0187 12.646-0.85252 16.315 8.7334 7.3469 20.315 11.151 27.722 20.06 4.7603 3.9259-0.55336 6.6476-3.2529 2.5333-6.8083-3.4723-13.611-7.3493-20.938-9.6875-8.0144-1.4464-16.192-4.2946-21.571-10.761-6.0138-4.5735-14.218-0.06856-21.116-2.5032-8.1625-1.5548-16.465-0.88865-24.591 0.44215-5.9238 0.10664-14.072-1.118-16.94-6.9907-3.9156-8.187 5.5501-13.829 10.999-18.059 6.3693-3.7544 12.316-8.1678 18.619-12.004 6.2247-4.5583 0.12706-8.9634-5.2119-6.8749-7.9517-2.6025-18.981 6.1624-24.313-1.8124-3.0079-5.8818 1.5401-13.209 7.0138-15.707 7.4907-2.654 15.839-1.9682 23.142-5.4177 5.0686-1.8539 16.337-0.2593 14.967-8.4954-0.78754-8.0434-9.1548-9.9535-15.668-11.023-4.5226 0.09963-16.518-0.64667-14.019-6.898 4.6421-1.6844 15.494 0.12259 14.669-7.4934-0.28692-7.182-2.4298-13.483-7.9492-18.09-1.9816-6.3043 1.3114-13.866 8-15.594 2.0198-0.71174 4.1749-0.75615 6.2812-0.96875z"/>
   <path d="m120.75 286.17c-20.707-6.5165-40.724 6.695-58.16 16.278-15.894 7.7909-26.948 24.481-44.962 27.84-18.918 1.6409-29.291-24.312-48.988-18.21-16.009 1.3328-18.418 20.169-8.5903 30.237 7.4952 14.474 19.672 28.038 36.528 30.704 9.7125 5.5728 14.946 19.284 29.449 17.459 15.874-0.37758 32.389-2.7693 47.569 3.5843 18.313 5.9246 28.983 23.768 36.548 40.266 5.2482 12.034 5.598 34.276 21.765 35.821 7.7095-10.337 19.871-15.136 30.528-5.0409 22.251 12.156 47.499 27.722 73.833 20.365 16.73-8.2326-7.7186-23.589-17.401-25.992-13.221-3.3471 11.058-3.7352 14.678-3.6511 17.617 1.334 35.196 4.2642 52.963 4.1142 18.034 5.1417 13.206-23.658 3.1609-29.504-17.276-10.934-36.194 0.96118-54.09 2.9773-23.688 3.5071-44.02-12.771-61.683-26.228-11.623-4.591-8.9146-14.608 2.0694-18.148 16.791-8.6194-9.2788-21.331-18.62-20.234-13.102 5.0833-26.992 4.66-39.396-2.402-8.9201-5.814-29.187-8.3348-25.03-22.635 5.7118-15.629 23.447-14.982 35.227-7.1586 13.712 5.5064 4.4938-17.938-6.5353-15.966-8.2805-2.7438-31.653 3.1748-21.984-7.7056s27.119 3.5364 40.499 4.9824c12.01-6.0904-16.95-16.137-22.357-18.721-14.085-3.4095-6.7672-7.2242 4.3973-6.852 2.5914-1.8315 1.745-5.5439-1.4176-6.1793z"/>
   <path d="m562.1 205.85c8.446 0.3743 17.003-0.62415 25.376 0.54046 7.7876 2.0856 1.7663 11.302-3.5243 12.481-8.6906 3.8363-18.367 3.8552-27.539 5.8227-9.0138 2.0826-18.307 3.323-26.875 6.9688-3.3992 0.54061-13.906 2.5594-7.0317 6.6894 5.4363 4.2278 2.7426 11.944-0.9837 16.328-4.3228 5.1005-11.864 5.6931-18.12 5.8502-7.1111 0.56306-16.401-4.9464-21.139-0.45079-3.0794 4.0392-7.9808 9.346-13.627 7.3639-6.7298-2.8745-2.8839-10.841-0.25523-15.304 3.0588-7.5452 18.773-5.4278 26.156-10.633 3.3019-2.9984 9.1108-9.0841 3.2557-12.619-3.9763-0.60438-12.407-4.5432-6.4299-8.7943 6.5838-1.7298 12.823-5.2857 19.893-4.2133 7.5344 0.66967 14.871-1.2636 21.865-3.8796 6.3037-1.915 12.914-2.5367 19.185-4.6206 3.2416-0.63803 6.5206-1.0974 9.7939-1.5298z"/>
   <path d="m473.94 414.66c14.958 1.5632 5.1593 18.411-5.0625 19.344-4.9369 0.26214-15.516 8.6684-4.4375 4.7188 7.8131-3.0011 20.856-2.1748 19.156 8.875 11.367-1.501 20.509-12.526 33.219-11.375 10.83-1.5279 23.634 3.2786 33.045-2.9867 6.6129-9.9748 20.33-8.7826 17.361 5.018 9.0028 6.6804 11.488 19.43-0.87544 24.248-10.68 6.7737-23.959 6.7408-36.062 9.0332-15.409 2.8854-30.747 6.1503-46.124 9.0774-11.187 3.0897-22.921 3.2474-34.024 6.6998-8.836 0.88881-22.109 17.034-13.158 23.041 11.764 0.2498 23.062-6.3198 35.056-4.7242 9.7069-4.6183 20.04-4.0815 30.29-2.0679 4.1951 5.0473 9.5435 9.5942 17.448 6.4649 10.406-0.77157 20.947 0.27294 31.261-0.8085 8.8923-3.8354 25.136-2.475 19.47 11.099-2.542 8.9056-12.495 10.664-20.472 10.612-11.824-2.7944-24.014-3.4079-36.061-4.9224-11.082 1.5751-22.196 0.36653-33.286 1.116-12.159-1.967-21.691 9.8929-9.44 17.775 10.018 12.533-11.908 16.242-20.53 16.545-10.442 0.40482-20.972 2.0225-31.378 1.3483-10.877-6.5469 5.5882-20.748-5.0524-26.63-10.882-5.1582-23.22-0.11804-34.721-0.54907-13.18 0.88271-26.559 0.39484-39.516-2.0283-7.0472-2.8213-23.845-6.4034-15.542-16.695 7.6742-8.7663 19.731-7.6951 28.106-0.57464 8.5532 3.4019 8.1917-13.679 18.709-11.192 11.523-1.9226 23.741 0.59163 34.659-4.5337 11.981-1.6828 21.378-14.288 9.8045-23.459-1.6492-8.9439-4.0947-22.59 9.3189-22.246 6.5672 0.01994 15.591-9.5301 4.1161-7.0741-7.0571-7.0599 9.513-14.835 14.59-19.464 7.95-8.072 18.614-13.705 30.131-13.684v1e-5z"/>
   <path d="m275.18 501.89c5.9373-1.4444 12.132-1.9839 18.161-0.76071 2.3817 0.92883 4.2841 1.6956 4.5575 4.4688 0.68254 1.0398 2.005 5.73 1.0194 9-1.7035 5.6604-7.5675 8.1166-12.623 9.9878-5.2496 2.4154-11.214 2.7337-16.8 1.4671-6.4082-1.6808-12.639 1.1011-18.714 2.7806-5.65 0.87989-12.09-0.73943-16.955 3.0589-4.4528 2.8216-10.134 1.2111-14.757-0.49254-4.1813-1.3041-8.5847 0.19378-12.889-0.36395-3.7332-0.19021-7.5523-1.0096-10.687-3.138-4.5068-0.65123-7.6125-5.5413-7.828-9.7961-1.244-4.6344 0.68751-9.1424 5.6705-10.028 5.3439-3.0843 11.207-6.3971 17.591-5.8981 6.1097 1.8686 12.145-3.2182 18.106-1.6567 29.077 7.6172 30.505 3.0846 46.149 1.3713z"/>
   <path d="m90.908 421.85c12.205 0.1725 10.886 18.535 1.8136 22.491-8.6291 3.7631-16.039 10.083-17.932 19.906-2.554 13.255 14.367 8.9671 17.38 18.283 2.3674 7.3212 6.1211 20.801-2.5519 23.747-9.3856 3.1889-16.935 7.8301-20.533 17.398-3.0232 8.0377 1.8701 16.728 5.2509 23.788 3.4758 7.2589-2.0343 12.845-7.3454 15.751-3.4996 1.9152-1.1229 11.387 3.5488 4.303 6.8722-10.421 12.557 10.865 11.226 17.794-0.99575 5.1857-8.1552 3.3583-11.544 4.5381-4.9716 1.7307 3.0419 16.684 7.0292 23.767 5.0584 8.9864-5.9248 21.471-15.104 20.452-10.135-1.1252-10.722-15.492-11.429-23.791-0.86072-10.09-6.4671-18.702-7.6549-28.442-1.4221-11.661-12.067-15.559-20.23-21.231-9.0775-6.3077-5.7555-21.338 4.321-25.308 5.1394-2.0245 22.088-6.1556 15.92-10.056-4.2553-2.6909-16.455 3.4543-16.707-7.252-0.24826-10.515-14.962-3.8144-22.128-3.3146-8.5711 0.59777-26.009-2.8651-20.392-14.107 5.315-10.637 20.21-8.5381 30.735-8.6335 11.824-0.10715 23.934 1.391 35.555-1.4054 11.005-2.648 13.703-13.61 15.28-23.435 1.8155-11.31 5.7875-22.295 9.562-33.148 2.4221-6.9646 8.1996-12.206 15.93-12.096z"/>
   <path d="m-79.875 564.19c-3.9507 10.512 8.044 21.984 12.156 31.875 8.7392 10.522 0.42583 17.848-11.556 18.712s-16.227 2.451-25.728 5.1103c-9.4296 2.6393-14.997 5.1151-24.997 15.115h135.08c17.231 0 33.799-24.81 14.642-23.458s-29.952-4.9259-41.884 4.9835c-8.3972 8.4949-19.072-4.3146-26.646-8.9942-3.8076-15.88-19.902-23.548-27.219-37.531-1.4107-1.7444-1.2703-5.1925-3.8438-5.8125zm229.88 38.94c6.4701 19.811-60 11.873-50 31.873h30c10-20 32.173-11.424 43.255-7.2596 12.856 4.8315 24.896 7.2596 42.028 6.5263 12.803-0.54792 33.112-4.709 35.06-12.923 2.0468-8.6274-25.035-6.5277-37.268-8.7731-14.164-2.5998-28.365 3.0014-42.235 0.3017-4.8184-0.93785-16.522-25.896-24.353-21.453-7.7638 4.4047 2.2541 7.8572 3.5119 11.708z"/>
   <path transform="translate(-150,-165)" d="m690.84 420.5c-4.1361-0.00762-7.3193 2.2297-7.5625 7.6875 7.7127 8.6275 4.1129 24.298 17 29.188 11.957 6.0065 15.815 20.782 9.7812 33.375-2.5975 14.32-19.409 17.211-30.031 24.531-12.287 5.6482-19.794 19.98-34.625 19.844-14.748 4.3829-26.557-8.4183-33.125-19.906-6.7284-14.703 8.0777-32.224 14.625-40.438s18.622-27.72 4.7188-19.188-24.184 0.93585-20.562-10.781-6.7098-23.304-7.6875-6.4688-11.894 32.068-20.344 46.781c-9.1996 11.797-24.27 16.727-33.844 28.219-10.623 8.6902-24.863 10.848-36.906 17.062-13.817 7.2503-18.927 26.188-12.531 39.969 12.135 13.336 28.217 22.984 37.938 38.594 6.4443 7.3818 23.507 13.901 30.469 8.1875-3.377-16.488-20.687-23.75-32.438-31s-27.045-27.662-9.0625-29.781 29.567 11.099 39.812 15.438 26.314 11.057 16.656-3.7188c-4.2503-9.1846-31.902-17.805-14.281-28.094 14.677 0.38481 28.782 6.705 40.719 15.031 13.518 8.6764 31.58 8.9043 42.562 21.719 14.801 13.457 29.088 27.649 45.719 38.875 16.121 20.56 32.156 24.375 52.156 14.375v-60c-20 10-40.817-1.9124-61.406 1.75-21.46 0.57519-9.0408-22.642-0.34375-31.062 17.367-25.618 42.53-31.253 61.75-40.688v-20c-20 10-30.893-30.366-38.688-42.156-1.1781-9.1952-12.573-17.329-20.469-17.344z"/>
   <path transform="translate(-150,-165)" d="m55.594 464.06c-7.4026 0.10095-9.5577 1.4106-19.156 3.0312s-16.314 2.8988-36.438 12.906v20c20-10 31.41-20.865 68.156-18 17.093 1.7168 34.333 6.4689 46.688 13.188s17.999-7.8741 4.5938-12.156-28.233-11.07-39.062-14.438-17.379-4.6322-24.781-4.5312zm-55.594 105.94v60c20-10 38.563-14.208 57.75-21.781 8.2941-3.6706 12.927-12.019 5.625-24.625-6.3828-9.4826-43.375-23.594-63.375-13.594z"/>
  </g>
  <g transform="translate(0 .094839)" fill="#17181f">
   <path d="m44.4702,84.28841c-.4522.41476-.8683.85984-1.1876,1.40625-.0716.11312-.1095.23486-.1874.34375-.049.06849-.1244.13169-.1876.1875 .4914.03941.5479.19449.6563-.1875 .2129-.63682.5488-1.19287.9063-1.75z" opacity=".6"/>
   <path d="m435.3139,39.97591c.3041-.03194.6032-.08054.9063-.125-.0731-.14917-.2527-.32283-.3438-.25-.1939.15507-.0848.11083-.25.25-.1004.04932-.209.08262-.3125.125z"/>
   <path d="m569.3764,220.56966c.3054-.32774.6138-.64465.9688-.875-.7951.17844-1.1498-1.14802-1,.34375 .0044.17614.0237.35427.0312.53125z"/>
   <path d="m-40.7798,446.38216c-.1905.03755.0828.04826.2187,0-.0728.00394-.1488-.0138-.2187,0z"/>
   <path d="m417.38 581.88c-6.4831 1.0712-13.102 1.8771-19.651 0.89771-4.8494-0.26287-10.201-0.02655-14.167 3.1224-3.3234 2.2479-7.4431 4.0326-11.488 2.8159-4.1591-0.26016-8.4526 1.2205-11.407 4.1952-2.3971 0.68238-3.5305 3.7524-1.9626 5.7436 1.3491 2.3451 4.1963 2.0098 6.4209 2.6843 2.7326 0.77686 6.1639 2.9343 5.4557 6.2427-1.022 3.0035-4.6819 3.2425-7.3512 3.6338-2.3166 0.49103-4.3929 1.3156-6.7952 1.2703-3.0435-0.0436-4.896 3.3184-2.3657 5.4754 1.8874 3.1246 6.0605 2.844 9.2152 2.5524 6.532-0.91276 13.327-1.352 19.379-4.2023 2.8767-1.259 4.8084-3.931 7.703-5.195 4.286-2.391 9.3656-2.8318 14.123-1.8807 3.9668 0.50058 8.6729 0.84541 11.853-2.0223 1.8797-3.0154-0.00236-8.2268-3.8084-8.4403-3.2078 0.31328-6.4718 0.46778-9.6444 1.1955-2.3731 0.20867-5.0873 1.6494-7.2353 0.00339-2.3493-1.6346-2.6009-5.8873 0.30656-7.0879 4.7915-1.8373 9.6695-3.6282 14.814-4.1121 3.2144-0.54877 7.3258-0.69858 9.0647-3.9583 0.70638-1.665-1.6637-2.1214-2.4596-2.9336z"/>
   <path d="m355.75 406.94c-3.1146 0.34112-6.0874 28.225 4.6428 33.414s20.833 7.2283 27.451 19.054 11.923 25.029-2 30.375-24.446 12.71-38.25 12.469c-12.267-4.0411-29.315-13.25-29.075-28.093-2.2206-6.424 5.2526-27.662-4.3413-25.451-2.2767 13.721-7.495 26.687-8.6127 40.778-1.2725 16.373-17.27 22.47-26.658 33.484-11 8.2142-19.547 20.651-22.125 34.25-7.5078 10.327-14.891 22.04-11.688 35.781 1.2243 14.02 2.7735 28.042-0.84124 41.905h13.294c6.6624-14.863-5.6657-28.925 1.86-42.343 2.9048-9.1064 11.055-14.339 12.188-1.5625 11.097 12.151-14.757 22.889-2.4259 32.859 3.4708 2.4856 9.717 8.1165 12.891 11.046h11.381c-8.4609-11.423-13.671-16.295-10.783-24.436 4.6877-14.96-2.5241-28.726-4.8125-42.938 2.1045-12.348 10.239-20.044 23.062-19.156 7.4453-1.0716 17.742-13.569 17.969-12.938-1.9036 8.8784-9.9491 24.339-0.09375 29.875 4.5709-4.2886 2.7287-27.642 10.031-21.219 5.364 8.1896 9.8363 22.108 20.281 23.5 5.6329-8.3428-13.171-21.669-7.8125-26.562 5.5119 4.2297 27.387 19.682 22.065 4.1374-7.6019-6.418-13.358-19.223 0.8102-21.512 7.6865-13.762 25.859-4.0996 35.914-11.771 10.697-8.1607 29.287-11.724 26.805-30.667s18.176-22.537 33.583-19.741c16.139 2.9295 32.515-0.00877 47.729-3.478 14.181-3.2337 34.037-5.396 42-14.281s13.78-12.154 11.406-17.375-11.987 0.74257-22.562-5.2188-12.727 15.598-43.438 12.75c-30.729-2.8494-55.979 16.1-80.509 11.958-16.465-2.7801-28.141-12.554-33.875-16.594-5.597-3.9426-22.345-22.643-25.46-22.302z"/>
   <path d="m-26.717 185.82c3.3333-2.7126 12.363 5.0762 10.75 11.375-1.7156 6.699-8.3507 10.531-13.719 14.438-4.6302 3.3694-9.7875 13.774-5.0625 14.531 4.3811 0.70191 11.392-6.4167 15.751-11.011 3.5075-3.6966 9.5204-6.114 13.494-2.0603 4.7871 4.8836-0.84012 10.648-4.8881 13.803-4.9957 3.8934-9.115 9.2799-11.239 15.464-2.1802 6.3494 2.5294 10.964 6.1963 15.209 4.3239 5.0056 10.987 9.3899 12.37 15.562 1.4176 6.3264-9.4038 2.6007-13.341 5.8151-6.2603 5.1108 4.6855 2.8847 7.6562 2.9375 4.9099 0.08724 1.9651 8.3809 9.0024 6.0572 5.5493-1.8324 10.84-4.7551 16.453-5.9152 8.1906-1.6926 0.71931 8.811-3.2427 10.722-4.0956 1.9754-13.136 3.8791-12.338 7.1672 1.5212 6.2665 9.9752 11.398 12.626 18.441 2.0336 5.4045 11.511 10.478 8.6245 14.559-3.0722 4.3435-10.733-5.7981-15.594-8.8125-9.6254-5.9697-20.491-11.154-27.375-20.849-3.7972-5.3478 1.8951-13.208-2.9485-15.926-4.5367-2.5464-6.1918-7.3681-10.2-9.129-4.4961-1.9751-12.042 1.3589-13.247-6.2399-0.89448-5.6433-1.3694-11.674-4.3181-16.657-3.0842-5.2115-5.1492-10.83-6.7187-16.61-1.879-6.9198 6.3797-10.068 5.7797-16.746-0.57573-6.4083-0.99416-13.102 0.15185-19.406 1.0624-5.844 8.9547-6.0761 12.563-10.312 3.7405-4.3921 8.6179-2.9928 12.812-6.4062z"/>
   <path d="m55.876 52.195c8.5188-0.85379 6.664 11.716 2.2641 15.532-3.9058 5.6387-8.9147 10.41-13.046 15.823 4.3133-2.6457 11.406-5.9622 16.288-1.7934 3.1216 5.4751 1.6844 12.777 2.2633 19.022-0.38559 9.1661 0.16234 20.3-7.7497 26.646-6.9301 2.9844-13.873 6.8079-17.926 13.521-5.1655 5.1347-4.4949 14.973-12.172 17.684-6.1387 2.5698-9.6819 8.3492-14.639 12.367-4.4154 4.2603-15.56 4.825-12.587-4.0423 3.6227-6.6932 0.30587-15.514-8.3423-13.616-8.1484-0.09547-13.436 8.5201-21.768 7.19-7.4802-2.8969-15.574-3.0188-23.335-0.56898-5.0048-0.21519-13.437 10.059-15.436 1.4526-1.3551-8.4987-2.9607-17.043-4.3045-25.482 0.29148-6.5135 7.1097-5.0312 7.1659 0.67096 0.22828 3.3308-1.3355 15.329 4.4909 8.9875 4.9606-4.3983-0.05159-14.856 5.3802-16.878 5.0847 4.9198 2.1732 13.24 4.9854 19.108 4.4571 6.5963 12.514 0.8019 18.821 2.7508 7.3232 1.5532 14.145-1.2894 19.759-5.7817 6.1515-2.2171 2.8325-6.8034 1.1667-10.611 1.8899-5.3299 14.722-5.1992 8.6026-13.531-3.8625-4.7151-14.822-12.911-7.0844-18.615 9.3925-2.1762 4.8632 12.139 13.237 12.149 9.3285 0.02079 8.8794-11.274 6.4014-17.541-0.63086-5.5806 2.0766-15.747 8.948-15.019 4.9394 4.4-1.724 13.668 4.1465 17.42 1.654-7.4914 0.42488-15.923 5.7362-22.25 5.4502-8.9283 13.829-15.308 21.74-21.883 2.0569-1.458 4.4441-2.5638 6.9931-2.7106z"/>
   <path d="m312.75 36.82c4.461-0.15392 10.871-0.14471 12.618 4.9114 0.47934 5.1314 0.12701 10.621 2.6631 15.307 3.2062 2.0792 7.2403-5.8351 11.805-3.4722 4.4386 1.3163 6.0685 6.7958 5.7932 10.981 0.17396 5.5032-5.5343 7.099-9.2896 9.58-5.2729 2.1008-1.6658 8.8213 2.9728 8.0988 4.7388-2.0654 12.693 4.6108 7.777 8.8348-4.0015 2.4623-3.8499 10.855 2.4105 8.134 4.9586-1.2745 10.391-1.5086 14.831 1.4591 4.568 1.0593 9.5405 4.4317 14.154 1.8229 3.7434-2.7394 7.9303-4.1033 12.563-4.1059 6.1567-0.95871 7.8979-7.781 10.607-12.4 0.70924-3.8849 7.9999-7.7184 7.657-1.4638-1.8938 6.3977-6.9656 11.431-12.481 14.936-2.6871 0.79317-6.7745 6.3907-1.2304 4.8997 3.1191-1.8626 10.591-0.11995 5.7079 3.8976-5.1214 3.0986-11.318 3.7195-17.028 1.9547-5.0065-5.1564-8.8149 2.7244-14.013 2.2501-5.3965-2.9369-9.2014 1.8267-13.618 3.9824-5.2858 3.188-11.051-0.16925-15.049-3.7981-4.5235-2.8493-4.7925-9.4879-8.8154-12.101-4.1308-2.1168-9.4922-2.3117-12.81-5.6911-2.9119-4.7527-8.8062-7.0965-11.351-11.861-1.8353-4.4573 0.43293-9.9067-2.9549-13.763-3.7951-3.4564-5.7449-8.5049-6.4673-13.467 0.18114-6.3501 2.5657-13.16 7.766-17.083 1.755-1.0515 3.7269-1.7526 5.7812-1.8438z"/>
   <path d="m124.56 61.382c4.0016 0.09242 7.6336 3.1913 9.2221 6.6932 1.0621 4.8174-3.1929 9.965-0.19707 14.533 3.3244 2.6207 8.9579 2.3441 12.686 0.25417 3.4154-1.846 6.237-5.1192 10.422-5.1289 4.3337-0.98075 8.1618 2.0898 9.8584 5.8515 2.7458 4.1689 5.0374 8.7308 5.725 13.724 2.5562 5.8932 2.4666 13.265-1.848 18.333-2.9526 4.5287-5.1288 9.5927-9.0209 13.476-4.1562 3.9263-3.8188 10.32-6.8126 14.886-4.6286 4.8447-5.0828-4.1533-3.3472-7.022 1.5851-3.3459 1.5662-10.995-3.7508-9.9284-5.3608 2.9695-4.3991-5.0316-0.30382-5.9727 5.4833-4.2258 11.217-8.7921 14.346-15.109 1.0584-3.5639 1.6281-10.435-3.689-10.521-4.0372-0.0824-8.8788-2.6625-12.386 0.34337-4.1231 2.9553-3.8233 8.1545-6.056 12.189-2.6196 3.6168-8.5799 3.5038-9.5348 8.7737-0.72711 3.8417-5.9776 11.188-9.3467 5.7228-1.908-2.9751 0.96789-6.8792 1.9092-8.0665-3.9892 0.83135-6.6164-3.833-1.5313-4.5938 4.3758-1.8379 9.8644-2.4626 12.387-7.0473 2.2896-3.0675 2.7223-9.7367-2.6836-9.3084-5.0707 0.53713-10.396 2.7495-12.933 7.4504-3.2598 3.9228-3.8136 11.153-9.3959 12.405-5.9359-1.318-2.3726-8.5809-0.56282-12.152 2.3908-5.4984 7.0997-9.668 12.563-11.973 3.2162-4.0525-2.5291-8.5323-6.5937-7.375-4.5936 1.6771-8.9572 4.1172-12.875 7.0312-4.9817 4.4792-9.9149 9.0284-14.101 14.29-3.2668 2.9667-8.7594 11.77-13.024 6.4287 0.07563-4.9702 5.2798-8.399 9.1974-10.74 2.475-3.2085 5.5488-6.2313 8.7145-9.0238 3.448-1.9706 1.9822-3.9322-1.4117-3.2975-4.6147-0.75212-8.693 1.4546-12.549 3.679-3.1692 1.988-11.183 5.4297-11.045-1.0551 1.9234-5.8045 8.7029-7.8979 14.219-8.4375 6.468-3.3153 13.533-5.6931 19.688-9.6562 5.8191-4.968 13.034-8.0031 20.532-9.3221 1.1486-0.31398 2.3494-0.31085 3.5302-0.33417z"/>
   <path d="m600 65c-5.7756 0.53189-9.8088 2.9731-14.781 4.2188-4.9158 1.5264-9.7882 3.3243-14.159 6.1219-6.9842 3.5822-14.937 4.8632-21.81 8.7531-4.6564 2.5761-9.6203 4.4884-14.769 5.7854-4.7193 1.2918-8.7192 5.2429-9.0644 10.28-0.49393 4.6391 0.19449 10.859 5.3963 12.497 6.2629 2.9776 13.422 6.8347 15.25 14.094 1.444 5.5099-4.7402 7.0437-8.9277 6.3775-4.4015 0.44747-10.453 1.918-11.697 6.8412 1.5079 4.7328 7.6212 2.6796 11.406 3.125 5.9511 0.05633 12.796-1.6415 17.842 2.4695-0.40504 4.9922-6.5581 7.5575-10.279 10.343-4.8123 2.6234-3.3783 8.6958-3.75 13.188-1.2134 4.8259-9.3633 9.6953-5.2459 14.89 4.2393 2.1346 9.3978 0.34406 13.317-1.765 4.2978-3.459 3.2546-9.5026 4.9199-14.237 1.1461-4.1237 1.4288-9.868 6.3356-11.267 4.3224-3.4064 9.4134-5.6371 14.706-7.0224 5.0204-2.3173 7.742-7.2021 10.499-11.693 2.122-3.5192 1.7133-8.9798 6.4811-6.2147 3.0088 1.5292 4.8653 0.93899 8.3314 0.75269v-18.038c-5.5938 1.7481-11.286 3.9797-17.26 3.0734-4.6009-0.44978-9.4725 0.49666-13.624-2.1157-2.8022-1.0034-8.9333-4.5674-3.199-6.3846 6.1769-1.8337 12.822 0.18005 19.052-1.6044 3.2212 0.33256 10.728-2.7112 5.3329-5.795-3.193-2.9122-10.207 2.2444-9.4266-4.1738 1.9927-5.0338 12.427 0.39579 10.179-7.4302-3.4992-4.3205-9.087 1.114-13.313 1.3396-4 1.626-4.4286 7.1357-8.8778 8.412-4.468 1.4161-11.228 2.4102-14.301-1.9776 0.41168-4.8473 6.0611-6.8824 9.4574-9.5848 5.0219-2.5888 9.9975-5.5456 15.64-6.5444 4.095-1.4362 7.8226-3.7385 11.778-5.3708 2.9132-0.4605 4.1373-0.40396 8.5625-1.0426v-10.301z"/>
   <path d="m206 403.16c2.3712-2.7229 6.8442-1.8677 9.9494-3.4576 3.9934-1.157 8.3535-1.9901 11.277-5.2053 3.4674-2.1197 3.6244-5.9354 2.6936-9.4949 1.2281-4.9306 2.4892-9.9121 3.4198-14.93 1.8556-4.9344 4.4478-9.7275 4.8014-15.081-0.06622-3.4599 2.9616-7.333 6.6299-6.0635 3.1704 2.6722 3.4228 7.2053 4.2692 11.005-0.08906 3.6391 0.00688 7.356-0.50846 10.968-1.3988 4.3922-4.0703 8.4441-4.5442 13.082 0.18857 4.1468 5.2114 2.8297 7.6249 1.6718 4.1224-0.47797 8.2618-0.64332 12.368-1.2979 5.2104-0.72957 10.761-1.4386 15.752 0.67464 4.192 1.5044 8.6418 2.1195 12.694 4.024 4.3635 0.36505 2.8983 4.2022-0.52558 4.4963-4.683 0.83928-9.4221 1.2575-14.117 2.0725-4.0343 0.71204-7.8616 2.4148-12.022 2.324-6.8045 0.325-13.629 0.20897-20.42-0.34235-3.7666 1.001-4.6396 5.8892-8.2214 7.5726-2.3068 3.4956-6.6144 3.9675-10.436 4.0171-5.7524 0.36122-12.302 2.2144-17.412-1.3894-1.475-1.1004-3.4209-2.6013-3.272-4.646z"/>
   <path d="m332.85 139.48c14.742-8.4855 20.919 10.154 9.5 18.656-7.317 8.2038-9.5784 21.748-5.0626 31.469 3.741-11.303 9.1306-26.929 23.347-27.224 11.163-0.35126 22.308-19.738 33.028-8.0884 3.4617 5.4337 20.769 7.7619 10.031 15.938-7.1704 4.3935-23.701 13.334-19.312 22.188 9.3173-2.2318 16.352-24.025 22.906-6.9688 4.885-3.7146 5.709-22.461 19.844-15.969 13.832 3.9445 28.005 4.2993 41.094 10.969 9.8608 4.2734-2.0573 17.813-3.9063 24.906-3.8041 15.21-20.922 8.5522-32.75 10.312-5.2172 1.5144-27.411 8.9221-15.875 13.531 8.8342-5.49 24.437-10.526 33.062-4.1875 8.5545 12.054-6.2476 27.967-20.125 25.375s-23.908 14.126-33.446 22.909c-8.3205 16.709-19.698 31.57-31.115 46.241-11.929 8.7459-12.776 25.92-8.905 38.968 2.9568-9.9863 0.09901-22.604 8.6852-31.367 6.0481-5.8847 14.553-21.67 23.125-16.688 6.2542 8.1624-7.3826 30.322 5.125 30.25 12.438-9.2612-4.0996-28.574 7-37.844 10.339-0.64232 13.723 14.109 25.344 7.8125 16.226-2.1402-1.664-9.9756-8.853-8.1929-10.649-4.4024-7.3088-21.563-5.9594-30.526 6.0931-10.431 19.346-18.57 28.594-15.625s4.2003 24.466 10.656 11.656c2.9732-12.976 10.145-26.596 16.594-38.438 2.7925-12.373 11.576-21.261 18.697-31.035 4.9326-8.0396 8.6132-19.262-2.8846-22.872-0.23773-16.087-23.97-4.8114-25.656-19.438-12.657-1.5888-26.095 2.2688-39.022 1.0718-14.441-3.514-21.259-17.972-33.29-25.103-11.18-12.555-26.277-0.02741-39.188 0-10.303-9.096-24.676-13.611-37-20.938-24.344-9.4964-15.143 22.12-26.594 14.281-9.2866-9.2935-23.492-13.963-37.219-14.812-14.749-0.28858-25.134 11.457-29.906 24.375-5.2184 18.798 14.429-8.5202 18.906 3.7812 3.3735 7.6052 11.078 9.4846 12.594-0.5 6.0804-12.08 32.003-8.2463 20.656 7.4062-7.7402 9.5229-17.465 17.226-24.938 27.031-6.8554 11.23-26.839 8.0828-32.219 17.844 7.9387-1.5211 31.897-10.746 25.2 6.5866 11.337 3.3358 6.5699-23.14 19.05-20.118 0.81359 10.379 18.656 26.615 25.844 19.531-7.3633-8.7729-18.75-16.847-16.844-30.188 0.96951-12.951 16.849-21.465 28.327-16.168 10.35 13.436-6.0333 19.79-11.515 29.48-0.31555 7.5366 13.749-10.659 11.788 2.2997-6.1171 10.037 6.6197 11.071 6.2363 0.78327-1.6749-12.104 2.6408-25.913 16.388-27.926 6.3225-5.5702 13-10.594 19.962-15.439z"/>
   <path d="m560.35 226.19c5.8366 4.624 0.60183 14.044-0.7028 20.196-3.8694 6.518-8.6507 14.756 0.71748 19.041 7.0034 1.7437 13.983 4.3713 21.235 5.1064 4.4207 0.8134 16.273-4.6804 13.066 4.0024-6.3815 5.6046-15.848 4.768-23.745 3.9524-7.1539-5.3949-11.445 4.0174-18.968 3.4481-5.0026 5.259 4.5232 15.05-0.72795 22.035-2.213 6.1102-7.7995 10.286-10.688 15.812 5.3146 5.1719 11.858 10.108 14.721 17.474 4.1864 4.4955 1.3304 15.043 9.9669 13.964 7.9931-0.99838 16.192 2.4123 24.259 2.1243 10.442-0.37282 9.0454 11.965-0.92952 11.237-6.8593-0.50043-15.789-3.7162-20.923 1.4513-5.9686 6.0075-5.2868 15.726-6.1496 23.857 0.41396 7.9556-1.1269 16.137-4.6004 23.268-7.0137 1.4887-2.3632-11.062-5-15.219-0.53046-7.6656-2.8297-15.033-7.981-20.868-2.8036-4.4526-6.4563-12.668-11.73-5.378-10.802 6.3981-17.61 17.235-26.991 25.298-5.7135 6.4136-20.619 4.4221-12.079-5.5198 3.9108-7.444 12.759-9.4158 18.228-15.347 5.511-6.077 11.913-11.387 16.897-17.903 2.7582-6.972 3.375-14.583 1.9748-21.943-0.95382-6.5441 1.8214-16.973-7.0252-18.707s-18.344 2.6941-26.126 2.7869-16.709 0.96818-17.453-7.8476c-1.4124-6.708-0.325-17.265 7.5139-19.25 9.8446-1.5353 19.362 5.5786 26.788 8.2336s12.154 4.0881 19.429 1.3596 7.5135-9.3717 7.2261-16.055c-1.7619-6.816-0.66921-15.471-7.3343-19.747-4.6032-3.8257-11.821-13.852-1.3375-14.831 6.0254 2.035 12.341 4.3436 13.062-4.5312 3.4474-6.5974 5.3546-14.33 11.498-19.113 1.1403-0.97481 2.2072-2.5 3.9079-2.3874z"/>
   <path d="m-55.53-47.118c6.5816 1.8378 1.5114 12.032 2.209 17.157-0.13494 4.4444-2.3989 12.496 2.3847 14.624 5.4331-1.4957 14.572-0.10258 12.839 7.5122 3.5285 2.8244 9.5122-0.54815 14.067 0.5815 5.7393 0.48589 11.51-0.93117 17.166-0.2352 5.3338 1.963 8.2628 7.4802 12.553 10.981 5.1723 6.9002-7.3366 9.0311-11 4.1918-2.7297-3.2336-4.1372-5.8564-8.9748-4.639-6.8623-0.99307-13.891-3.1298-20.525 0.10779-6.3429-1.7379-8.5992 2.6064-5.5313 7.5625-1.0278 6.5431-7.722 2.8906-10.719 1.0312-0.79538 6.3034 5.3077 11.215 4.5658 17.531 0.91533 8.6347-5.4892 15.673-11.751 20.637-7.9824 4.5145-17.649 2.6436-25.912 6.2418-6.4572 1.3903-12.036 5.7365-16.278 10.34-3.2851 2.6008-9.3546 6.4358-10.453-1.1222-2.7558-7.3719-6.2434-15.461-3.3953-23.348 1.5885-5.317 4.1151-11.076 9.7845-13.032 5.3734-3.6747 11.996-1.3956 17.752-0.51906 6.2707-1.7183 12.071 0.10441 18.093 1.1143 8.43-1.723 1.5679-10.286 2.8109-15.609 1.7045-6.69-4.6392-10.266-8.0398-14.898-3.4273-3.9848-10.487-4.2968-10.88-10.633-1.387-8.3112 8.0302-6.0518 13.14-5.7966 5.0357-1.9344 1.7128-10.934 4.9062-15.281 2.9774-5.0162 4.4003-13.803 11.188-14.5z"/>
   <path d="m-15.614 356.37c-10.3-15.219-6.9047-25.519-12.144-22.444s-6.764 13.39-17.832 14.766-17.986 3.0823-16.141 0 9.3774-15.227 4.9193-16.457-23.154 20.784-29.669 26.457-19.456 18.586-17.986 22.275 12.606-8.3013 17.986-6.1491-0.5711 11.068 6.4565 18.908 3.1405 18.401 7.0276 14.966 0.3513-20.884 3.2722-20 9.3774 11.03 10.146 19.024 12.606 3.3435 5.073-7.8401-15.065-21.061-5.6879-24.596 23.213-5.2422 23.982-10.915-0.3075-4.2736 4.6118-5.6725 11.991 4.9039 15.988-2.3213z"/>
   <path d="m169.31 461.54c6.0274 2.1965 10.353 7.4012 15.647 10.87 5.626 4.9094 10.833 11.472 18.812 12.259 11.621 1.7943 23.413 3.0093 35.162 1.858 5.9425 0.22694 11.828-0.78334 17.35-2.788 6.2922 0.61701 1.9277 6.6994-2.1747 6.9946-4.6162 0.27369-9.2961 9.6314-2.8483 9.502 4.0877-4.2757 12.434 0.20857 11.334 5.908-1.0161 6.0551 0.60574 12.101 0.55846 18.057-0.18642 6.0688-8.0832 8.1764-8.0871 0.74838 0.46233-6.8535-7.1083-6.8104-11.985-6.9541-5.9202-1.4873-11.991-1.9725-18.075-1.5946-5.45 0.12736-10.904-0.03891-16.196-1.4776-4.6446-0.96207-11.554 0.01329-11.296 6.1272 0.55403 5.8653-5.5754 6.4037-9.1597 9.0302-4.0377 2.2372-11.613 3.6965-13.278-2.1234-2.299-4.7877-2.8954-11.407-7.5963-14.436-4.9922 0.74389-9.6337-0.13393-14.33-1.9834-5.6753-1.4778-11.435-2.1895-17.23-2.8337-6.5193-2.486-0.25826-9.2118 4.7091-7.6069 5.7535 0.18389 11.118-2.8904 16.909-1.528 5.8061 0.65204 12.041 0.9897 17.575-1.1526 5.2231-3.124 2.9506-10.293 0.81614-14.673-3.1488-7.0597-8.6973-13.173-9.9924-20.956-0.39531-2.2502 2.1299-1.4345 3.3771-1.2456z"/>
   <path d="m-40.686 443.04c6.4279 0.39879 11.8 4.3567 17.44 7.0447 7.5824 4.7266 12.786 12.877 14.618 21.549 0.46495 4.6401-0.27499 9.423-1.813 13.808-2.0904 4.3864-5.6602 7.8474-8.8077 11.473-3.9307 4.1555-6.8104 9.1691-9.624 14.116-2.2673 2.9654-0.12017 6.8117-1.053 9.9142-2.7786 3.2017-7.5729-1.0799-6.625-4.5617 0.25797-7.1875 1.7044-14.613 6.0882-20.498 2.0386-3.6795 6.498-4.741 8.9951-7.9389 1.953-1.7868 0.86008-6.8693-2.2026-4.4129-4.1701 1.4378-9.738 1.293-12.672-2.4309-2.0012-3.4512 2.194-6.6017 5.3348-6.896 2.1357-0.91558 7.7651 0.18722 7.4426-2.9476-2.4819-0.7856-5.2623-0.38237-7.8426-0.93861-3.0999-0.25261-6.4724 0.83924-8.0377 3.7046-2.5882 3.157-3.1453 7.6036-6.1768 10.411-3.2425 1.9584-7.296-1.1003-8.2925-4.2874-1.4261-4.5928 0.48993-10.192 5.0128-12.269 5.5792-3.279 11.843-4.9998 17.934-7.0271 2.2998-1.796-2.6181-4.0109-3.9617-5.5312-2.6396-2.2299-6.1252-3.4554-8.3436-6.1413-1.1035-2.0144-0.44403-6.3714 2.5866-6.14z"/>
   <path d="m78.814 492.82c4.1443-0.24925 5.1189 4.7956 7.9344 6.7849 3.4966 2.4706 8.194 1.6992 11.742-0.30999 3.6916-2.0907 8.0116-1.2483 12.037-1.2571 3.1589-0.0069 7.4502-0.562 9.3062 2.5485 2.4496 4.1054-0.88384 8.8949-4.2286 11.579-2.3945 1.9212-6.0524 1.9524-7.3343 5.2024-1.5373 3.8974-0.01161 7.1158 3.3357 9.5516 2.788 2.0288 4.8936 5.9454 5.0067 9.5031 0.13721 4.3153-6.3383 4.8948-9.0536 2.0833-1.9186-1.9864-3.1385-8.2254-4.9327-7.0292-2.196 1.464-0.56256 6.7057 0.56758 9.7492 1.4353 3.8652 5.9472 3.9231 9.0999 5.4594 4.883 2.3795 0.87654 8.3665-3.6374 7.9545-4.985-0.45503-8.9891-3.8352-10.718-8.2483-2.0314-5.186-4.1215-10.566-4.6806-16.032-0.37107-3.6275-1.7455-8.6711-6.3028-7.4171-4.1734 1.1483-4.3299 6.6511-8.399 7.8213-4.1399 1.1905-4.8519-4.3964-7.378-4.9228-2.9858-0.62227-4.7715 5.6456-8.6007 4.1395-2.9924-1.177-5.6769-3.234-7.9254-5.4833-3.2675-3.2686-2.4224-8.9046-0.28713-12.621 2.5355-4.4126 7.3499-8.1699 12.828-7.7966 4.3149 0.29408 4.9652-5.0882 6.7198-8.0407 1.0436-1.756 2.8285-3.0944 4.9013-3.2191z"/>
   <path d="m478.45-72.783c0.06214-7.7752 2.4803-15.228 5.2613-22.397 0.66035-5.1317-6.6196-2.2541-9.302-1.2723-5.2911 2.2431-11.67 2.6643-16.618-0.64826-4.1717-2.4299-8.7716-4.2171-12.559-7.2435-0.72582-3.0688 5.674-3.0543 7.5951-5.0488 2.6096-1.2091 9.8638-5.3347 5.0133-7.8751-7.0221-0.91263-14.058 0.92963-20.985 1.9124-7.7321 1.4567-15.486 2.7763-23.319 3.546-6.7184 1.0912-13.7 1.9106-19.84 5.0235-4.6051 3.4871 3.3945 4.3129 5.9514 4.1258 3.8477 0.50227 10.277 0.0494 11.2 4.986-0.46436 4.1-4.3948 6.7074-5.5732 10.585-2.0256 4.3875 0.18336 9.296-1.6497 13.738-0.12678 3.1385-4.8802 6.7661-3.1518 9.229 5.0334-0.52831 7.2945-6.2067 10.246-9.6485 1.1751-1.9945 5.1925-7.6736 5.7138-2.3518 0.73527 6.9962-0.9184 14.19-4.2998 20.327-1.7493 4.1234 4.4295 6.4348 6.7094 3.0862 3.6877-4.3634 2.2906-10.432 2.8616-15.667 0.42121-4.8311 0.21137-10.347 3.5289-14.254 3.2554-2.9266 7.6576-0.40622 11.185 0.62032 5.7857 1.8753 11.439 4.8869 17.644 4.8782 4.0769-0.25214 5.6446-7.034 10.087-3.1622 4.4007 1.8139 5.9194 8.1191 11.166 8.2945 1.0907-0.00126 2.1568-0.3249 3.1372-0.78396z"/>
   <path d="m54.289 1.4177c-2.8686-5.7661-2.1271-12.398-2.6194-18.626 0.28369-8.7892 4.6332-17.198 11.004-23.143 3.7112-2.8924 8.2889-4.5724 12.845-5.5798 4.7715-0.54046 9.4894 0.88174 14.145 1.7049 4.9659 1.3375 10.151 1.3196 15.255 1.4538 3.5121 0.49145 6.7483-0.86196 9.3786-3.121 2.0225-2.6953 5.7982 0.78425 4.5375 3.445-0.52378 3.0889-3.99 3.969-6.3811 5.2199-5.3024 2.436-11.125 4.0066-17.001 3.4066-3.6821 0.0908-6.7339-2.0967-9.9894-3.4333-2.1938-1.7876-8.578 0.99057-5.0373 3.3074 3.4168 2.8169 6.1256 7.4327 4.9215 11.963-1.3401 3.9149-6.5886 2.481-8.5161-0.13709-2.1939-1.7378-3.2335-5.7472-6.2817-5.9592-0.97789 2.3296 1.9814 4.6188 2.3635 7.0317 1.2246 2.9391 3.7106 5.873 7.1622 5.854 4.1667 0.78201 8.4432-1.0437 12.531 0.19052 3.184 1.7192 2.7017 6.4242 0.77044 8.9388-3.0528 3.6359-8.8111 5.1363-12.961 2.4598-5.8489-3.1999-10.621-7.906-15.561-12.298-2.5353-1.3697-2.0822 3.7136-2.7023 5.3518-0.64914 3.5626-0.1649 7.2788-1.0819 10.78-0.93993 2.2338-5.4174 4.0218-6.7825 1.1907z"/>
   <path d="m333.56275,16.59562c.11568-.0773.23109-.17881.35679-.24096 .5507-.27239 1.19497-.18337 1.79908-.11853 .64894.1293 1.32171.30114 1.93903.56439 .68563.21815 1.35721.41362 2.0501.60083 1.09007.31696 2.19328.63033 3.30431.84077 1.2254.29163 2.43913.58581 3.66283.88501 1.04294.22285 2.08537.44648 3.13182.64275 .72067.15856 1.46946.27352 2.19944.30783 .49905.0234.99123.02917 1.47467-.06704 .58579-.11661 1.17583-.22846 1.76293-.34075 .71221-.13615 1.42639-.27129 2.11124-.49756 .66472-.16616 1.30474-.38277 1.95737-.58175 .44108-.15431.89812-.30256 1.2792-.57142 .34885-.24612.56883-.60656.76773-.96437 .2444-.43961.54359-.87425.70673-1.34978 .21323-.62137.43465-1.22376.67586-1.83641s.42585-1.25454.84828-1.78281c.33594-.46674.76525-.82715 1.22688-1.18255 .40427-.35364.80016-.73324 1.13368-1.15084 .39169-.49045.8384-.91463 1.23912-1.3987 .4873-.5488 1.04292-1.07487 1.52157-1.63234 .55234-.53891 1.03618-1.11641 1.56637-1.67538 .51335-.54121.9902-1.12278 1.47531-1.68788 .39497-.52181.79409-1.05774 1.24007-1.54078 .41298-.44731.81012-.87511 1.30749-1.23895 .43287-.36048.87872-.7381 1.31867-1.09093 .63361-.50812 1.26753-.99544 1.93097-1.46871 .77799-.555 1.56099-1.09582 2.25622-1.75231 .60563-.53697 1.21465-1.07179 1.75764-1.67219 .39832-.44046.79552-.88895 1.26547-1.25922 .35351-.31982.69508-.64207.98447-1.02186 .37386-.49062.70243-1.03001 1.07593-1.52209 .39139-.56041.84951-1.07957 1.31836-1.57873 .44797-.5089.87874-1.00706 1.417-1.42632 .46078-.35891.94226-.69413 1.53424-.78695 .5635-.05444 1.12265-.03362 1.68691-.01037 .69421.04857 1.41613.09337 2.05365.4023 .59028.33286 1.04132.7402 1.24248,1.41034 .18916.51219.34342,1.02127.34976,1.57717 .00612.53371.06847,1.0656-.05077,1.59433-.06253.60037-.18773,1.20029-.28922,1.79434-.18373.68998-.33341,1.39456-.53557,2.07842-.17937.65593-.39654,1.28474-.57248,1.93865-.15812.58761-.35813,1.17074-.58171,1.73719-.24593.68072-.52615,1.35091-.91478,1.96869-.39247.59573-.83549,1.16613-1.21478,1.76855-.37371.5595-.68314,1.16126-1.03559,1.73171-.31625.57501-.63056,1.11461-.94515,1.68968-.26635.487-.57187.97-.8809,1.43269-.3236.42061-.64673.84536-1.02238,1.22558-.36866.37318-.80051.68202-1.20918,1.01359-.389.31561-.76754.61621-1.15839.92913l-1.18319.9455-1.15994.92364-1.1848.94022-1.18545.93769c-.38117.3014-.75487.59871-1.11688.92041s-.671.66536-.9696,1.03857c-.30747.33964-.68832.64801-.92521,1.04028-.19525.32326-.38755.63705-.51616.9894-.08183.3171-.16128.64782-.20212.96943 .02415.3627.05804.69048.18908,1.03142 .09319.33617.34101.61427.5987.83382 .47877.40795 1.04382.74406 1.61785,1.01598 .26609.126.53197.23524.81181.32495 .03175-.02885.05685-.05239.08756-.04528 .17452.04018.37128.06549.55019.08609 .39838.04599.76839.13246 1.16277.1941 .42044.06566.85988.09971 1.24255.28007 .4029.13331.81093.26156 1.1884.45323 .47039.20127.91513.43283 1.39058.62534 .55742.22561 1.10448.50455 1.61294.81832 .50357.26574 1.01672.49216 1.53433.73201 .42495.19686.83994.41713 1.28999.55962 .46603.17322.97297.26517 1.4257.47278 .52353.19267 1.02121.42397 1.5205.66717 .64613.27319 1.28524.54721 1.94253.79685 .82416.32978 1.67369.62672 2.49243.97011 .92459.40225 1.8518.82714 2.731,1.31721 .83636.46633 1.67583.90261 2.51741,1.36292 .79767.41311 1.56662.88133 2.25666,1.45055 .58619.51426 1.11964,1.07922 1.63814,1.66002 .56434.60596 1.12879,1.20872 1.69654,1.81355l1.57979,1.68802c.47203.50577.95147,1.00994 1.4446,1.49791 .43146.42698.89041.83132 1.35798,1.22232 .58395.4883 1.09837,1.04256 1.5969,1.61552 .5425.62369 1.08821,1.25473 1.58117,1.91931 .46241.62322.97639,1.18497 1.48636,1.77318 .49345.59312.9838,1.19689 1.30574,1.90025 .05124.11196.14073.22462.15368.34696 .08631.81619-.60637,1.11756-1.34278,1.14745-.5968-.00731-1.17501.06565-1.76611.12082-.64208-.02732-1.25387-.20076-1.84085-.48286-.53942-.22811-1.09369-.42432-1.62919-.66126-.4975-.1427-.98946-.29466-1.48451-.44498-.51378-.13257-1.01229-.30151-1.50157-.5115s-.95317-.42067-1.42543-.65907c-.66381-.26793-1.32867-.5647-1.98948-.83798-.64443-.26647-1.30408-.47741-1.94848-.74099-.53188-.21754-1.07262-.38923-1.59983-.61972-.57473-.20009-1.1478-.41846-1.73257-.58292-.73862-.2372-1.50314-.38049-2.23471-.64001-.67747-.24041-1.34794-.49913-2.05659-.62134-.5644-.13693-1.14741-.26167-1.71687-.36999-.70856-.13474-1.39381-.34751-2.0499-.65624-.9155-.43083-1.82974-.80523-2.73612-1.25153-1.029-.52264-2.05402-1.10501-3.10591-1.57487-.94657-.44587-1.87605-.92639-2.75403-1.49628-.76508-.44102-1.48928-.91101-2.25572-1.3465-.69063-.39246-1.407-.77143-2.113-1.13228-.66027-.37567-1.29597-.74946-1.93361-1.16062-.68144-.43942-1.39031-.88139-2.07376-1.31556-.66582-.46099-1.32457-.89013-2.0046-1.32752-.59215-.38083-1.14958-.83047-1.77372-1.15716-.4188-.21928-.89174-.33395-1.36694-.36621-.47287.0084-.91615.07032-1.35864.2546-.54034.22508-1.0531.48278-1.55855.78251-.73269.36395-1.46616.74476-2.24079,1.00524-.83863.24996-1.69943.43369-2.56244.55554-.80005.11301-1.61382.21241-2.3651.54691-.74564.26477-1.49667.46048-2.27755.55531-.75599.09182-1.547.20023-2.29023.02852-.76866-.19711-1.52392-.37813-2.24351-.71334-.79743-.3518-1.59409-.68544-2.36909-1.08182-.86321-.42325-1.75169-.82315-2.64102-1.19047-.93152-.40523-1.87379-.77184-2.78967-1.20792-.90668-.43177-1.85178-.82051-2.73997-1.28668-.99819-.47302-1.93988-1.0322-2.89118-1.58532-.91691-.55736-1.82553-1.13939-2.56389-1.91683-.77423-.85033-1.457-1.74938-1.97644-2.77147-.54938-1.08081-1.01518-2.19557-1.20502-3.39939-.10978-.91142-.21247-1.89319.43007-2.66117z"/>
   <path d="m233.93-120.42c6.1334 3.8543 1.6434 14.451-0.70279 20.196-2.8279 6.9248-8.9096 15.496 0.71748 19.041 6.7444 2.4838 14.014 4.1485 21.235 5.1064 4.4524 0.59065 18.066-3.4483 13.066 4.0024-4.588 6.8368-16.674 6.8699-23.745 3.9524-7.9801-3.293-12.584 1.0578-18.968 3.4481-6.1418 2.2994 3.5528 14.525-0.72795 22.035-3.1835 5.585-11.796 10.926-10.688 15.812 1.3181 5.8116 10.755 10.801 14.721 17.474 3.0832 5.1876 1.3304 15.043 9.9669 13.964 7.9931-0.99838 16.192 2.4124 24.259 2.1243 10.442-0.37282 9.0454 11.965-0.92952 11.237-6.8593-0.50043-15.789-3.7162-20.923 1.4513-5.9686 6.0075-5.9222 15.709-6.1496 23.857-0.22146 7.9385 0.90774 18.74-4.6004 23.268-4.979 4.0923-3.4164-9.3074-5-15.219s-3.2346-14.73-7.981-20.868c-3.2085-4.1495-5.0187-11.092-11.73-5.378-9.3645 7.9737-18.083 16.754-26.991 25.298-6.1861 5.9324-19.663 5.071-12.079-5.5198 4.8661-6.7951 12.784-9.3928 18.228-15.347 5.5361-6.0541 12.852-10.856 16.897-17.903 3.697-6.4409 3.2251-14.558 1.9748-21.943-1.1037-6.519 1.8755-16.963-7.0251-18.707-8.7925-1.7228-17.247 2.681-26.126 2.7869-6.6845 0.07974-16.238 0.899-17.453-7.8476-0.94152-6.7772-0.40829-17.672 7.5139-19.25 9.7613-1.9433 18.06 5.1131 26.788 8.2336 6.1238 2.1894 12.557 3.9369 19.429 1.3596 7.678-2.8797 8.2246-9.4777 7.2261-16.055-1.0508-6.922-0.91672-15.133-7.3343-19.747-4.8507-3.4876-11.629-15.489-1.3375-14.831 6.2167 0.39782 10.792 3.8959 13.062-4.5312 1.8982-7.0451 5.3911-14.285 11.498-19.113 1.1767-0.93011 2.504-3.2697 3.9079-2.3874z"/>
   <path d="m558.91 509.91c-7.4543 3.2565-15.363 4.8942-23.307 6.5147-5.7488 2.4978-11.898 2.9272-18.068 2.9228-8.3572 1.0886-17.008 3.035-25.283 0.31237-8.3466-2.8535-17.482-1.489-25.842 0.59388-6.2223 3.1763 0.46248 13.097-8.0476 15.36 0.16064 6.3871-0.59511 14.511 4.7303 19.812-1.0602 4.7918-8.6126 9.0178-2.1827 13.828 4.2309 6.4031 8.1741 13.044 12.516 19.37 4.4556 5.4246 6.7123 12.602 5.0997 19.566 1.0626 7.9755-8.5219 6.7189-8.5219 26.719h20c-6.1385-5.95-6.7875-7.7659-4.1863-13.774s0.58848-12.449 2.1827-17.974c5.9922-6.2864 11.911 3.6505 18.18 4.6342 5.1833 1.4406 16.161 7.2386 18.386 0.45823-5.1669-5.7466-14.028-3.8853-20.453-7.134-2.7319-3.3653 8.4088-11.604 0.20272-11.366-5.3987 2.8884-13.71 5.4132-17.506-1.2029-4.4438-5.9914-3.8563-13.804-6.7131-20.391-4.0093-5.3957-5.1984-12.266-5.1805-18.884-0.98915-5.9146-5.021-17.332 5.6805-15.022 6.5936-1.0906 13.163-3.8857 19.906-1.5022 8.3149-4.1096 11.422 5.5481 14.625 11.252 3.3085 5.6268 5.6477 12.237 11.475 15.826 4.4377 2.704 10.088 10.618 15.4 7.08 1.4577-6.673-9.9498-5.5141-10.906-12.312-2.7472-5.4611-10.644-9.1776-10.195-15.649 1.0904-7.8297 10.113-12.295 17.324-10.166 7.1996 0.34258 13.674 5.5985 15.464 12.596 1.5294 7.0939 8.686 10.236 15.105 11.465 7.0009 3.0152 23.498 6.0194 31.207 6.372v-21.841c-4.5645 3.0917-9.3212 8.0455-14.242 8.8385-7.0977 4.2586-14.378-0.18858-20.41-4.044-5.2252-3.2668-11.037-6.0978-12.481-12.764-4.3685-7.703 5.3657-11.401 9.289-16.276 1.3967-1.7064-1.9131-3.2484-3.25-3.2188z"/>
   <path d="m470-165.09c0 10-0.22195 14.54 5.4509 19.924 3.7758 7.2588 13.101 10.067 16.018 17.921 2.045 6.7225-4.6967 12.562-1.1896 19.711 2.3546 7.5668-0.47522 15.15 0.90837 22.789-0.06186 7.036 6.6544 7.0541 11.219 8.7812 0.62736 5.2424 3.7458 6.983 6.9286 2.0682 2.7165-4.5789 10.968-4.4432 7.7901 2.4318-1.8745 7.1496-1.1362 14.552-1.512 21.843 0.28597 7.4474 3.9906 13.925 6.137 20.907 4.4392 5.3661 8.8237 12.137 16.321 13.268 7.9798 1.5424 16.658 2.4618 24.446-0.42862 4.7863-5.3395-7.8784-5.8689-10.329-9.8708-7.0979-4.5291 9.0407-15.731-0.59857-18.315-7.6271 1.8072-16.598-1.5446-19.839-8.998-6.663-8.7821 6.2102-14.935 13.603-11.651 7.957 1.4689 15.227 5.5558 23.366 6.1821 7.2773 1.6173 15.496 1.9706 20.63 8.1348 3.3261 2.2078 8.6496 8.6613 10.651 9.0027v-4.6423c-1.3343-2.1-5.3217-6.9946-6.0267-9.5006-0.93127-3.3422 4.2872-5.0683 6.0267-5.8786v-4.4199c-6.3897-3.0675-13.828 3.176-20.843 0.89806-10.005-3.6492 4.5079-9.5482 3.5928-16.032 2.3691-6.5957 3.44-16.339-1.684-21.315-5.2833 4.039-4.0474 11.905-6.4035 17.623-4.1483 6.461-9.839 13.099-17.885 14.282-7.6085 0.24664-15.941-2.504-19.746-9.6205-6.9539-6.3232-1.3907-13.918 5.358-17.085 6.5974-3.2748 12.06 4.4181 18.642 4.272 4.7168 1.2797 8.5586-2.7101 2.1344-4.2418-6.6212-0.7134-6.8014-7.8296 0.2719-8.0707 5.2976 0.69798 7.5361-6.2123 1.2499-6.206-8.5426-0.18717-14.338 8.1369-22.937 7.9735-8.564 1.1551-12.674-8.6422-20.591-9.791-7.3035-2.9914-15.855-5.3659-21.154-11.42-5.8068-5.0378-3.6795-13.1 4.2198-13.935 6.4964-2.426 13.415 2.2182 20.072 0.59349 7.8186-1.1552 16.35-4.7896 20.703-11.308-8.32 1.1128-17.136 3.5106-25.375 0.78125-11.626-2.0643-19.625-6.6573-29.625-16.657h-20z"/>
   <path transform="translate(-150,-165)" d="m0,99.09375v4.53125c.39316-.13974.77854-.32388 1.15625-.5 .54685-.30033 1.43177-.50869 1.46875-1.25-.08084-.77139-.74188-1.32055-1.28125-1.8125-.42648-.35827-.8781-.68993-1.34375-.96875zm0,19.75v4.92022c.69636.81533 1.47387,1.55776 2.21875,2.32978 .55531.61355 1.17578,1.17033 1.84375,1.65625 .65237.4334 1.39212.6081 2.125.84375 .61547.15142 1.27528.25633 1.90625.15625 .49032-.16906.4574-.42116.46875-.875-.04149-.6808-.22948-1.331-.59375-1.90625-.68659-.85728-1.58171-1.48599-2.4375-2.15625-1.18067-.88388-2.28673-1.85463-3.40625-2.8125-.76218-.65763-1.45691-1.39656-2.125-2.15625z"/>
   <path d="m-147.41 510.78c-3.1904 1.4374-2.0235 6.0997-0.75 8.5938 1.6907 2.9631 3.3149 5.9756 4.0172 9.3522 1.6794 4.0296-3.1834 6.5431-5.861 8.6372v21.792c7.1893 0.19325 14.31 1.6449 21.521 1.3107 4.9701 0.87183 9.9142 1.9782 14.981 2.2022 4.4969 1.0712 9.2747 1.0199 13.528 3.0037 5.4284 1.9475 11.291 0.23201 16.629-1.2132 3.8032-1.6408 7.3892-3.7954 10.923-5.9416 1.9352-1.6731 5.7444-3.5948 5.8872-5.768-3.6861-0.26782-6.8538 2.3962-9.8406 4.247-3.4415 2.1622-7.3456 3.8142-11.49 3.5887-4.6038 0.42277-9.2468 0.46235-13.794-0.46958-4.3311-0.16345-8.274-2.0179-12.282-3.4286-3.4768-1.2222-8.1006-1.2414-10.264-4.5637-0.69681-3.6148 2.6018-6.4447 5.5148-7.9234 6.5681-4.1543 14.919-5.0388 20.784-10.366 2.728-3.718-4.4991-6.0883-7.4113-5.7688-3.8907 0.73594-7.2362 3.1411-10.539 5.2034-3.6122 2.7886-6.9647 6.0294-11.272 7.7623-3.12 1.5189-8.4746 3.8683-9.926-0.92887-2.6802-4.1469-0.58636-8.5856 1.2853-12.539 1.4756-3.7925-2.1904-6.6443-4.2017-9.3489-2.1182-2.5537-3.3201-6.6895-6.8764-7.4332h-0.5625z"/>
   <path d="m244.16-165c-1.167 5.4262-3.1316 10.626-5.3459 15.702-2.0173 4.4236-2.5233 9.9291 0.05885 14.231 1.6257 2.8156 5.5133 2.8359 7.6275 0.59072 1.7077-1.6712 3.9196-2.5455 6.0033-3.6165 2.3584-1.3451 3.5763-4.0882 3.2391-6.7479-0.36178-3.4367-1.6899-6.7479-1.3954-10.252-0.16105-3.6325 1.8968-6.8068 3.5-9.9062h-13.688zm38.094 0c2.6419 2.8723 5.6168 5.4398 8.867 7.5987 1.8448 1.7826 6.5662 1.7192 5.2271-1.8849-0.67381-2.0606-1.8768-3.8797-3.0003-5.7138h-11.094z"/>
   <path d="m-148.34 65c-1.6562 0-1.6562-0.15956-1.6562 2.309v8.0918c2.1611-1.4816 5.0758-3.2029 6.3186-5.7098 2.1966-0.99371 3.4063-5.4414-0.06228-4.6708-1.5328-0.04598-3.0668-0.00829-4.6-0.02018zm27.219 41.219c-4.0192 0.14537-6.4051 4.3427-10.361 4.7055-2.9958 0.41089-5.9562 1.0573-8.9897 1.1022-3.3102 0.24095-6.3655 1.6044-9.524 2.4736v18.094c2.9321-0.74012 4.791-3.2736 5.7551-5.9894 0.60887-2.9537 2.9757-5.4416 6.1451-5.262 2.8272-0.1479 5.5604 0.81857 8.3105 1.3091 2.706 0.76071 4.893 2.5698 7.4599 3.6029 2.8096 1.3506 5.4596-1.3683 6.1259-3.9374 0.89892-3.1092 1.1166-6.453 0.9063-9.6734-0.34044-2.823-1.9802-5.9481-5.0896-6.3188l-0.36752-0.05914-0.37064-0.04702z"/>
  </g>
 </g>
</svg>
